<svg width="402" height="439" viewBox="0 0 402 439" fill="none" xmlns="http://www.w3.org/2000/svg">
<path opacity="0.4" d="M390.096 302.196L221.853 200.545L5.61174 331.201L0 334.818L172.328 438.944L394.365 304.777V299.623L390.096 302.196Z" fill="#D6D8E5"/>
<path d="M396.882 298.07L228.639 196.41L10.8627 327.997L6.59312 325.416V330.578L179.106 434.818L401.151 300.651V295.489L396.882 298.07Z" fill="#252935"/>
<path d="M179.106 429.656L6.59312 325.416L228.639 191.248L401.151 295.489L179.106 429.656Z" fill="#2B303F"/>
<path d="M10.9047 327.997C11.4332 327.874 15.988 324.924 15.988 324.924V290.818L10.9047 287.746V327.997Z" fill="#3A4151"/>
<path d="M179.207 423.985L15.4847 325.302V277.167L18.1102 274.911L179.207 371.347V423.985Z" fill="#E6E9EF"/>
<path d="M391.983 295.357L179.207 423.985V371.347L387.344 245.528L391.983 248.53V295.357Z" fill="#F4F6F9"/>
<path d="M396.882 252.656L228.639 150.997L10.8627 282.584L6.59312 280.003V285.165L179.106 389.405L401.151 255.237V250.084L396.882 252.656Z" fill="#252935"/>
<path d="M179.106 384.243L6.59312 280.003L228.639 145.844L401.151 250.084L179.106 384.243Z" fill="#2B303F"/>
<path d="M6.59312 325.416V280.003L10.8627 282.584V332.974L6.59312 325.416Z" fill="#252935"/>
<path d="M383.268 244.176L223.832 147.837L17.4559 272.532L13.4044 270.091V274.981L176.891 373.761L387.319 246.617V241.727L383.268 244.176Z" fill="#E8A30A"/>
<path d="M176.891 368.871L13.4044 270.091L223.832 142.947L387.319 241.727L176.891 368.871Z" fill="#F9CB07"/>
<path d="M17.4561 272.532C17.951 272.418 22.2709 269.626 22.2709 269.626V237.302L17.4561 234.396V272.532Z" fill="#F9CB07"/>
<path d="M176.984 363.499L21.8346 269.977V224.371L24.3175 222.229L176.984 313.617V363.499Z" fill="#E6E9EF"/>
<path d="M378.629 241.604L176.984 363.499V313.617L374.234 194.382L378.629 197.227V241.604Z" fill="#F4F6F9"/>
<path d="M383.268 201.142L223.832 104.802L17.4559 229.498L13.4044 227.057V231.947L176.891 330.727L387.319 203.583V198.693L383.268 201.142Z" fill="#E8A30A"/>
<path d="M176.891 325.837L13.4044 227.057L223.832 99.9127L387.319 198.693L176.891 325.837Z" fill="#F9CB07"/>
<path d="M13.4044 270.091V227.057L17.4559 229.498V277.255L13.4044 270.091Z" fill="#E8A30A"/>
<path d="M375.106 189.817L222.784 97.7793L25.6178 216.918L21.7508 214.582V219.253L177.94 313.626L378.973 192.152V187.482L375.106 189.817Z" fill="#AB210D"/>
<path d="M177.94 308.955L21.7508 214.582L222.784 93.1089L378.973 187.482L177.94 308.955Z" fill="#FF582B"/>
<path d="M25.6178 216.918C26.0959 216.795 30.2229 214.135 30.2229 214.135V183.251L25.6178 180.476V216.918Z" fill="#FF582B"/>
<path d="M178.032 303.811L29.8035 214.477V170.899L32.1773 168.853L178.032 256.159V303.811Z" fill="#E6E9EF"/>
<path d="M370.669 187.368L178.032 303.811V256.159L366.474 142.244L370.669 144.966V187.368Z" fill="#F4F6F9"/>
<path d="M375.106 148.706L222.784 56.6678L25.6178 175.797L21.7508 173.462V178.133L177.94 272.514L378.973 151.041V146.371L375.106 148.706Z" fill="#AB210D"/>
<path d="M177.94 267.835L21.7508 173.462L222.784 51.9973L378.973 146.37L177.94 267.835Z" fill="#FF582B"/>
<path d="M21.7508 214.582V173.462L25.6178 175.797V221.421L21.7508 214.582Z" fill="#AB210D"/>
<path d="M382.89 145.106L222.523 48.205L14.9478 173.629L10.8711 171.171V176.096L175.314 275.455L386.967 147.564V142.648L382.89 145.106Z" fill="#A5AD00"/>
<path d="M175.314 270.53L10.8711 171.171L222.523 43.2888L386.967 142.648L175.314 270.53Z" fill="#B9CC00"/>
<path d="M14.9478 173.629C15.4427 173.515 19.7878 170.705 19.7878 170.705V138.224L14.9478 135.291V173.629Z" fill="#B9CC00"/>
<path d="M175.407 265.123L19.3517 171.066V125.178L21.8514 123.027L175.407 214.951V265.123Z" fill="#E6E9EF"/>
<path d="M378.226 142.525L175.407 265.122V214.951L373.806 95.0227L378.226 97.8846V142.525Z" fill="#F4F6F9"/>
<path d="M382.89 101.818L222.523 4.91626L14.9478 130.349L10.8711 127.891V132.807L175.314 232.167L386.967 104.276V99.3595L382.89 101.818Z" fill="#A5AD00"/>
<path d="M175.314 227.25L10.8711 127.891L222.523 0L386.967 99.3595L175.314 227.25Z" fill="#B9CC00"/>
<path d="M10.8711 171.171V127.891L14.9478 130.349V178.378L10.8711 171.171Z" fill="#A5AD00"/>
<path opacity="0.1" d="M296.491 131.376L163.94 51.2862L177.604 43.0341L310.156 123.124L296.491 131.376Z" fill="black"/>
<path opacity="0.1" d="M253.258 131.095L164.41 77.4123L171.246 73.2863L260.095 126.969L253.258 131.095Z" fill="black"/>
<path opacity="0.1" d="M238.327 141.367L149.479 87.6749L156.307 83.5488L245.155 137.232L238.327 141.367Z" fill="black"/>
<path opacity="0.1" d="M207.685 140.524L148.011 104.469L154.847 100.343L214.513 136.398L207.685 140.524Z" fill="black"/>
<path d="M85.3085 99.2016C86.1473 97.718 92.9166 96.7523 95.1227 102.713C95.9616 104.969 95.8357 110.746 96.532 114.38C97.2282 118.015 98.8891 120.06 99.4846 123.01C100.08 125.96 99.1071 130.911 92.3294 131.789C85.5517 132.667 80.3342 130.174 78.7321 127.909C77.1299 125.644 77.0544 120.833 78.7321 118.252C80.4097 115.671 81.6596 113.573 81.6176 110.21L85.3085 99.2016Z" fill="#3A2C6D"/>
<path d="M89.7543 98.1569C89.7543 98.1569 84.7214 96.6293 81.6177 99.4912C80.608 100.469 79.8727 101.717 79.4913 103.1C79.1099 104.483 79.0968 105.949 79.4536 107.34C79.8646 109.016 80.6866 111.299 81.97 111.422C83.2534 111.545 89.7543 98.1569 89.7543 98.1569Z" fill="#3A2C6D"/>
<path d="M91.6836 112.598C91.6836 112.598 91.3564 118.506 91.4571 118.936C91.5578 119.367 93.6716 119.814 94.2588 120.306C94.846 120.798 91.1971 126.811 89.3349 127.698C87.4727 128.584 81.7099 126.319 81.3073 123.308C80.9382 120.552 82.985 118.401 83.7399 117.655C84.2669 117.604 84.7965 117.589 85.3253 117.611L85.493 114.749C88.0179 113.915 91.6836 112.598 91.6836 112.598Z" fill="#FFCEA9"/>
<path d="M75.0917 144.106C73.498 146.418 71.6035 148.487 69.4632 150.251C68.8676 150.795 68.5656 151.374 67.5507 152.577C66.5429 153.796 65.2384 154.706 63.776 155.211C62.5009 155.553 61.9641 155.465 61.746 155.211C61.5279 154.956 61.6369 154.579 62.1906 154.333C63.1114 154.052 63.9678 153.577 64.707 152.937C64.707 152.937 63.5243 153.517 62.7777 153.815C62.1014 154.062 61.3957 154.209 60.6807 154.254C59.9845 154.254 59.2463 153.376 59.7999 153.148C60.3535 152.92 60.8652 152.876 61.9641 152.454C62.5573 152.239 63.1212 151.944 63.6417 151.576C62.8794 151.81 62.0992 151.974 61.3098 152.068C60.6563 152.184 59.9846 152.105 59.3721 151.84C59.045 151.69 58.7598 151.067 59.4979 150.865C60.4559 150.763 61.3974 150.533 62.2996 150.181C63.1384 149.777 63.7005 149.347 63.5075 149.303C63.3146 149.259 62.8281 149.496 61.9641 149.426C61.1001 149.355 60.2864 148.785 60.2864 148.302C60.2864 147.819 60.471 148.082 61.3182 148.012C62.2142 147.781 63.1255 147.619 64.0444 147.529C64.9503 147.566 65.8561 147.454 66.7286 147.196C67.6513 146.906 69.7148 144.316 71.2918 141.928C73.0156 139.28 74.3791 136.393 75.3434 133.351C76.2912 130.086 77.4236 123.967 78.2289 121.842C79.0342 119.718 80.4266 118.743 81.752 118.699C83.3122 118.647 83.9749 120.789 83.5638 122.641C82.767 125.819 79.311 138.303 75.0917 144.106Z" fill="#FFCEA9"/>
<path d="M92.4554 119.516C94.0408 119.77 95.8107 120.657 96.1043 121.561C96.3979 122.624 97.0187 127.619 95.6514 131.42C94.2841 135.221 92.7239 142.069 91.9354 143.71C87.856 144.323 83.6983 143.488 80.1247 141.34C80.1247 141.34 79.7976 134.73 79.7724 132.561C74.6723 127.9 79.0342 122.158 83.3542 117.69C83.8734 117.646 84.3952 117.646 84.9144 117.69C84.9144 117.69 81.0558 122.466 83.7317 125.178C89.4776 123.291 90.5933 120.587 92.4554 119.516Z" fill="#F4F4F4"/>
<path d="M81.1479 105.285C81.7183 101.493 84.3354 98.6309 88.0682 98.8592C89.0135 98.9163 89.9388 99.1679 90.7912 99.5995C91.6435 100.031 92.4062 100.634 93.0357 101.375C93.6652 102.115 94.149 102.978 94.4596 103.914C94.7702 104.85 94.9015 105.841 94.8459 106.83C94.7814 107.982 94.4622 109.103 93.9134 110.104C93.3647 111.105 92.6013 111.959 91.6836 112.598C91.5555 113.174 91.3612 113.731 91.1048 114.257C89.7794 115.873 86.2647 116.891 85.1072 116.891C84.1006 116.891 83.2366 115.925 82.2971 114.257C80.3426 110.921 80.8375 107.164 81.1479 105.285Z" fill="#FFCEA9"/>
<path d="M89.2258 98.9293C91.8514 99.4648 94.0071 100.237 94.7201 102.932C95.2067 104.785 95.8442 108.323 95.2318 109.815L94.8627 110.886L91.6836 112.598C91.6836 112.598 90.1989 111.308 90.6686 107.524C90.651 107.009 90.4939 106.509 90.2157 106.084C90.0189 105.727 89.872 105.343 89.7795 104.943C89.4059 103.92 88.6698 103.086 87.7243 102.616C85.3589 101.221 81.8526 102.423 81.4164 102.924C82.081 101.42 83.2205 100.202 84.6429 99.4742C86.0653 98.7466 87.6838 98.5542 89.2258 98.9293Z" fill="#3A2C6D"/>
<path d="M74.7897 189.721C73.4643 190.844 71.4344 190.063 71.3085 190.168C69.958 191.582 67.9532 192.802 66.4434 194.057C65.6045 194.733 64.3295 195.646 64.5644 196.954C64.9754 199.298 68.5572 198.57 69.9077 197.832C71.2582 197.095 72.3571 195.927 73.6405 195.102C74.5464 194.505 75.444 194.224 75.5866 192.995C75.6704 192.258 75.0329 189.685 74.7897 189.721Z" fill="#38226D"/>
<path d="M75.5698 192.539C75.3936 193.689 74.5128 194.005 73.6069 194.593C72.3067 195.471 71.1659 196.656 69.8154 197.376C68.4649 198.096 65.4535 198.693 64.5811 197.016C65.0593 199.272 68.574 198.57 69.9077 197.894C71.2414 197.218 72.3571 195.989 73.6405 195.164C74.5464 194.567 75.4439 194.286 75.5865 193.057C75.6038 192.884 75.5982 192.71 75.5698 192.539Z" fill="#9C73FF"/>
<path d="M68.3307 185.919C67.1144 186.955 65.2774 186.376 65.1935 186.472C63.7772 187.731 62.2928 188.904 60.7477 189.984C59.9928 190.607 58.8101 191.441 59.0198 192.618C59.4056 194.76 62.6854 194.101 63.9185 193.443C65.1516 192.784 66.1666 191.687 67.3325 190.941C68.1713 190.397 69.0102 190.116 69.1192 189.018C69.2031 188.404 68.5404 185.893 68.3307 185.919Z" fill="#38226D"/>
<path d="M69.1109 188.623C68.9431 189.677 68.1378 189.975 67.3074 190.511C66.1163 191.283 65.0677 192.398 63.8347 193.057C62.6016 193.715 59.8419 194.259 59.0366 192.732C59.4728 194.795 62.6939 194.145 63.9186 193.496C65.1432 192.846 66.1666 191.74 67.3326 190.994C68.1714 190.449 69.0102 190.168 69.1193 189.071C69.1328 188.922 69.13 188.772 69.1109 188.623Z" fill="#9C73FF"/>
<path d="M86.701 145.168C83.1045 145.665 79.4468 145.112 76.1318 143.57C76.1905 144.738 76.2492 145.782 76.2492 145.782C71.946 148.969 63.3145 154.324 62.7525 158.02C63.3145 169.705 65.009 186.385 65.4955 186.622C66.846 187.298 67.7855 187.192 68.423 186.516C68.423 186.516 71.1324 176.622 70.3439 162.102C70.3439 162.102 85.4427 155.132 86.3822 151.313C86.8212 149.774 86.961 148.16 86.7932 146.564C86.7849 146.098 86.7513 145.633 86.701 145.168Z" fill="#FFCEA9"/>
<path d="M91.7005 143.649C88.7142 145.106 85.9797 145.291 82.6076 144.922C82.6076 146.485 82.8257 149.426 82.8257 149.426C78.5225 152.604 69.891 157.967 69.3206 161.663C69.891 173.339 70.9311 190.256 71.4261 190.467C72.005 190.727 72.639 190.823 73.2646 190.746C73.8902 190.669 74.4855 190.421 74.9911 190.028C74.9911 190.028 77.7089 180.257 76.9204 165.746C76.9204 165.473 89.8215 158.828 91.4572 157.063C93.0929 155.299 93.4117 152.674 93.3613 150.207C93.2381 147.926 92.6731 145.695 91.7005 143.649Z" fill="#FFCEA9"/>
<path d="M94.8627 146.125C94.8627 146.125 99.6273 154.965 91.6836 159.513C83.2953 164.315 78.1785 165.438 78.1785 165.438L76.9203 165.746C77.3168 168.795 77.3168 171.887 76.9203 174.937C76.9203 174.937 70.9394 177.123 63.3061 170.091L60.7897 161.567L60.4961 159.302C60.35 158.532 60.3893 157.737 60.6104 156.988C60.8315 156.238 61.2276 155.558 61.7627 155.009C63.5997 153.253 69.4044 148.864 73.0113 146.274C76.6183 143.684 79.4619 141.34 79.4619 141.34L80.0994 140.726C80.0994 140.726 84.3774 144.29 92.2037 143.096C93.2361 143.954 94.1334 144.976 94.8627 146.125Z" fill="#8C50FF"/>
<path d="M90.1318 159.249C90.8589 158.561 91.6296 157.924 92.4386 157.344C93.2932 156.885 94.0766 156.293 94.7621 155.588C95.4919 154.825 96.574 151.611 97.136 148.477C97.6569 144.982 97.6001 141.418 96.9682 137.943C95.9789 133.781 94.6429 129.719 92.9754 125.802C91.9101 123.458 92.5141 122.027 93.4787 120.991C94.6195 119.77 95.8023 119.797 97.1528 123.071C99.0561 127.657 100.463 132.45 101.347 137.363C101.891 140.93 101.846 144.567 101.213 148.117C100.647 151.23 99.7265 154.26 98.4697 157.142C98.1258 158.02 98.0671 158.705 97.5806 160.399C97.1176 162.094 96.2717 163.648 95.1144 164.929C94.0827 165.939 93.5542 166.132 93.269 166C92.9838 165.868 92.9335 165.447 93.3529 164.929C94.075 164.165 94.6628 163.273 95.0893 162.295C95.0893 162.295 94.2504 163.472 93.6465 164.121C93.1308 164.708 92.5442 165.221 91.9017 165.649C91.2726 166.044 90.2744 165.579 90.6854 165.043C91.0965 164.508 91.5243 164.218 92.3631 163.235C92.8097 162.712 93.198 162.138 93.5207 161.523C92.9214 162.146 92.2733 162.716 91.583 163.226C91.051 163.674 90.4079 163.954 89.7292 164.034C89.3769 164.034 88.8904 163.603 89.4859 163.015C90.3298 162.405 91.1013 161.692 91.7843 160.891C92.4218 160.013 92.7489 159.337 92.5476 159.354C92.3463 159.372 92.0024 159.89 91.1803 160.285C90.3583 160.68 89.4188 160.548 89.251 160.074C89.0833 159.6 89.3853 159.776 90.1318 159.249Z" fill="#FFCEA9"/>
<path d="M99.2415 127.487C99.2415 127.487 96.3475 130.173 93.1264 129.629L91.8766 123.993C91.8766 123.993 91.0378 121.035 93.4536 119.911C95.8694 118.787 98.1929 121.728 99.2415 127.487Z" fill="#EDEDED"/>
<path d="M83.3542 117.637C83.3542 117.637 80.2253 116.645 76.8952 123.905L78.1451 124.687C78.1451 124.687 81.4165 119.507 83.3542 117.637Z" fill="#EDEDED"/>
<path d="M62.1822 149.689L72.6927 143.342C72.7842 143.285 72.8885 143.256 72.9947 143.256C73.1008 143.256 73.2051 143.285 73.2966 143.342L91.7508 154.482L80.9383 161.022L62.1822 149.689Z" fill="#F4F4F4"/>
<path d="M81.1901 158.503L82.0289 158.994C82.096 158.994 82.0876 159.1 82.0289 159.144L81.2655 159.609C81.2253 159.631 81.1807 159.642 81.1355 159.642C81.0903 159.642 81.0457 159.631 81.0055 159.609L80.1667 159.126C80.0996 159.082 80.108 159.021 80.1667 158.968L80.9384 158.512C80.9765 158.489 81.0193 158.476 81.0632 158.474C81.1071 158.473 81.1506 158.483 81.1901 158.503Z" fill="#3A2C6D"/>
<path d="M80.0575 157.818L80.8963 158.301C80.9551 158.345 80.9467 158.415 80.8963 158.459L80.133 158.924C80.0922 158.944 80.0479 158.954 80.003 158.954C79.9581 158.954 79.9137 158.944 79.873 158.924L79.0341 158.441C78.967 158.397 78.9754 158.327 79.0341 158.283L79.7975 157.818C79.8377 157.797 79.8823 157.785 79.9275 157.785C79.9727 157.785 80.0173 157.797 80.0575 157.818Z" fill="#3A2C6D"/>
<path d="M78.9 157.142L79.7388 157.625C79.8059 157.669 79.7975 157.73 79.7388 157.783L78.9755 158.24C78.9352 158.261 78.8907 158.272 78.8455 158.272C78.8002 158.272 78.7557 158.261 78.7154 158.24L77.8766 157.748C77.8179 157.748 77.8179 157.643 77.8766 157.599L78.6399 157.133C78.6804 157.112 78.7256 157.101 78.771 157.103C78.8165 157.104 78.8609 157.118 78.9 157.142Z" fill="#3A2C6D"/>
<path d="M77.776 156.44L78.6148 156.931C78.6819 156.931 78.6735 157.037 78.6148 157.081L77.8515 157.546C77.8112 157.568 77.7667 157.579 77.7214 157.579C77.6762 157.579 77.6317 157.568 77.5914 157.546L76.7526 157.063C76.6855 157.063 76.6939 156.958 76.7526 156.905L77.5243 156.449C77.5624 156.426 77.6052 156.413 77.6491 156.411C77.693 156.41 77.7365 156.42 77.776 156.44Z" fill="#3A2C6D"/>
<path d="M76.6436 155.755L77.4824 156.238C77.5411 156.282 77.5327 156.352 77.4824 156.396L76.7191 156.861C76.6783 156.881 76.6339 156.891 76.589 156.891C76.5442 156.891 76.4998 156.881 76.459 156.861L75.6202 156.378C75.5531 156.378 75.5615 156.264 75.6202 156.22L76.3835 155.755C76.4238 155.733 76.4683 155.722 76.5135 155.722C76.5588 155.722 76.6033 155.733 76.6436 155.755Z" fill="#3A2C6D"/>
<path d="M75.4944 155.07L76.3333 155.553C76.4004 155.553 76.392 155.658 76.3333 155.711L75.5615 156.168C75.5228 156.189 75.4796 156.2 75.4357 156.2C75.3918 156.2 75.3486 156.189 75.3099 156.168L74.4711 155.676C74.404 155.676 74.4123 155.571 74.4711 155.527L75.2344 155.061C75.2753 155.041 75.3202 155.031 75.3654 155.033C75.4106 155.035 75.4549 155.047 75.4944 155.07Z" fill="#3A2C6D"/>
<path d="M74.362 154.377L75.2009 154.868C75.268 154.868 75.2596 154.974 75.2009 155.018L74.4375 155.483C74.3973 155.504 74.3527 155.516 74.3075 155.516C74.2623 155.516 74.2177 155.504 74.1775 155.483L73.3387 155C73.2716 155 73.2799 154.895 73.3387 154.842L74.1104 154.385C74.1484 154.363 74.1913 154.35 74.2352 154.348C74.279 154.347 74.3226 154.357 74.362 154.377Z" fill="#3A2C6D"/>
<path d="M73.2295 153.692L74.0684 154.175C74.1355 154.175 74.1271 154.289 74.0684 154.333L73.305 154.798C73.2643 154.818 73.2199 154.828 73.175 154.828C73.1301 154.828 73.0858 154.818 73.045 154.798L72.2062 154.315C72.1474 154.315 72.1558 154.201 72.2062 154.157L72.9695 153.692C73.0097 153.67 73.0543 153.659 73.0995 153.659C73.1447 153.659 73.1893 153.67 73.2295 153.692Z" fill="#3A2C6D"/>
<path d="M72.0886 153.007L72.9275 153.49C72.9946 153.49 72.9862 153.596 72.9275 153.648L72.1557 154.105C72.117 154.126 72.0738 154.137 72.0299 154.137C71.9861 154.137 71.9429 154.126 71.9041 154.105L71.0653 153.613C70.9982 153.613 71.0066 153.508 71.0653 153.464L71.8286 152.999C71.8695 152.978 71.9144 152.969 71.9596 152.97C72.0049 152.972 72.0491 152.984 72.0886 153.007Z" fill="#3A2C6D"/>
<path d="M70.948 152.314L71.7868 152.805C71.8539 152.805 71.8455 152.911 71.7868 152.955L71.0151 153.42C70.9763 153.441 70.9331 153.453 70.8892 153.453C70.8454 153.453 70.8022 153.441 70.7634 153.42L69.9246 152.937C69.8575 152.893 69.8659 152.832 69.9246 152.779L70.6963 152.322C70.7344 152.3 70.7772 152.287 70.8211 152.285C70.865 152.284 70.9085 152.294 70.948 152.314Z" fill="#3A2C6D"/>
<path d="M69.8155 151.629L70.6543 152.112C70.7214 152.112 70.713 152.226 70.6543 152.27L69.8909 152.735C69.8502 152.755 69.8058 152.765 69.7609 152.765C69.716 152.765 69.6717 152.755 69.6309 152.735L68.7921 152.252C68.7334 152.208 68.7418 152.138 68.7921 152.094L69.5554 151.629C69.5957 151.607 69.6402 151.596 69.6854 151.596C69.7306 151.596 69.7752 151.607 69.8155 151.629Z" fill="#3A2C6D"/>
<path d="M68.6747 150.944L69.5135 151.427C69.5806 151.427 69.5723 151.532 69.5135 151.585L68.7418 152.042C68.7031 152.063 68.6599 152.074 68.616 152.074C68.5721 152.074 68.5289 152.063 68.4902 152.042L67.6513 151.55C67.5842 151.55 67.5926 151.445 67.6513 151.401L68.4147 150.935C68.4556 150.915 68.5005 150.905 68.5457 150.907C68.5909 150.909 68.6351 150.921 68.6747 150.944Z" fill="#3A2C6D"/>
<path d="M67.5339 150.251L68.3727 150.742C68.4398 150.742 68.4314 150.848 68.3727 150.891L67.601 151.357C67.5622 151.378 67.519 151.39 67.4752 151.39C67.4313 151.39 67.3881 151.378 67.3493 151.357L66.5105 150.874C66.4434 150.83 66.4518 150.769 66.5105 150.716L67.2822 150.259C67.3203 150.237 67.3631 150.224 67.407 150.222C67.4509 150.221 67.4944 150.23 67.5339 150.251Z" fill="#3A2C6D"/>
<path d="M65.8479 149.241L67.1984 150.057C67.2655 150.101 67.2571 150.171 67.1984 150.215L66.435 150.68C66.3943 150.7 66.3499 150.71 66.305 150.71C66.2601 150.71 66.2158 150.7 66.175 150.68L64.8245 149.864C64.7574 149.82 64.7658 149.759 64.8245 149.706L65.5962 149.241C65.6355 149.222 65.6785 149.212 65.722 149.212C65.7656 149.212 65.8085 149.222 65.8479 149.241Z" fill="#3A2C6D"/>
<path d="M80.6112 156.817L81.45 157.309C81.5171 157.309 81.5087 157.414 81.45 157.458L80.6867 157.923C80.6464 157.945 80.6019 157.956 80.5566 157.956C80.5114 157.956 80.4669 157.945 80.4266 157.923L79.5878 157.441C79.5291 157.441 79.5375 157.326 79.5878 157.283L80.3511 156.817C80.3919 156.798 80.4363 156.787 80.4811 156.787C80.526 156.787 80.5704 156.798 80.6112 156.817Z" fill="#3A2C6D"/>
<path d="M79.4704 156.132L80.3092 156.615C80.368 156.615 80.3596 156.721 80.3092 156.773L79.5459 157.23C79.5057 157.251 79.4611 157.263 79.4159 157.263C79.3707 157.263 79.3261 157.251 79.2859 157.23L78.4471 156.738C78.3799 156.738 78.3883 156.633 78.4471 156.589L79.2104 156.124C79.2513 156.103 79.2962 156.094 79.3414 156.095C79.3866 156.097 79.4309 156.11 79.4704 156.132Z" fill="#3A2C6D"/>
<path d="M78.3296 155.439L79.1684 155.931C79.2271 155.931 79.2187 156.036 79.1684 156.08L78.4051 156.545C78.3648 156.567 78.3203 156.578 78.2751 156.578C78.2298 156.578 78.1853 156.567 78.145 156.545L77.3062 156.062C77.2391 156.018 77.2475 155.957 77.3062 155.904L78.0695 155.439C78.1103 155.419 78.1547 155.409 78.1996 155.409C78.2445 155.409 78.2888 155.419 78.3296 155.439Z" fill="#3A2C6D"/>
<path d="M77.172 154.754L78.0108 155.237C78.0779 155.237 78.0695 155.342 78.0108 155.395L77.2391 155.86C77.1998 155.88 77.1568 155.89 77.1133 155.89C77.0698 155.89 77.0268 155.88 76.9875 155.86L76.1486 155.369C76.0815 155.369 76.0899 155.263 76.1486 155.22L76.912 154.754C76.9522 154.733 76.9968 154.721 77.042 154.721C77.0872 154.721 77.1318 154.733 77.172 154.754Z" fill="#3A2C6D"/>
<path d="M76.0565 154.07L76.8953 154.552C76.9624 154.552 76.954 154.666 76.8953 154.71L76.1236 155.176C76.0843 155.195 76.0413 155.205 75.9978 155.205C75.9542 155.205 75.9113 155.195 75.8719 155.176L75.0331 154.693C74.966 154.649 74.9744 154.579 75.0331 154.535L75.8048 154.07C75.8436 154.048 75.8868 154.037 75.9307 154.037C75.9745 154.037 76.0177 154.048 76.0565 154.07Z" fill="#3A2C6D"/>
<path d="M74.9155 153.376L75.7543 153.868C75.8214 153.868 75.813 153.973 75.7543 154.017L74.9826 154.482C74.9439 154.504 74.9007 154.515 74.8568 154.515C74.8129 154.515 74.7697 154.504 74.731 154.482L73.8921 153.999C73.825 153.999 73.8334 153.894 73.8921 153.85L74.6639 153.385C74.7026 153.364 74.7452 153.352 74.7887 153.351C74.8323 153.349 74.8756 153.358 74.9155 153.376Z" fill="#3A2C6D"/>
<path d="M73.8167 152.691L74.6555 153.174C74.7227 153.218 74.7143 153.288 74.6555 153.332L73.8838 153.797C73.8451 153.819 73.8019 153.83 73.758 153.83C73.7141 153.83 73.6709 153.819 73.6322 153.797L72.7934 153.315C72.7262 153.271 72.7346 153.2 72.7934 153.157L73.5651 152.691C73.6038 152.67 73.647 152.658 73.6909 152.658C73.7348 152.658 73.778 152.67 73.8167 152.691Z" fill="#3A2C6D"/>
<path d="M72.634 152.006L73.4728 152.489C73.5399 152.489 73.5315 152.595 73.4728 152.639L72.7095 153.104C72.6685 153.123 72.6242 153.133 72.5794 153.133C72.5346 153.133 72.4903 153.123 72.4494 153.104L71.6106 152.612C71.5435 152.612 71.5519 152.507 71.6106 152.463L72.3823 151.998C72.4218 151.978 72.4653 151.968 72.5092 151.969C72.5531 151.971 72.5959 151.984 72.634 152.006Z" fill="#3A2C6D"/>
<path d="M71.4931 151.313L72.3319 151.796C72.3991 151.84 72.3907 151.91 72.3319 151.954L71.5686 152.419C71.5284 152.441 71.4838 152.452 71.4386 152.452C71.3934 152.452 71.3488 152.441 71.3086 152.419L70.4698 151.936C70.4026 151.892 70.411 151.822 70.4698 151.778L71.2415 151.313C71.2808 151.293 71.3238 151.283 71.3673 151.283C71.4108 151.283 71.4538 151.293 71.4931 151.313Z" fill="#3A2C6D"/>
<path d="M70.3608 150.628L71.1996 151.111C71.2667 151.111 71.2583 151.216 71.1996 151.269L70.4363 151.726C70.396 151.747 70.3515 151.758 70.3062 151.758C70.261 151.758 70.2165 151.747 70.1762 151.726L69.3374 151.234C69.2787 151.234 69.2871 151.129 69.3374 151.085L70.1007 150.619C70.1416 150.599 70.1865 150.589 70.2318 150.591C70.277 150.593 70.3212 150.605 70.3608 150.628Z" fill="#3A2C6D"/>
<path d="M69.2199 149.935L70.0587 150.417C70.1259 150.417 70.1175 150.532 70.0587 150.575L69.2954 151.041C69.2552 151.062 69.2106 151.074 69.1654 151.074C69.1202 151.074 69.0756 151.062 69.0354 151.041L68.1966 150.558C68.1378 150.558 68.1462 150.444 68.1966 150.4L68.9599 149.935C69.0007 149.915 69.045 149.905 69.0899 149.905C69.1348 149.905 69.1792 149.915 69.2199 149.935Z" fill="#3A2C6D"/>
<path d="M68.0792 149.241L68.918 149.724C68.9767 149.724 68.9683 149.829 68.918 149.882L68.1547 150.338C68.1144 150.36 68.0699 150.371 68.0247 150.371C67.9794 150.371 67.9349 150.36 67.8946 150.338L67.0558 149.847C66.9887 149.847 66.9971 149.742 67.0558 149.698L67.8191 149.232C67.86 149.212 67.905 149.202 67.9502 149.204C67.9954 149.205 68.0396 149.218 68.0792 149.241Z" fill="#3A2C6D"/>
<path d="M81.7521 157.511L83.1026 158.327C83.1697 158.327 83.1613 158.432 83.1026 158.476L82.3309 158.941C82.2921 158.963 82.2489 158.974 82.2051 158.974C82.1612 158.974 82.118 158.963 82.0792 158.941L80.7203 158.125C80.6616 158.125 80.67 158.02 80.7203 157.976L81.4837 157.511C81.525 157.488 81.5711 157.476 81.6179 157.476C81.6647 157.476 81.7108 157.488 81.7521 157.511Z" fill="#3A2C6D"/>
<path d="M65.9066 149.188L66.7454 149.679C66.7818 149.698 66.822 149.708 66.8628 149.708C66.9036 149.708 66.9439 149.698 66.9803 149.679L67.8191 149.197C67.8862 149.153 67.8862 149.091 67.8191 149.047H67.752C67.7392 149.042 67.7281 149.033 67.7203 149.022C67.7124 149.01 67.7083 148.996 67.7083 148.982C67.7083 148.967 67.7124 148.953 67.7203 148.941C67.7281 148.93 67.7392 148.921 67.752 148.916L68.5908 148.398C68.6579 148.354 68.6579 148.293 68.5908 148.249L68.0791 147.942C68.0407 147.925 67.9993 147.916 67.9575 147.916C67.9157 147.916 67.8743 147.925 67.8359 147.942L66.9971 148.424L66.8293 148.53L66.7119 148.6L66.586 148.67L65.8982 149.091C65.8875 149.105 65.8824 149.123 65.8839 149.141C65.8855 149.159 65.8936 149.176 65.9066 149.188Z" fill="#3A2C6D"/>
<path d="M85.6022 155.834L86.441 156.326C86.5081 156.326 86.4997 156.431 86.441 156.475L85.6693 156.94C85.6306 156.962 85.5874 156.973 85.5435 156.973C85.4996 156.973 85.4564 156.962 85.4177 156.94L84.5788 156.457C84.5117 156.457 84.5201 156.352 84.5788 156.299L85.3422 155.843C85.3817 155.82 85.426 155.807 85.4712 155.806C85.5164 155.804 85.5613 155.814 85.6022 155.834Z" fill="#3A2C6D"/>
<path d="M84.4698 155.149L85.3087 155.632C85.3758 155.676 85.3674 155.746 85.3087 155.79L84.5453 156.256C84.5051 156.277 84.4605 156.288 84.4153 156.288C84.3701 156.288 84.3256 156.277 84.2853 156.256L83.4465 155.773C83.3878 155.773 83.3962 155.659 83.4465 155.615L84.2098 155.149C84.2506 155.13 84.2949 155.12 84.3398 155.12C84.3847 155.12 84.4291 155.13 84.4698 155.149Z" fill="#3A2C6D"/>
<path d="M83.329 154.508L84.1678 154.991C84.2349 155.035 84.2265 155.105 84.1678 155.149L83.3961 155.615C83.3573 155.636 83.3141 155.647 83.2702 155.647C83.2264 155.647 83.1832 155.636 83.1444 155.615L82.3056 155.132C82.2385 155.132 82.2469 155.018 82.3056 154.974L83.0438 154.508C83.0874 154.483 83.1365 154.47 83.1864 154.47C83.2363 154.47 83.2853 154.483 83.329 154.508Z" fill="#3A2C6D"/>
<path d="M73.6657 148.627L74.5045 149.109C74.5716 149.153 74.5632 149.224 74.5045 149.268L73.7328 149.733C73.6934 149.752 73.6505 149.762 73.6069 149.762C73.5634 149.762 73.5204 149.752 73.4811 149.733L72.6423 149.25C72.5752 149.206 72.5836 149.136 72.6423 149.092L73.414 148.627C73.4528 148.605 73.496 148.594 73.5398 148.594C73.5837 148.594 73.6269 148.605 73.6657 148.627Z" fill="#3A2C6D"/>
<path d="M72.5333 147.942L73.3721 148.425C73.4308 148.469 73.4308 148.53 73.3721 148.583L72.6088 149.039C72.57 149.061 72.5268 149.072 72.483 149.072C72.4391 149.072 72.3959 149.061 72.3572 149.039L71.5183 148.548C71.4512 148.548 71.4596 148.442 71.5183 148.398L72.2817 147.933C72.3214 147.914 72.3648 147.905 72.4085 147.907C72.4521 147.908 72.4948 147.92 72.5333 147.942Z" fill="#3A2C6D"/>
<path d="M71.4009 147.257L72.1978 147.74C72.2649 147.74 72.2565 147.845 72.1978 147.898L71.4345 148.355C71.3942 148.376 71.3497 148.387 71.3045 148.387C71.2592 148.387 71.2147 148.376 71.1744 148.355L70.3356 147.863C70.2769 147.863 70.2853 147.758 70.3356 147.714L71.0989 147.248C71.145 147.22 71.1977 147.206 71.2511 147.208C71.3045 147.209 71.3564 147.226 71.4009 147.257Z" fill="#3A2C6D"/>
<path d="M70.2602 146.607L71.099 147.09C71.1661 147.09 71.1577 147.196 71.099 147.239L70.3273 147.705C70.2879 147.724 70.245 147.734 70.2014 147.734C70.1579 147.734 70.1149 147.724 70.0756 147.705L69.2368 147.213C69.1697 147.213 69.1781 147.108 69.2368 147.064L70.0085 146.599C70.0479 146.578 70.0915 146.569 70.1354 146.57C70.1792 146.572 70.2221 146.585 70.2602 146.607Z" fill="#3A2C6D"/>
<path d="M81.903 153.631L83.0019 154.289C83.069 154.333 83.0606 154.403 83.0019 154.447L82.2302 154.912C82.1908 154.932 82.1479 154.942 82.1043 154.942C82.0608 154.942 82.0178 154.932 81.9785 154.912L80.8797 154.254C80.8126 154.21 80.8209 154.14 80.8797 154.096L81.6514 153.631C81.6901 153.609 81.7333 153.598 81.7772 153.598C81.8211 153.598 81.8643 153.609 81.903 153.631Z" fill="#3A2C6D"/>
<path d="M74.7982 149.311L75.8971 149.97C75.9642 149.97 75.9558 150.084 75.8971 150.128L75.1253 150.593C75.0866 150.615 75.0434 150.626 74.9995 150.626C74.9556 150.626 74.9124 150.615 74.8737 150.593L73.7748 149.935C73.7077 149.891 73.7161 149.821 73.7748 149.777L74.5466 149.311C74.5853 149.29 74.6285 149.279 74.6724 149.279C74.7162 149.279 74.7594 149.29 74.7982 149.311Z" fill="#3A2C6D"/>
<path d="M76.2325 150.172L81.5758 153.402C81.6429 153.402 81.6345 153.508 81.5758 153.56L80.8125 154.017C80.7737 154.038 80.7305 154.049 80.6866 154.049C80.6428 154.049 80.5996 154.038 80.5608 154.017L75.2091 150.786C75.1504 150.742 75.1588 150.672 75.2091 150.628L75.9724 150.163C76.0138 150.144 76.0585 150.136 76.1034 150.137C76.1483 150.139 76.1923 150.15 76.2325 150.172Z" fill="#3A2C6D"/>
<path d="M81.3662 155.966L82.205 156.449C82.2721 156.449 82.2637 156.563 82.205 156.607L81.4333 157.072C81.3939 157.091 81.351 157.102 81.3074 157.102C81.2639 157.102 81.2209 157.091 81.1816 157.072L80.3428 156.589C80.2757 156.589 80.2841 156.475 80.3428 156.431L81.1145 155.966C81.1533 155.944 81.1965 155.933 81.2403 155.933C81.2842 155.933 81.3274 155.944 81.3662 155.966Z" fill="#3A2C6D"/>
<path d="M80.2672 155.281L81.106 155.764C81.1648 155.764 81.1564 155.869 81.106 155.922L80.3427 156.378C80.3025 156.4 80.2579 156.411 80.2127 156.411C80.1675 156.411 80.1229 156.4 80.0827 156.378L79.2439 155.887C79.1767 155.887 79.1851 155.781 79.2439 155.738L80.0072 155.272C80.0481 155.252 80.093 155.242 80.1382 155.244C80.1834 155.245 80.2276 155.258 80.2672 155.281Z" fill="#3A2C6D"/>
<path d="M79.1264 154.587L79.9652 155.079C80.0323 155.079 80.0239 155.184 79.9652 155.228L79.1935 155.694C79.1547 155.715 79.1115 155.726 79.0677 155.726C79.0238 155.726 78.9806 155.715 78.9418 155.694L78.103 155.211C78.0359 155.211 78.0443 155.105 78.103 155.061L78.8747 154.596C78.9128 154.573 78.9556 154.561 78.9995 154.559C79.0434 154.557 79.0869 154.567 79.1264 154.587Z" fill="#3A2C6D"/>
<path d="M78.0108 153.903L78.8496 154.394C78.9167 154.394 78.9083 154.5 78.8496 154.544L78.0863 155.009C78.046 155.03 78.0014 155.042 77.9562 155.042C77.911 155.042 77.8665 155.03 77.8262 155.009L76.9874 154.526C76.9287 154.482 76.9371 154.412 76.9874 154.368L77.7507 153.903C77.7915 153.883 77.8359 153.873 77.8807 153.873C77.9256 153.873 77.97 153.883 78.0108 153.903Z" fill="#3A2C6D"/>
<path d="M76.8533 153.218L77.6921 153.701C77.7592 153.701 77.7508 153.815 77.6921 153.859L76.9204 154.324C76.8811 154.344 76.8381 154.354 76.7946 154.354C76.751 154.354 76.7081 154.344 76.6687 154.324L75.8299 153.841C75.7628 153.797 75.7712 153.727 75.8299 153.683L76.6016 153.218C76.6404 153.196 76.6836 153.185 76.7275 153.185C76.7713 153.185 76.8145 153.196 76.8533 153.218Z" fill="#3A2C6D"/>
<path d="M75.7208 152.533L76.5596 153.016C76.6267 153.016 76.6183 153.121 76.5596 153.174L75.7963 153.63C75.756 153.652 75.7115 153.663 75.6663 153.663C75.6211 153.663 75.5765 153.652 75.5362 153.63L74.6974 153.139C74.6387 153.139 74.6471 153.034 74.6974 152.99L75.4608 152.524C75.5017 152.504 75.5466 152.494 75.5918 152.496C75.637 152.497 75.6812 152.51 75.7208 152.533Z" fill="#3A2C6D"/>
<path d="M74.58 151.875L75.4189 152.366C75.486 152.366 75.4776 152.472 75.4189 152.516L74.6471 152.981C74.6084 153.002 74.5652 153.014 74.5213 153.014C74.4774 153.014 74.4343 153.002 74.3955 152.981L73.5567 152.498C73.4896 152.498 73.498 152.393 73.5567 152.349L74.3284 151.884C74.3671 151.863 74.4097 151.851 74.4533 151.85C74.4968 151.848 74.5401 151.857 74.58 151.875Z" fill="#3A2C6D"/>
<path d="M73.4477 151.155L74.2865 151.647C74.3536 151.647 74.3452 151.752 74.2865 151.796L73.5232 152.261C73.4829 152.283 73.4384 152.294 73.3932 152.294C73.348 152.294 73.3034 152.283 73.2631 152.261L72.4243 151.778C72.3656 151.734 72.374 151.664 72.4243 151.62L73.1877 151.155C73.2284 151.135 73.2728 151.125 73.3177 151.125C73.3626 151.125 73.4069 151.135 73.4477 151.155Z" fill="#3A2C6D"/>
<path d="M72.3068 150.47L73.1456 150.953C73.2127 150.997 73.2043 151.067 73.1456 151.111L72.3739 151.576C72.3346 151.596 72.2916 151.606 72.2481 151.606C72.2046 151.606 72.1616 151.596 72.1223 151.576L71.2834 151.093C71.2163 151.05 71.2247 150.979 71.2834 150.935L72.0552 150.47C72.0939 150.449 72.1371 150.437 72.181 150.437C72.2248 150.437 72.268 150.449 72.3068 150.47Z" fill="#3A2C6D"/>
<path d="M71.166 149.785L72.0048 150.268C72.0719 150.312 72.0635 150.374 72.0048 150.426L71.2415 150.883C71.2013 150.904 71.1567 150.916 71.1115 150.916C71.0663 150.916 71.0217 150.904 70.9815 150.883L70.1426 150.391C70.0839 150.391 70.0839 150.286 70.1426 150.242L70.906 149.777C70.9465 149.755 70.9916 149.744 71.0371 149.746C71.0826 149.747 71.1269 149.761 71.166 149.785Z" fill="#3A2C6D"/>
<path d="M70.0336 149.092L70.8724 149.584C70.9395 149.584 70.9311 149.689 70.8724 149.733L70.1007 150.198C70.0619 150.22 70.0187 150.231 69.9748 150.231C69.931 150.231 69.8878 150.22 69.849 150.198L69.0102 149.715C68.9431 149.715 68.9515 149.61 69.0102 149.566L69.7735 149.101C69.8138 149.08 69.8578 149.069 69.9027 149.067C69.9475 149.066 69.9921 149.074 70.0336 149.092Z" fill="#3A2C6D"/>
<path d="M68.8929 148.407L69.7317 148.899C69.7988 148.899 69.7904 149.004 69.7317 149.048L68.9684 149.513C68.9281 149.535 68.8835 149.546 68.8383 149.546C68.7931 149.546 68.7486 149.535 68.7083 149.513L67.8695 149.03C67.8024 148.986 67.8108 148.925 67.8695 148.872L68.6412 148.407C68.6805 148.388 68.7235 148.377 68.767 148.377C68.8106 148.377 68.8535 148.388 68.8929 148.407Z" fill="#3A2C6D"/>
<path d="M82.5405 156.65L84.2181 157.66C84.2852 157.66 84.2768 157.765 84.2181 157.809L83.4464 158.274C83.4076 158.295 83.3644 158.307 83.3206 158.307C83.2767 158.307 83.2335 158.295 83.1947 158.274L81.5171 157.273C81.45 157.273 81.4584 157.159 81.5171 157.116L82.2804 156.65C82.3212 156.631 82.3655 156.621 82.4104 156.621C82.4553 156.621 82.4997 156.631 82.5405 156.65Z" fill="#3A2C6D"/>
<path d="M83.0439 155.641L83.8827 156.124C83.9498 156.124 83.9414 156.238 83.8827 156.282L83.111 156.747C83.0716 156.767 83.0287 156.777 82.9851 156.777C82.9416 156.777 82.8986 156.767 82.8593 156.747L82.0205 156.264C81.9534 156.264 81.9618 156.15 82.0205 156.106L82.7838 155.641C82.8241 155.619 82.8686 155.608 82.9138 155.608C82.9591 155.608 83.0036 155.619 83.0439 155.641Z" fill="#3A2C6D"/>
<path d="M81.9281 154.956L82.7669 155.439C82.834 155.439 82.8256 155.544 82.7669 155.597L82.0036 156.054C81.9634 156.075 81.9188 156.086 81.8736 156.086C81.8284 156.086 81.7838 156.075 81.7436 156.054L80.9047 155.562C80.846 155.562 80.8544 155.457 80.9047 155.413L81.6681 154.947C81.7086 154.926 81.7537 154.915 81.7992 154.917C81.8447 154.918 81.889 154.932 81.9281 154.956Z" fill="#3A2C6D"/>
<path d="M80.7957 154.263L81.6345 154.754C81.7016 154.754 81.6932 154.86 81.6345 154.903L80.8628 155.369C80.824 155.39 80.7808 155.402 80.7369 155.402C80.6931 155.402 80.6499 155.39 80.6111 155.369L79.7723 154.886C79.7052 154.886 79.7136 154.781 79.7723 154.728L80.5356 154.271C80.5752 154.248 80.6194 154.236 80.6646 154.234C80.7098 154.233 80.7548 154.242 80.7957 154.263Z" fill="#3A2C6D"/>
<path d="M79.6885 153.578L80.5273 154.061C80.5944 154.061 80.586 154.175 80.5273 154.219L79.764 154.684C79.7237 154.706 79.6792 154.717 79.6339 154.717C79.5887 154.717 79.5442 154.706 79.5039 154.684L78.6651 154.201C78.6064 154.201 78.6064 154.087 78.6651 154.043L79.4284 153.578C79.4689 153.557 79.5134 153.546 79.5585 153.546C79.6035 153.546 79.648 153.557 79.6885 153.578Z" fill="#3A2C6D"/>
<path d="M78.5226 152.893L79.3614 153.376C79.4285 153.376 79.4201 153.49 79.3614 153.534L78.5897 153.999C78.5503 154.019 78.5074 154.029 78.4638 154.029C78.4203 154.029 78.3773 154.019 78.338 153.999L77.4992 153.516C77.4321 153.516 77.4405 153.402 77.4992 153.358L78.2625 152.893C78.3028 152.872 78.3473 152.86 78.3925 152.86C78.4377 152.86 78.4823 152.872 78.5226 152.893Z" fill="#3A2C6D"/>
<path d="M77.3818 152.208L78.2206 152.691C78.2877 152.691 78.2793 152.796 78.2206 152.849L77.4572 153.306C77.417 153.327 77.3724 153.338 77.3272 153.338C77.282 153.338 77.2375 153.327 77.1972 153.306L76.3584 152.814C76.2997 152.814 76.2997 152.709 76.3584 152.665L77.1217 152.2C77.1622 152.178 77.2073 152.167 77.2528 152.169C77.2983 152.17 77.3427 152.184 77.3818 152.208Z" fill="#3A2C6D"/>
<path d="M76.2493 151.515L77.0881 152.007C77.1552 152.007 77.1469 152.112 77.0881 152.156L76.3164 152.621C76.2777 152.643 76.2345 152.654 76.1906 152.654C76.1467 152.654 76.1035 152.643 76.0648 152.621L75.2259 152.138C75.1588 152.138 75.1672 152.033 75.2259 151.989L75.9893 151.524C76.0296 151.503 76.0736 151.492 76.1184 151.49C76.1632 151.489 76.2078 151.497 76.2493 151.515Z" fill="#3A2C6D"/>
<path d="M75.1085 150.83L75.9473 151.322C76.0144 151.322 76.0061 151.427 75.9473 151.471L75.184 151.936C75.1438 151.958 75.0992 151.969 75.054 151.969C75.0088 151.969 74.9642 151.958 74.924 151.936L74.0851 151.453C74.0264 151.409 74.0264 151.339 74.0851 151.295L74.8485 150.83C74.8889 150.809 74.9334 150.798 74.9785 150.798C75.0236 150.798 75.0681 150.809 75.1085 150.83Z" fill="#3A2C6D"/>
<path d="M73.9761 150.119L74.8149 150.602C74.882 150.602 74.8736 150.716 74.8149 150.76L74.0432 151.225C74.0044 151.247 73.9612 151.258 73.9174 151.258C73.8735 151.258 73.8303 151.247 73.7915 151.225L72.9527 150.742C72.8856 150.698 72.894 150.628 72.9527 150.584L73.716 150.119C73.7563 150.097 73.8008 150.086 73.8461 150.086C73.8913 150.086 73.9358 150.097 73.9761 150.119Z" fill="#3A2C6D"/>
<path d="M72.8353 149.461L73.6741 149.943C73.7412 149.943 73.7328 150.049 73.6741 150.101L72.9108 150.567C72.87 150.586 72.8256 150.597 72.7807 150.597C72.7359 150.597 72.6915 150.586 72.6507 150.567L71.8119 150.075C71.7532 150.075 71.7532 149.97 71.8119 149.926L72.5752 149.461C72.615 149.438 72.6598 149.425 72.7053 149.425C72.7507 149.425 72.7955 149.438 72.8353 149.461Z" fill="#3A2C6D"/>
<path d="M71.7028 148.776L72.5417 149.259C72.6088 149.259 72.6004 149.364 72.5417 149.408L71.7699 149.873C71.7305 149.892 71.6875 149.902 71.6441 149.902C71.6007 149.902 71.5578 149.892 71.5183 149.873L70.6795 149.382C70.6124 149.382 70.6208 149.276 70.6795 149.232L71.4428 148.767C71.4837 148.747 71.5286 148.737 71.5738 148.739C71.619 148.74 71.6633 148.753 71.7028 148.776Z" fill="#3A2C6D"/>
<path d="M69.1612 147.231L71.3673 148.573C71.4344 148.573 71.4261 148.678 71.3673 148.722L70.604 149.187C70.5638 149.209 70.5192 149.22 70.474 149.22C70.4288 149.22 70.3842 149.209 70.344 149.187L68.1379 147.854C68.0708 147.854 68.0791 147.748 68.1379 147.704L68.9012 147.239C68.9415 147.219 68.9855 147.207 69.0303 147.206C69.0751 147.204 69.1197 147.213 69.1612 147.231Z" fill="#3A2C6D"/>
<path d="M84.2097 156.326L85.3002 156.993C85.3673 156.993 85.3589 157.098 85.3002 157.142L84.5369 157.607C84.4966 157.629 84.4521 157.64 84.4069 157.64C84.3616 157.64 84.3171 157.629 84.2768 157.607L83.178 156.949C83.1193 156.949 83.1276 156.835 83.178 156.791L83.9413 156.326C83.9832 156.305 84.0291 156.294 84.0755 156.294C84.122 156.294 84.1678 156.305 84.2097 156.326Z" fill="#3A2C6D"/>
<path d="M64.707 149.926L80.8544 159.679C80.9131 159.679 80.9047 159.785 80.8544 159.837L80.4769 160.065C80.4367 160.087 80.3921 160.098 80.3469 160.098C80.3017 160.098 80.2571 160.087 80.2169 160.065L64.0527 150.321C63.9856 150.321 63.994 150.216 64.0527 150.163L64.4386 149.935C64.4787 149.909 64.5246 149.894 64.5717 149.893C64.6188 149.891 64.6655 149.903 64.707 149.926Z" fill="#3A2C6D"/>
<path d="M83.8071 150.567L83.6981 150.628L80.9216 152.305L75.9809 149.32L75.8719 149.259L78.7574 147.52L83.8071 150.567Z" fill="#BFBFBF"/>
<path d="M83.698 150.628L80.9215 152.305L75.9809 149.32L78.7574 147.643L83.698 150.628Z" fill="#E5E5E5"/>
<path d="M91.734 154.508V154.772C91.7284 154.951 91.6792 155.125 91.5911 155.279C91.5031 155.433 91.379 155.56 91.2307 155.65L81.4249 161.575C81.2718 161.668 81.0983 161.717 80.9216 161.717C80.7449 161.717 80.5713 161.668 80.4183 161.575L62.6855 150.865C62.5329 150.77 62.4063 150.635 62.3181 150.474C62.2299 150.312 62.1831 150.129 62.1822 149.943V149.68L80.9216 161.005L91.734 154.508Z" fill="#E5E5E5"/>
<path d="M80.9216 161.014V161.725C80.7447 161.727 80.5705 161.678 80.4183 161.584L62.6855 150.874C62.5329 150.779 62.4063 150.644 62.3181 150.482C62.2299 150.321 62.1831 150.138 62.1822 149.952V149.689L80.9216 161.014Z" fill="#E5E5E5"/>
<path d="M80.6363 161.172C80.4684 161.241 80.2877 161.27 80.1076 161.257C79.9275 161.243 79.7527 161.187 79.5962 161.093L61.9808 150.426C61.8279 150.334 61.6966 150.208 61.5965 150.056C61.4963 149.904 61.4299 149.731 61.402 149.548L59.4644 137.486C59.4602 137.419 59.4602 137.351 59.4644 137.284C59.4702 136.954 59.5997 136.638 59.8251 136.406L78.1115 147.485C78.2278 147.55 78.3279 147.643 78.4037 147.756C78.4795 147.868 78.5288 147.998 78.5476 148.135L80.6363 161.172Z" fill="#F4F4F4"/>
<path d="M80.9216 161.022L80.7957 161.093C80.7451 161.124 80.6917 161.151 80.6364 161.172L78.5477 148.126C78.5289 147.99 78.4796 147.86 78.4038 147.747C78.328 147.634 78.2279 147.541 78.1115 147.477L59.7748 136.389C59.8446 136.31 59.9269 136.245 60.018 136.196L78.3967 147.301C78.5091 147.37 78.6057 147.464 78.6796 147.576C78.7536 147.688 78.803 147.816 78.8245 147.951L80.9216 161.022Z" fill="#E5E5E5"/>
<path d="M323.367 111.738C324.822 114.447 326.585 116.961 328.618 119.226C329.189 119.911 333.559 118.164 332.645 117.672C331.73 117.181 328.87 113.011 327.435 110.228C326.236 106.908 325.216 103.52 324.382 100.079C323.476 96.6732 322.704 91.678 322.05 89.3252C321.88 88.4552 321.473 87.6554 320.877 87.0228C320.282 86.3902 319.524 85.9519 318.695 85.761C317.126 85.3835 316.111 85.8312 316.397 87.8241C316.908 91.3005 319.517 104.881 323.367 111.738Z" fill="#FFCEA9"/>
<path d="M320.867 164.903C322.218 166.053 324.223 164.999 324.315 165.105C325.916 166.662 327.596 168.127 329.348 169.494C330.187 170.188 331.512 171.118 331.269 172.452C330.841 174.849 327.192 174.112 325.816 173.383C324.441 172.654 323.3 171.443 322.008 170.591C321.077 169.986 320.163 169.67 320.012 168.441C319.894 167.677 320.624 164.876 320.867 164.903Z" fill="#38226D"/>
<path d="M320.003 167.914C320.18 169.09 321.086 169.415 322.008 170.012C323.334 170.89 324.525 172.119 325.875 172.848C327.226 173.576 330.321 174.191 331.219 172.488C330.732 174.788 327.142 174.068 325.783 173.365C324.424 172.663 323.267 171.425 321.975 170.574C321.044 169.968 320.129 169.652 319.978 168.423C319.971 168.253 319.979 168.082 320.003 167.914Z" fill="#9C73FF"/>
<path d="M334.599 156.624C335.95 157.774 338.323 156.519 338.424 156.624C339.833 158.118 341.323 159.525 342.887 160.838C343.725 161.532 345.051 162.462 344.808 163.797C344.388 166.193 340.731 165.456 339.355 164.727C337.98 163.999 336.839 162.787 335.547 161.936C334.616 161.33 333.702 161.014 333.551 159.785C333.467 159.047 334.356 156.598 334.599 156.624Z" fill="#38226D"/>
<path d="M333.592 159.46C333.777 160.636 334.674 160.961 335.597 161.558C336.922 162.436 338.114 163.665 339.472 164.394C340.831 165.122 343.918 165.746 344.816 164.034C344.329 166.342 340.739 165.614 339.372 164.912C338.005 164.209 336.855 162.971 335.572 162.12C334.641 161.514 333.727 161.242 333.576 159.978C333.569 159.805 333.575 159.632 333.592 159.46Z" fill="#9C73FF"/>
<path d="M302.757 119.481C301.264 129.287 305.425 132.956 310.843 135.037C314.727 136.538 320.297 138.847 320.297 138.847C320.297 138.847 320.222 140.998 320.171 145.87C320.171 150.128 320.675 165.658 320.675 165.658C320.675 165.658 322.914 166.878 324.818 165.658C324.818 165.658 326.999 153.754 327.461 148.39C328.09 141.103 329.138 136.345 328.803 134.774C328.492 133.395 320.893 129.506 318.477 127.391L334.414 132.974C334.097 134.781 333.943 136.615 333.953 138.452C334.096 144.228 334.406 156.738 334.406 156.738C334.406 156.738 336.587 158.389 338.449 156.738C338.449 156.738 342.459 131.991 341.972 128.707C341.511 125.6 327.477 119.244 325.003 117.058C324.571 116.69 324.07 116.421 323.532 116.27C322.995 116.118 322.432 116.088 321.882 116.18L302.757 119.481Z" fill="#8C50FF"/>
<path d="M340.957 123.563L330.254 117.102C330.161 117.045 330.055 117.016 329.948 117.016C329.84 117.016 329.735 117.045 329.642 117.102L310.86 128.444L321.874 135.098L340.957 123.563Z" fill="#F4F4F4"/>
<path d="M321.379 132.719L320.54 133.211C320.473 133.211 320.482 133.325 320.54 133.369L321.312 133.843C321.352 133.864 321.397 133.876 321.442 133.876C321.487 133.876 321.532 133.864 321.572 133.843L322.411 133.351C322.47 133.351 322.461 133.237 322.411 133.193L321.631 132.719C321.592 132.698 321.549 132.686 321.505 132.686C321.461 132.686 321.418 132.698 321.379 132.719Z" fill="#3A2C6D"/>
<path d="M322.528 132.026L321.689 132.517C321.622 132.517 321.631 132.623 321.689 132.675L322.47 133.141C322.51 133.162 322.554 133.173 322.6 133.173C322.645 133.173 322.689 133.162 322.73 133.141L323.568 132.649C323.635 132.649 323.627 132.544 323.568 132.491L322.788 132.026C322.748 132.004 322.703 131.993 322.658 131.993C322.613 131.993 322.568 132.004 322.528 132.026Z" fill="#3A2C6D"/>
<path d="M323.694 131.315L322.855 131.806C322.788 131.85 322.797 131.92 322.855 131.964L323.636 132.438C323.676 132.46 323.72 132.471 323.766 132.471C323.811 132.471 323.855 132.46 323.896 132.438L324.734 131.947C324.801 131.903 324.793 131.832 324.734 131.789L323.954 131.315C323.914 131.295 323.869 131.285 323.824 131.285C323.779 131.285 323.735 131.295 323.694 131.315Z" fill="#3A2C6D"/>
<path d="M324.843 130.63L324.005 131.121C323.937 131.121 323.946 131.227 324.005 131.279L324.776 131.745C324.817 131.766 324.861 131.778 324.906 131.778C324.952 131.778 324.996 131.766 325.036 131.745L325.875 131.253C325.942 131.253 325.934 131.148 325.875 131.095L325.103 130.63C325.063 130.608 325.019 130.597 324.973 130.597C324.928 130.597 324.884 130.608 324.843 130.63Z" fill="#3A2C6D"/>
<path d="M325.993 129.928L325.154 130.419C325.087 130.463 325.095 130.533 325.154 130.577L325.934 131.051C325.974 131.073 326.019 131.084 326.064 131.084C326.109 131.084 326.154 131.073 326.194 131.051L327.033 130.56C327.1 130.56 327.092 130.446 327.033 130.402L326.253 129.928C326.212 129.906 326.168 129.895 326.123 129.895C326.077 129.895 326.033 129.906 325.993 129.928Z" fill="#3A2C6D"/>
<path d="M327.142 129.234L326.303 129.726C326.236 129.726 326.244 129.831 326.303 129.884L327.083 130.349C327.123 130.37 327.168 130.382 327.213 130.382C327.258 130.382 327.303 130.37 327.343 130.349L328.182 129.857C328.249 129.857 328.241 129.752 328.182 129.699L327.402 129.234C327.362 129.212 327.317 129.201 327.272 129.201C327.227 129.201 327.182 129.212 327.142 129.234Z" fill="#3A2C6D"/>
<path d="M328.308 128.532L327.469 129.023C327.402 129.067 327.41 129.138 327.469 129.181L328.241 129.656C328.281 129.677 328.326 129.688 328.371 129.688C328.416 129.688 328.461 129.677 328.501 129.656L329.34 129.164C329.407 129.164 329.398 129.05 329.34 129.006L328.568 128.532C328.527 128.512 328.483 128.502 328.438 128.502C328.393 128.502 328.349 128.512 328.308 128.532Z" fill="#3A2C6D"/>
<path d="M329.457 127.838L328.618 128.33C328.551 128.33 328.559 128.435 328.618 128.488L329.398 128.953C329.438 128.975 329.483 128.986 329.528 128.986C329.573 128.986 329.618 128.975 329.658 128.953L330.497 128.461C330.564 128.461 330.556 128.356 330.497 128.303L329.717 127.838C329.677 127.817 329.632 127.805 329.587 127.805C329.542 127.805 329.497 127.817 329.457 127.838Z" fill="#3A2C6D"/>
<path d="M330.615 127.136L329.776 127.627C329.709 127.671 329.717 127.742 329.776 127.785L330.556 128.26C330.596 128.281 330.641 128.292 330.686 128.292C330.731 128.292 330.776 128.281 330.816 128.26L331.655 127.768C331.722 127.724 331.713 127.654 331.655 127.61L330.875 127.136C330.834 127.116 330.789 127.106 330.745 127.106C330.7 127.106 330.655 127.116 330.615 127.136Z" fill="#3A2C6D"/>
<path d="M331.772 126.416L330.933 126.908C330.866 126.908 330.875 127.013 330.933 127.066L331.705 127.531C331.745 127.553 331.79 127.564 331.835 127.564C331.88 127.564 331.925 127.553 331.965 127.531L332.804 127.031C332.871 127.031 332.863 126.925 332.804 126.873L332.032 126.407C331.991 126.387 331.946 126.377 331.901 126.379C331.856 126.38 331.812 126.393 331.772 126.416Z" fill="#3A2C6D"/>
<path d="M332.921 125.74L332.083 126.232C332.015 126.275 332.024 126.346 332.083 126.39L332.863 126.864C332.903 126.885 332.947 126.896 332.993 126.896C333.038 126.896 333.082 126.885 333.123 126.864L333.962 126.372C334.029 126.328 334.02 126.258 333.962 126.214L333.181 125.74C333.141 125.72 333.096 125.71 333.051 125.71C333.007 125.71 332.962 125.72 332.921 125.74Z" fill="#3A2C6D"/>
<path d="M334.079 125.046L333.24 125.538C333.173 125.538 333.181 125.643 333.24 125.696L334.02 126.161C334.06 126.183 334.105 126.194 334.15 126.194C334.195 126.194 334.24 126.183 334.28 126.161L335.119 125.661C335.186 125.661 335.178 125.556 335.119 125.512L334.339 125.038C334.298 125.017 334.253 125.008 334.208 125.009C334.163 125.011 334.118 125.023 334.079 125.046Z" fill="#3A2C6D"/>
<path d="M335.236 124.344L334.398 124.836C334.339 124.88 334.347 124.95 334.398 124.994L335.178 125.468C335.216 125.489 335.26 125.501 335.304 125.501C335.347 125.501 335.391 125.489 335.429 125.468L336.268 124.976C336.335 124.932 336.327 124.862 336.268 124.818L335.488 124.344C335.449 124.326 335.406 124.316 335.362 124.316C335.319 124.316 335.276 124.326 335.236 124.344Z" fill="#3A2C6D"/>
<path d="M336.948 123.308L335.572 124.142C335.505 124.142 335.513 124.247 335.572 124.3L336.352 124.765C336.392 124.786 336.437 124.798 336.482 124.798C336.527 124.798 336.572 124.786 336.612 124.765L337.988 123.931C338.055 123.931 338.047 123.826 337.988 123.773L337.216 123.308C337.175 123.285 337.129 123.273 337.082 123.273C337.035 123.273 336.989 123.285 336.948 123.308Z" fill="#3A2C6D"/>
<path d="M321.966 131.007L321.127 131.499C321.06 131.543 321.069 131.613 321.127 131.657L321.907 132.131C321.948 132.153 321.992 132.164 322.038 132.164C322.083 132.164 322.127 132.153 322.168 132.131L323.006 131.639C323.073 131.595 323.065 131.525 323.006 131.481L322.226 131.007C322.186 130.986 322.141 130.974 322.096 130.974C322.051 130.974 322.006 130.986 321.966 131.007Z" fill="#3A2C6D"/>
<path d="M323.124 130.305L322.285 130.805C322.218 130.805 322.226 130.911 322.285 130.955L323.065 131.429C323.105 131.45 323.15 131.461 323.195 131.461C323.24 131.461 323.285 131.45 323.325 131.429L324.164 130.937C324.231 130.937 324.223 130.832 324.164 130.779L323.384 130.314C323.344 130.291 323.3 130.278 323.255 130.277C323.21 130.275 323.165 130.285 323.124 130.305Z" fill="#3A2C6D"/>
<path d="M324.281 129.611L323.443 130.103C323.376 130.147 323.384 130.217 323.443 130.261L324.223 130.726C324.263 130.748 324.308 130.759 324.353 130.759C324.398 130.759 324.443 130.748 324.483 130.726L325.322 130.235C325.389 130.191 325.38 130.121 325.322 130.077L324.542 129.603C324.501 129.582 324.456 129.573 324.41 129.574C324.365 129.576 324.321 129.589 324.281 129.611Z" fill="#3A2C6D"/>
<path d="M325.464 128.909L324.625 129.401C324.558 129.401 324.567 129.515 324.625 129.559L325.405 130.033C325.446 130.055 325.49 130.066 325.535 130.066C325.581 130.066 325.625 130.055 325.665 130.033L326.504 129.541C326.571 129.541 326.563 129.427 326.504 129.383L325.724 128.909C325.683 128.89 325.639 128.879 325.594 128.879C325.549 128.879 325.505 128.89 325.464 128.909Z" fill="#3A2C6D"/>
<path d="M326.588 128.216L325.749 128.707C325.682 128.707 325.691 128.822 325.749 128.865L326.529 129.339C326.57 129.361 326.614 129.372 326.659 129.372C326.705 129.372 326.749 129.361 326.79 129.339L327.628 128.848C327.695 128.804 327.687 128.734 327.628 128.69L326.848 128.216C326.807 128.196 326.763 128.186 326.718 128.186C326.673 128.186 326.629 128.196 326.588 128.216Z" fill="#3A2C6D"/>
<path d="M327.746 127.522L326.907 128.014C326.84 128.014 326.848 128.119 326.907 128.172L327.687 128.637C327.727 128.659 327.772 128.67 327.817 128.67C327.862 128.67 327.907 128.659 327.947 128.637L328.786 128.145C328.853 128.145 328.845 128.04 328.786 127.987L328.006 127.522C327.966 127.501 327.921 127.489 327.876 127.489C327.831 127.489 327.786 127.501 327.746 127.522Z" fill="#3A2C6D"/>
<path d="M328.903 126.82L328.064 127.311C328.006 127.311 328.014 127.426 328.064 127.469L328.845 127.944C328.884 127.963 328.927 127.973 328.97 127.973C329.014 127.973 329.057 127.963 329.096 127.944L329.935 127.452C330.002 127.408 329.994 127.338 329.935 127.294L329.155 126.82C329.116 126.8 329.073 126.789 329.029 126.789C328.985 126.789 328.942 126.8 328.903 126.82Z" fill="#3A2C6D"/>
<path d="M330.061 126.118L329.222 126.609C329.155 126.653 329.163 126.723 329.222 126.767L329.994 127.241C330.034 127.263 330.079 127.274 330.124 127.274C330.169 127.274 330.214 127.263 330.254 127.241L331.093 126.75C331.16 126.75 331.151 126.636 331.093 126.592L330.321 126.126C330.281 126.103 330.237 126.091 330.192 126.089C330.147 126.088 330.102 126.097 330.061 126.118Z" fill="#3A2C6D"/>
<path d="M331.219 125.424L330.38 125.916C330.313 125.916 330.321 126.021 330.38 126.074L331.151 126.539C331.192 126.56 331.236 126.572 331.281 126.572C331.327 126.572 331.371 126.56 331.411 126.539L332.25 126.039C332.317 126.039 332.309 125.933 332.25 125.889L331.479 125.415C331.438 125.395 331.393 125.385 331.348 125.387C331.302 125.388 331.258 125.401 331.219 125.424Z" fill="#3A2C6D"/>
<path d="M332.368 124.722L331.529 125.213C331.462 125.257 331.47 125.328 331.529 125.371L332.309 125.845C332.349 125.867 332.394 125.878 332.439 125.878C332.484 125.878 332.529 125.867 332.569 125.845L333.408 125.354C333.475 125.31 333.466 125.24 333.408 125.196L332.628 124.722C332.587 124.7 332.543 124.689 332.498 124.689C332.452 124.689 332.408 124.7 332.368 124.722Z" fill="#3A2C6D"/>
<path d="M333.525 124.019L332.687 124.52C332.619 124.52 332.628 124.625 332.687 124.669L333.467 125.143C333.507 125.165 333.551 125.176 333.597 125.176C333.642 125.176 333.686 125.165 333.727 125.143L334.566 124.651C334.633 124.651 334.624 124.546 334.566 124.493L333.785 124.028C333.746 124.005 333.702 123.992 333.656 123.991C333.611 123.989 333.566 123.999 333.525 124.019Z" fill="#3A2C6D"/>
<path d="M334.691 123.326L333.852 123.817C333.785 123.861 333.794 123.932 333.852 123.975L334.633 124.441C334.673 124.462 334.717 124.474 334.763 124.474C334.808 124.474 334.852 124.462 334.893 124.441L335.731 123.949C335.798 123.905 335.79 123.835 335.731 123.791L334.951 123.317C334.91 123.297 334.865 123.287 334.82 123.289C334.775 123.29 334.731 123.303 334.691 123.326Z" fill="#3A2C6D"/>
<path d="M320.809 131.683L319.441 132.508C319.374 132.552 319.383 132.622 319.441 132.666L320.221 133.14C320.262 133.16 320.307 133.17 320.351 133.17C320.396 133.17 320.441 133.16 320.481 133.14L321.849 132.306C321.916 132.306 321.907 132.201 321.849 132.157L321.069 131.683C321.028 131.662 320.984 131.651 320.939 131.651C320.893 131.651 320.849 131.662 320.809 131.683Z" fill="#3A2C6D"/>
<path d="M336.889 123.264L336.05 123.755C336.013 123.777 335.971 123.788 335.929 123.788C335.886 123.788 335.844 123.777 335.807 123.755L334.968 123.264C334.901 123.264 334.901 123.158 334.968 123.115H335.035C335.094 123.115 335.094 123.009 335.035 122.974L334.196 122.448C334.179 122.448 334.161 122.44 334.149 122.427C334.136 122.414 334.129 122.396 334.129 122.377C334.129 122.359 334.136 122.341 334.149 122.328C334.161 122.315 334.179 122.307 334.196 122.307L334.708 121.991C334.745 121.97 334.787 121.959 334.83 121.959C334.872 121.959 334.914 121.97 334.951 121.991L335.79 122.483L335.958 122.588L336.084 122.658L336.201 122.728L336.906 123.158C336.912 123.166 336.917 123.175 336.919 123.185C336.922 123.195 336.922 123.205 336.921 123.215C336.919 123.225 336.915 123.235 336.91 123.243C336.904 123.251 336.897 123.259 336.889 123.264Z" fill="#3A2C6D"/>
<path d="M316.9 130.015L316.061 130.507C315.994 130.507 316.002 130.612 316.061 130.665L316.841 131.13C316.881 131.152 316.926 131.163 316.971 131.163C317.016 131.163 317.061 131.152 317.101 131.13L317.94 130.639C318.007 130.639 317.999 130.533 317.94 130.481L317.16 130.015C317.12 129.994 317.075 129.983 317.03 129.983C316.985 129.983 316.94 129.994 316.9 130.015Z" fill="#3A2C6D"/>
<path d="M318.057 129.313L317.218 129.805C317.151 129.805 317.16 129.919 317.218 129.963L317.99 130.437C318.03 130.458 318.075 130.469 318.12 130.469C318.165 130.469 318.21 130.458 318.25 130.437L319.089 129.945C319.156 129.901 319.148 129.831 319.089 129.787L318.317 129.322C318.278 129.299 318.234 129.286 318.188 129.284C318.143 129.283 318.098 129.293 318.057 129.313Z" fill="#3A2C6D"/>
<path d="M319.206 128.619L318.368 129.111C318.301 129.155 318.309 129.225 318.368 129.269L319.148 129.743C319.188 129.763 319.233 129.773 319.278 129.773C319.323 129.773 319.367 129.763 319.408 129.743L320.247 129.251C320.314 129.208 320.305 129.137 320.247 129.093L319.466 128.619C319.426 128.598 319.382 128.587 319.336 128.587C319.291 128.587 319.247 128.598 319.206 128.619Z" fill="#3A2C6D"/>
<path d="M329.012 122.694L328.174 123.185C328.106 123.229 328.115 123.299 328.174 123.343L328.954 123.817C328.994 123.837 329.039 123.847 329.084 123.847C329.129 123.847 329.173 123.837 329.214 123.817L330.052 123.326C330.12 123.282 330.111 123.212 330.052 123.168L329.272 122.694C329.232 122.672 329.188 122.661 329.142 122.661C329.097 122.661 329.053 122.672 329.012 122.694Z" fill="#3A2C6D"/>
<path d="M330.162 122.027L329.323 122.518C329.256 122.518 329.264 122.623 329.323 122.676L330.103 123.141C330.143 123.163 330.188 123.174 330.233 123.174C330.278 123.174 330.323 123.163 330.363 123.141L331.202 122.641C331.269 122.641 331.26 122.536 331.202 122.492L330.422 122.018C330.381 121.998 330.336 121.988 330.291 121.989C330.245 121.991 330.201 122.004 330.162 122.027Z" fill="#3A2C6D"/>
<path d="M331.336 121.298L330.497 121.798C330.43 121.798 330.438 121.904 330.497 121.947L331.269 122.421C331.309 122.443 331.354 122.454 331.399 122.454C331.444 122.454 331.489 122.443 331.529 122.421L332.368 121.93C332.435 121.93 332.426 121.825 332.368 121.772L331.596 121.307C331.556 121.284 331.512 121.271 331.467 121.269C331.422 121.268 331.377 121.278 331.336 121.298Z" fill="#3A2C6D"/>
<path d="M332.468 120.604L331.63 121.096C331.562 121.14 331.571 121.21 331.63 121.254L332.41 121.728C332.45 121.75 332.494 121.761 332.54 121.761C332.585 121.761 332.629 121.75 332.67 121.728L333.508 121.236C333.576 121.193 333.567 121.122 333.508 121.078L332.728 120.604C332.688 120.585 332.643 120.574 332.598 120.574C332.553 120.574 332.509 120.585 332.468 120.604Z" fill="#3A2C6D"/>
<path d="M320.658 127.742L319.542 128.418C319.475 128.418 319.483 128.523 319.542 128.576L320.322 129.041C320.362 129.062 320.407 129.074 320.452 129.074C320.497 129.074 320.542 129.062 320.582 129.041L321.698 128.365C321.757 128.321 321.748 128.251 321.698 128.207L320.918 127.742C320.878 127.719 320.833 127.706 320.788 127.706C320.742 127.706 320.697 127.719 320.658 127.742Z" fill="#3A2C6D"/>
<path d="M327.863 123.387L326.748 124.063C326.68 124.063 326.689 124.169 326.748 124.221L327.528 124.687C327.568 124.708 327.613 124.719 327.658 124.719C327.703 124.719 327.747 124.708 327.788 124.687L328.903 124.011C328.97 123.967 328.962 123.896 328.903 123.853L328.123 123.387C328.083 123.366 328.038 123.354 327.993 123.354C327.948 123.354 327.903 123.366 327.863 123.387Z" fill="#3A2C6D"/>
<path d="M326.412 124.265L320.993 127.54C320.926 127.584 320.934 127.654 320.993 127.698L321.773 128.172C321.814 128.193 321.858 128.205 321.903 128.205C321.949 128.205 321.993 128.193 322.033 128.172L327.452 124.897C327.519 124.853 327.511 124.783 327.452 124.739L326.672 124.265C326.632 124.244 326.587 124.232 326.542 124.232C326.497 124.232 326.452 124.244 326.412 124.265Z" fill="#3A2C6D"/>
<path d="M321.161 130.138L320.322 130.639C320.255 130.639 320.264 130.744 320.322 130.788L321.102 131.262C321.143 131.283 321.187 131.295 321.232 131.295C321.278 131.295 321.322 131.283 321.362 131.262L322.201 130.77C322.268 130.77 322.26 130.665 322.201 130.612L321.421 130.147C321.382 130.124 321.337 130.111 321.292 130.11C321.247 130.108 321.202 130.118 321.161 130.138Z" fill="#3A2C6D"/>
<path d="M322.319 129.445L321.48 129.936C321.413 129.98 321.421 130.051 321.48 130.094L322.26 130.569C322.301 130.588 322.345 130.598 322.39 130.598C322.435 130.598 322.479 130.588 322.52 130.569L323.359 130.077C323.426 130.033 323.417 129.963 323.359 129.919L322.579 129.445C322.538 129.423 322.494 129.412 322.449 129.412C322.403 129.412 322.359 129.423 322.319 129.445Z" fill="#3A2C6D"/>
<path d="M323.468 128.751L322.629 129.243C322.562 129.243 322.57 129.348 322.629 129.401L323.409 129.866C323.449 129.888 323.494 129.899 323.539 129.899C323.584 129.899 323.629 129.888 323.669 129.866L324.508 129.374C324.575 129.374 324.567 129.269 324.508 129.216L323.728 128.751C323.688 128.73 323.643 128.718 323.598 128.718C323.553 128.718 323.508 128.73 323.468 128.751Z" fill="#3A2C6D"/>
<path d="M324.625 128.049L323.786 128.54C323.719 128.584 323.728 128.655 323.786 128.698L324.567 129.172C324.607 129.194 324.651 129.205 324.697 129.205C324.742 129.205 324.786 129.194 324.827 129.172L325.665 128.681C325.732 128.637 325.724 128.567 325.665 128.523L324.885 128.049C324.845 128.029 324.8 128.019 324.755 128.019C324.71 128.019 324.666 128.029 324.625 128.049Z" fill="#3A2C6D"/>
<path d="M325.775 127.355L324.936 127.847C324.869 127.891 324.877 127.961 324.936 128.005L325.716 128.47C325.756 128.492 325.801 128.503 325.846 128.503C325.891 128.503 325.936 128.492 325.976 128.47L326.815 127.979C326.882 127.935 326.873 127.865 326.815 127.821L326.035 127.347C325.994 127.326 325.949 127.317 325.904 127.318C325.858 127.32 325.814 127.332 325.775 127.355Z" fill="#3A2C6D"/>
<path d="M326.932 126.653L326.093 127.154C326.026 127.154 326.035 127.259 326.093 127.303L326.873 127.777C326.914 127.798 326.958 127.81 327.003 127.81C327.049 127.81 327.093 127.798 327.133 127.777L327.972 127.285C328.039 127.285 328.031 127.18 327.972 127.127L327.192 126.662C327.153 126.639 327.108 126.626 327.063 126.625C327.018 126.623 326.973 126.633 326.932 126.653Z" fill="#3A2C6D"/>
<path d="M328.09 125.96L327.251 126.451C327.184 126.495 327.192 126.565 327.251 126.609L328.031 127.083C328.072 127.103 328.116 127.113 328.161 127.113C328.206 127.113 328.25 127.103 328.291 127.083L329.13 126.592C329.197 126.548 329.189 126.478 329.13 126.434L328.35 125.96C328.31 125.937 328.265 125.924 328.22 125.924C328.174 125.924 328.129 125.937 328.09 125.96Z" fill="#3A2C6D"/>
<path d="M329.239 125.266L328.4 125.758C328.333 125.758 328.341 125.863 328.4 125.916L329.18 126.381C329.22 126.402 329.265 126.414 329.31 126.414C329.355 126.414 329.4 126.402 329.44 126.381L330.279 125.889C330.346 125.889 330.338 125.784 330.279 125.731L329.499 125.266C329.459 125.244 329.414 125.233 329.369 125.233C329.324 125.233 329.279 125.244 329.239 125.266Z" fill="#3A2C6D"/>
<path d="M330.397 124.564L329.558 125.055C329.491 125.099 329.499 125.169 329.558 125.213L330.329 125.687C330.37 125.709 330.414 125.72 330.459 125.72C330.505 125.72 330.549 125.709 330.589 125.687L331.428 125.196C331.487 125.152 331.479 125.082 331.428 125.038L330.657 124.564C330.616 124.544 330.571 124.534 330.527 124.534C330.482 124.534 330.437 124.544 330.397 124.564Z" fill="#3A2C6D"/>
<path d="M331.546 123.87L330.707 124.362C330.64 124.406 330.648 124.476 330.707 124.52L331.487 124.985C331.527 125.007 331.572 125.018 331.617 125.018C331.662 125.018 331.707 125.007 331.747 124.985L332.586 124.493C332.653 124.45 332.644 124.379 332.586 124.335L331.806 123.861C331.765 123.841 331.72 123.831 331.675 123.833C331.629 123.834 331.585 123.847 331.546 123.87Z" fill="#3A2C6D"/>
<path d="M332.703 123.168L331.864 123.668C331.797 123.668 331.806 123.774 331.864 123.817L332.636 124.291C332.676 124.313 332.721 124.324 332.766 124.324C332.811 124.324 332.856 124.313 332.896 124.291L333.735 123.8C333.802 123.8 333.794 123.694 333.735 123.642L332.963 123.177C332.924 123.154 332.879 123.141 332.834 123.139C332.789 123.138 332.744 123.148 332.703 123.168Z" fill="#3A2C6D"/>
<path d="M333.852 122.474L333.014 122.966C332.946 123.01 332.955 123.08 333.014 123.124L333.794 123.598C333.834 123.618 333.879 123.628 333.924 123.628C333.969 123.628 334.013 123.618 334.054 123.598L334.893 123.106C334.96 123.062 334.951 122.992 334.893 122.948L334.112 122.474C334.072 122.453 334.028 122.441 333.982 122.441C333.937 122.441 333.893 122.453 333.852 122.474Z" fill="#3A2C6D"/>
<path d="M320.012 130.805L318.334 131.823C318.267 131.867 318.275 131.937 318.334 131.981L319.114 132.446C319.154 132.468 319.199 132.479 319.244 132.479C319.289 132.479 319.334 132.468 319.374 132.446L321.052 131.428C321.119 131.385 321.111 131.314 321.052 131.27L320.272 130.797C320.231 130.776 320.186 130.767 320.141 130.768C320.096 130.77 320.051 130.782 320.012 130.805Z" fill="#3A2C6D"/>
<path d="M319.475 129.813L318.636 130.305C318.569 130.305 318.577 130.419 318.636 130.463L319.408 130.928C319.448 130.95 319.493 130.961 319.538 130.961C319.583 130.961 319.628 130.95 319.668 130.928L320.507 130.437C320.574 130.437 320.565 130.323 320.507 130.279L319.735 129.805C319.694 129.784 319.649 129.775 319.604 129.776C319.559 129.778 319.515 129.79 319.475 129.813Z" fill="#3A2C6D"/>
<path d="M320.624 129.111L319.785 129.612C319.718 129.612 319.727 129.717 319.785 129.761L320.565 130.235C320.606 130.256 320.65 130.268 320.696 130.268C320.741 130.268 320.785 130.256 320.826 130.235L321.664 129.743C321.731 129.743 321.723 129.638 321.664 129.585L320.884 129.12C320.845 129.097 320.8 129.084 320.755 129.083C320.71 129.081 320.665 129.091 320.624 129.111Z" fill="#3A2C6D"/>
<path d="M321.782 128.418L320.943 128.909C320.876 128.909 320.884 129.023 320.943 129.067L321.715 129.541C321.755 129.561 321.8 129.571 321.845 129.571C321.89 129.571 321.934 129.561 321.975 129.541L322.814 129.05C322.881 129.05 322.872 128.936 322.814 128.892L322.042 128.418C322.002 128.396 321.957 128.385 321.912 128.385C321.867 128.385 321.822 128.396 321.782 128.418Z" fill="#3A2C6D"/>
<path d="M322.948 127.724L322.109 128.216C322.042 128.216 322.05 128.321 322.109 128.374L322.889 128.839C322.928 128.863 322.973 128.875 323.019 128.875C323.065 128.875 323.109 128.863 323.149 128.839L323.988 128.347C324.055 128.347 324.047 128.242 323.988 128.189L323.208 127.724C323.167 127.703 323.123 127.691 323.078 127.691C323.032 127.691 322.988 127.703 322.948 127.724Z" fill="#3A2C6D"/>
<path d="M324.089 127.022L323.25 127.513C323.183 127.557 323.191 127.628 323.25 127.671L324.021 128.146C324.062 128.167 324.106 128.178 324.151 128.178C324.197 128.178 324.241 128.167 324.281 128.146L325.12 127.654C325.187 127.654 325.179 127.54 325.12 127.496L324.349 127.022C324.308 127.002 324.263 126.992 324.219 126.992C324.174 126.992 324.129 127.002 324.089 127.022Z" fill="#3A2C6D"/>
<path d="M325.238 126.328L324.399 126.82C324.332 126.82 324.34 126.934 324.399 126.978L325.179 127.443C325.219 127.465 325.264 127.476 325.309 127.476C325.354 127.476 325.399 127.465 325.439 127.443L326.278 126.951C326.345 126.951 326.337 126.837 326.278 126.793L325.498 126.319C325.457 126.299 325.412 126.289 325.367 126.291C325.321 126.292 325.277 126.305 325.238 126.328Z" fill="#3A2C6D"/>
<path d="M326.395 125.626L325.556 126.126C325.489 126.126 325.498 126.232 325.556 126.276L326.328 126.75C326.368 126.771 326.413 126.782 326.458 126.782C326.503 126.782 326.548 126.771 326.588 126.75L327.427 126.258C327.494 126.258 327.486 126.153 327.427 126.1L326.655 125.635C326.616 125.612 326.571 125.599 326.526 125.597C326.481 125.596 326.436 125.606 326.395 125.626Z" fill="#3A2C6D"/>
<path d="M327.545 124.932L326.706 125.424C326.639 125.424 326.647 125.538 326.706 125.582L327.486 126.056C327.526 126.078 327.571 126.089 327.616 126.089C327.661 126.089 327.706 126.078 327.746 126.056L328.585 125.564C328.652 125.564 328.643 125.45 328.585 125.406L327.805 124.932C327.764 124.911 327.72 124.9 327.675 124.9C327.629 124.9 327.585 124.911 327.545 124.932Z" fill="#3A2C6D"/>
<path d="M328.702 124.239L327.863 124.731C327.796 124.731 327.805 124.836 327.863 124.889L328.635 125.354C328.675 125.375 328.72 125.387 328.765 125.387C328.81 125.387 328.855 125.375 328.895 125.354L329.734 124.853C329.801 124.853 329.793 124.748 329.734 124.704L328.962 124.23C328.921 124.21 328.876 124.2 328.831 124.202C328.786 124.203 328.742 124.216 328.702 124.239Z" fill="#3A2C6D"/>
<path d="M329.851 123.537L329.012 124.028C328.945 124.072 328.954 124.142 329.012 124.186L329.793 124.66C329.833 124.682 329.877 124.693 329.923 124.693C329.968 124.693 330.012 124.682 330.053 124.66L330.891 124.169C330.958 124.169 330.95 124.054 330.891 124.011L330.111 123.545C330.072 123.522 330.027 123.51 329.982 123.508C329.937 123.507 329.892 123.516 329.851 123.537Z" fill="#3A2C6D"/>
<path d="M331.009 122.843L330.17 123.335C330.103 123.335 330.111 123.449 330.17 123.493L330.942 123.958C330.982 123.979 331.027 123.991 331.072 123.991C331.117 123.991 331.162 123.979 331.202 123.958L332.041 123.466C332.108 123.466 332.099 123.352 332.041 123.308L331.269 122.834C331.228 122.814 331.183 122.804 331.138 122.806C331.093 122.807 331.048 122.82 331.009 122.843Z" fill="#3A2C6D"/>
<path d="M333.584 121.28L331.336 122.64C331.269 122.64 331.277 122.746 331.336 122.798L332.116 123.263C332.156 123.285 332.201 123.296 332.246 123.296C332.291 123.296 332.336 123.285 332.376 123.263L334.616 121.912C334.683 121.912 334.674 121.798 334.616 121.754L333.836 121.289C333.797 121.268 333.754 121.256 333.711 121.254C333.667 121.253 333.624 121.262 333.584 121.28Z" fill="#3A2C6D"/>
<path d="M318.317 130.507L317.202 131.183C317.143 131.183 317.151 131.288 317.202 131.341L317.982 131.806C318.02 131.828 318.064 131.839 318.108 131.839C318.151 131.839 318.195 131.828 318.233 131.806L319.349 131.139C319.416 131.139 319.408 131.025 319.349 130.981L318.569 130.507C318.529 130.489 318.486 130.479 318.443 130.479C318.4 130.479 318.357 130.489 318.317 130.507Z" fill="#3A2C6D"/>
<path d="M338.105 124.011L321.723 133.913C321.656 133.913 321.664 134.019 321.723 134.071L322.117 134.3C322.158 134.321 322.202 134.332 322.247 134.332C322.293 134.332 322.337 134.321 322.377 134.3L338.751 124.397C338.818 124.353 338.81 124.283 338.751 124.239L338.365 124.002C338.324 123.984 338.279 123.975 338.234 123.976C338.189 123.978 338.145 123.99 338.105 124.011Z" fill="#3A2C6D"/>
<path d="M318.938 124.45L319.047 124.52L321.874 126.232L326.907 123.185L327.008 123.124L324.072 121.351L318.938 124.45Z" fill="#BFBFBF"/>
<path d="M319.047 124.52L321.874 126.232L326.907 123.185L324.072 121.474L319.047 124.52Z" fill="#E5E5E5"/>
<path d="M310.86 128.444V128.707C310.861 128.898 310.909 129.085 311 129.25C311.092 129.414 311.223 129.551 311.38 129.647L321.354 135.669C321.51 135.769 321.691 135.821 321.874 135.818C322.055 135.82 322.232 135.769 322.386 135.669L340.437 124.765C340.596 124.672 340.728 124.535 340.819 124.37C340.911 124.205 340.958 124.017 340.957 123.826V123.563L321.874 135.098L310.86 128.444Z" fill="#E5E5E5"/>
<path d="M322.168 135.256C322.337 135.327 322.52 135.355 322.702 135.34C322.883 135.325 323.059 135.266 323.216 135.169L341.192 124.309C341.347 124.217 341.48 124.091 341.583 123.939C341.686 123.788 341.756 123.614 341.788 123.431L343.75 111.141C343.759 111.071 343.759 111 343.75 110.93C343.745 110.599 343.615 110.284 343.39 110.052L324.709 121.342C324.596 121.413 324.499 121.509 324.424 121.622C324.349 121.736 324.297 121.865 324.273 122L322.168 135.256Z" fill="#F4F4F4"/>
<path d="M321.874 135.098L322 135.169L322.168 135.256L324.29 121.965C324.314 121.83 324.366 121.701 324.441 121.587C324.516 121.474 324.613 121.378 324.726 121.307L343.407 110.017C343.332 109.938 343.247 109.87 343.155 109.815L324.441 121.149C324.323 121.214 324.223 121.308 324.147 121.423C324.071 121.537 324.022 121.669 324.005 121.807L321.874 135.098Z" fill="#E5E5E5"/>
<path d="M308.31 82.5216C308.31 82.5216 308.537 87.2008 308.436 87.6134C308.335 88.026 306.389 89.3691 305.819 89.8871C305.249 90.405 308.906 94.1536 310.684 95.0052C312.462 95.8567 318.091 93.6093 318.192 90.7123C318.292 87.8153 317.227 85.3923 316.363 85.2606C315.499 85.1289 308.31 82.5216 308.31 82.5216Z" fill="#FFCEA9"/>
<path d="M307.849 88.4386C307.849 88.4386 311.087 93.4865 315.608 93.9694C317.034 92.4945 317.168 87.2623 315.189 85.5943C315.189 85.5943 317.001 84.058 318.242 84.3565C319.577 85.201 320.571 86.5283 321.035 88.0875C322.187 91.5621 322.727 95.2267 322.629 98.9031C322.554 103.854 322.629 116.391 322.629 116.391C322.363 117.87 321.802 119.274 320.98 120.511C320.159 121.747 319.097 122.787 317.864 123.563C314.607 125.491 310.771 126.046 307.136 125.117C304.846 124.555 303.99 123.212 303.202 121.474C303.412 117.962 304.72 110.851 304.175 106.479C303.63 102.107 302.732 98.8504 302.497 95.3125C302.262 91.7746 302.942 91.8536 304.636 90.5983C305.656 89.7986 306.73 89.0769 307.849 88.4386Z" fill="#F4F4F4"/>
<path d="M312.999 128.707C312.194 128.143 311.353 127.636 310.483 127.189C309.664 126.918 308.919 126.445 308.31 125.81C307.513 124.994 306.213 121.913 305.282 118.91C304.356 115.524 303.987 111.997 304.192 108.481C304.586 104.267 306.037 98.3676 306.406 95.9446C306.775 93.5216 306.02 92.556 304.947 91.6693C303.68 90.6158 301.935 91.0811 301.004 94.4785C299.799 99.1759 299.096 103.999 298.907 108.858C298.865 112.469 299.398 116.062 300.484 119.49C301.444 122.427 302.743 125.23 304.351 127.838C304.796 128.628 304.938 129.322 305.618 130.92C306.274 132.526 307.293 133.942 308.587 135.046C309.719 135.924 310.265 136.02 310.525 135.862C310.785 135.704 310.793 135.274 310.315 134.818C309.509 134.163 308.824 133.359 308.293 132.447C308.293 132.447 309.283 133.492 309.971 134.063C310.551 134.564 311.187 134.989 311.867 135.327C312.538 135.625 313.452 135.037 312.991 134.572C312.53 134.106 312.035 133.878 311.087 133.018C310.582 132.567 310.131 132.054 309.745 131.49C310.41 132.021 311.114 132.497 311.85 132.913C312.414 133.269 313.062 133.451 313.721 133.439C314.073 133.439 314.501 132.913 313.846 132.412C312.944 131.934 312.099 131.345 311.33 130.656C310.609 129.901 310.198 129.26 310.399 129.252C310.6 129.243 310.994 129.708 311.85 129.989C312.706 130.27 313.612 129.989 313.721 129.524C313.83 129.059 313.796 129.12 312.999 128.707Z" fill="#FFCEA9"/>
<path d="M318.41 75.5775C317.881 71.9519 315.382 69.2041 311.808 69.4323C309.991 69.5478 308.292 70.4096 307.079 71.8301C305.866 73.2506 305.238 75.1149 305.332 77.0173C305.39 78.112 305.687 79.1781 306.202 80.1328C306.717 81.0874 307.436 81.9049 308.302 82.5216C308.43 83.0709 308.616 83.6038 308.855 84.1106C310.122 85.6557 313.947 86.6126 315.046 86.4458C315.7 86.3911 316.324 86.1316 316.836 85.7011C317.347 85.2705 317.723 84.6888 317.915 84.0316C319.072 81.1785 318.703 77.3684 318.41 75.5775Z" fill="#FFCEA9"/>
<path d="M308.302 82.5216L308.637 79.3612C308.637 79.3612 306.163 72.6629 311.993 73.9534C315.843 74.8313 316.816 75.1649 317.982 72.461C319.148 69.7571 315.021 67.3253 310.114 68.0013C308.422 68.186 306.858 69.0296 305.733 70.3648C304.608 71.7 304.004 73.429 304.041 75.2088C304.175 77.2543 304.678 81.2399 308.302 82.5216Z" fill="#3A2C6D"/>
<path d="M298.311 100.712C298.311 100.712 301.499 104.021 305.265 103.073C305.811 102.687 307.102 94.935 307.102 94.935C307.102 94.935 307.102 90.6421 303.957 90.7563C300.811 90.8704 298.311 100.712 298.311 100.712Z" fill="#EDEDED"/>
<path d="M322.369 94.2765C323.26 94.2384 324.103 93.8459 324.726 93.1792C324.6 91.4234 322.478 84.848 318.2 84.4003C319.367 85.2504 320.291 86.4153 320.876 87.7714C321.531 89.8969 322.03 92.0716 322.369 94.2765Z" fill="#EDEDED"/>
</svg>
