<svg width="353" height="348" viewBox="0 0 353 348" fill="none" xmlns="http://www.w3.org/2000/svg">
<path opacity="0.4" d="M110.073 345.655L39.0953 304.679C33.0865 301.198 33.8385 295.148 40.7802 291.137L212.229 192.17C219.192 188.159 229.671 187.727 235.679 191.195L306.657 232.17C312.666 235.652 311.914 241.709 304.972 245.713L133.523 344.687C126.581 348.691 116.082 349.129 110.073 345.655Z" fill="#D6D8E5"/>
<path d="M119.062 340.266L48.0912 299.291C42.0754 295.809 42.8343 289.752 49.7761 285.748L221.218 186.76C228.181 182.756 238.625 182.318 244.675 185.792L315.646 226.767C321.655 230.249 320.903 236.299 313.961 240.31L142.519 339.291C135.577 343.302 125.077 343.733 119.062 340.266Z" fill="#B1B4C4"/>
<path d="M44.0318 293.316V286.785L51.6977 289.675L44.0318 293.316Z" fill="#B1B4C4"/>
<path d="M319.705 232.421V226.141L313.613 230.068L319.705 232.421Z" fill="#B1B4C4"/>
<path d="M119.062 334.73L48.0912 293.755C42.0754 290.274 42.8343 284.223 49.7761 280.213L221.218 181.231C228.181 177.221 238.625 176.789 244.675 180.256L315.646 221.232C321.655 224.713 320.903 230.771 313.961 234.774L142.519 333.762C135.577 337.766 125.077 338.205 119.062 334.73Z" fill="#616E84"/>
<path d="M56.6548 302.153C57.0178 301.944 57.0175 301.264 56.6541 300.634C56.2907 300.005 55.7018 299.664 55.3389 299.874C54.9759 300.084 54.9762 300.764 55.3396 301.393C55.703 302.022 56.2918 302.363 56.6548 302.153Z" fill="#757B89"/>
<path d="M60.0716 304.128C60.4346 303.919 60.4343 303.238 60.0709 302.609C59.7075 301.98 59.1186 301.639 58.7556 301.849C58.3927 302.058 58.393 302.738 58.7564 303.368C59.1198 303.997 59.7086 304.338 60.0716 304.128Z" fill="#757B89"/>
<path d="M63.4882 306.095C63.8512 305.886 63.8509 305.205 63.4875 304.576C63.1241 303.947 62.5353 303.606 62.1723 303.816C61.8093 304.025 61.8096 304.706 62.173 305.335C62.5364 305.964 63.1252 306.305 63.4882 306.095Z" fill="#757B89"/>
<path d="M66.9024 308.072C67.2654 307.863 67.2651 307.183 66.9017 306.553C66.5383 305.924 65.9495 305.584 65.5865 305.793C65.2235 306.003 65.2238 306.683 65.5872 307.312C65.9506 307.942 66.5394 308.282 66.9024 308.072Z" fill="#757B89"/>
<path d="M96.2399 325.004C96.6029 324.794 96.6026 324.114 96.2392 323.484C95.8758 322.855 95.287 322.515 94.924 322.724C94.561 322.934 94.5613 323.614 94.9247 324.243C95.2881 324.873 95.8769 325.213 96.2399 325.004Z" fill="#757B89"/>
<path d="M99.6506 326.982C100.014 326.772 100.013 326.092 99.6499 325.463C99.2865 324.833 98.6976 324.493 98.3346 324.702C97.9717 324.912 97.972 325.592 98.3354 326.221C98.6988 326.851 99.2876 327.191 99.6506 326.982Z" fill="#757B89"/>
<path d="M103.067 328.949C103.43 328.739 103.43 328.059 103.067 327.43C102.703 326.8 102.114 326.46 101.751 326.67C101.388 326.879 101.389 327.559 101.752 328.189C102.116 328.818 102.704 329.158 103.067 328.949Z" fill="#757B89"/>
<path d="M106.488 330.923C106.851 330.713 106.85 330.033 106.487 329.404C106.123 328.774 105.535 328.434 105.172 328.643C104.809 328.853 104.809 329.533 105.172 330.163C105.536 330.792 106.125 331.132 106.488 330.923Z" fill="#757B89"/>
<path d="M85.6407 319.538L76.262 314.114C75.9328 313.881 75.6634 313.573 75.4758 313.216C75.2882 312.859 75.1878 312.463 75.1828 312.06C75.1828 311.266 75.6632 310.904 76.262 311.245L85.6407 316.669C85.9699 316.902 86.2393 317.21 86.4269 317.567C86.6145 317.924 86.7149 318.32 86.7199 318.723C86.6851 319.517 86.2047 319.879 85.6407 319.538Z" fill="#757B89"/>
<path d="M298.225 247.982L289.494 253.023C288.944 253.337 288.491 253.023 288.491 252.264C288.498 251.889 288.592 251.521 288.766 251.188C288.94 250.856 289.189 250.569 289.494 250.35L298.225 245.316C298.775 244.995 299.221 245.316 299.221 246.068C299.215 246.442 299.123 246.811 298.95 247.143C298.777 247.476 298.529 247.763 298.225 247.982Z" fill="#757B89"/>
<path d="M284.857 255.697L276.126 260.738C275.576 261.058 275.123 260.738 275.123 259.979C275.13 259.605 275.225 259.238 275.399 258.907C275.573 258.576 275.822 258.289 276.126 258.071L284.857 253.03C285.407 252.71 285.852 253.03 285.852 253.789C285.848 254.163 285.755 254.53 285.582 254.862C285.409 255.193 285.161 255.479 284.857 255.697Z" fill="#757B89"/>
<path d="M119.062 333.728L48.0912 292.752C42.0754 289.271 42.8343 283.22 49.7761 279.21L221.218 180.229C228.181 176.218 238.625 175.779 244.675 179.254L315.646 220.229C321.655 223.71 320.903 229.761 313.961 233.772L142.519 332.753C135.577 336.763 125.077 337.195 119.062 333.728Z" fill="#20232D"/>
<path d="M308.028 221.865L280.317 205.851L280.254 205.893C276.975 207.78 271.669 207.78 268.418 205.893C265.166 204.006 265.145 200.936 268.418 199.049L268.487 199.007L240.776 182.993C236.598 180.563 229.747 180.563 225.535 182.993L58.542 279.426C54.3644 281.856 54.3644 285.797 58.542 288.227L125.808 327.064C130.021 329.494 136.844 329.494 141.05 327.064L308.028 230.659C312.234 228.229 312.234 224.295 308.028 221.865Z" fill="white"/>
<path opacity="0.5" d="M308.028 230.659L141.05 327.065C137.248 329.258 131.302 329.474 127.083 327.691C126.647 327.509 126.224 327.3 125.815 327.065L58.542 288.255C57.609 287.744 56.8024 287.03 56.1817 286.166C54.5942 283.917 55.3809 281.243 58.542 279.419L225.514 183.021C229.726 180.598 236.543 180.598 240.755 183.021L268.467 199.035H268.397C265.125 200.922 265.125 203.985 268.397 205.879C271.669 207.773 276.982 207.766 280.233 205.879L280.303 205.838L308.015 221.852C312.234 224.296 312.234 228.23 308.028 230.659Z" fill="url(#paint0_linear_128_2884)"/>
<path d="M272.505 205.371C274.262 205.371 275.687 204.548 275.687 203.533C275.687 202.518 274.262 201.695 272.505 201.695C270.748 201.695 269.323 202.518 269.323 203.533C269.323 204.548 270.748 205.371 272.505 205.371Z" fill="#2B303F"/>
<path opacity="0.1" d="M271.544 204.076C271.433 204.035 271.336 203.962 271.268 203.864C271.2 203.767 271.164 203.652 271.164 203.533C271.164 203.414 271.2 203.299 271.268 203.201C271.336 203.104 271.433 203.03 271.544 202.99C271.837 202.842 272.16 202.765 272.488 202.765C272.815 202.765 273.138 202.842 273.431 202.99C273.546 203.027 273.646 203.1 273.717 203.197C273.788 203.295 273.826 203.412 273.826 203.533C273.826 203.654 273.788 203.771 273.717 203.869C273.646 203.966 273.546 204.039 273.431 204.076C273.138 204.224 272.815 204.301 272.488 204.301C272.16 204.301 271.837 204.224 271.544 204.076Z" fill="white"/>
<path d="M283.91 216.783L282.705 216.087L284.718 214.924L285.922 215.62L283.91 216.783Z" fill="#E9EAF2"/>
<path d="M285.518 217.709L284.314 217.013L287.127 215.39L288.331 216.087L285.518 217.709Z" fill="#E9EAF2"/>
<path d="M287.127 218.635L285.922 217.939L289.94 215.62L291.144 216.316L287.127 218.635Z" fill="#E9EAF2"/>
<path d="M288.735 219.568L287.53 218.872L293.156 215.62L294.361 216.316L288.735 219.568Z" fill="#E9EAF2"/>
<path d="M293.957 222.583L292.084 221.496L295.837 219.331L297.71 220.417L293.957 222.583Z" fill="#E9EAF2"/>
<path d="M296.464 224.024L294.584 222.945L298.337 220.78L300.21 221.859L296.464 224.024Z" fill="#E9EAF2"/>
<path d="M298.963 225.465L297.083 224.386L300.836 222.221L302.709 223.3L298.963 225.465Z" fill="#E9EAF2"/>
<path d="M220.473 204.201L211.846 199.216C210.649 198.52 210.802 197.329 212.18 196.535L220.139 191.94C220.844 191.544 221.633 191.32 222.441 191.286C223.249 191.253 224.054 191.41 224.79 191.745L233.417 196.723C234.607 197.42 234.461 198.617 233.082 199.411L225.124 204.006C224.418 204.4 223.629 204.623 222.822 204.657C222.014 204.69 221.21 204.534 220.473 204.201Z" fill="#E9EAF2"/>
<path d="M279.154 238.082L228.668 208.936C227.477 208.24 227.631 207.042 229.002 206.248L236.968 201.653C237.672 201.259 238.46 201.036 239.266 201.002C240.073 200.968 240.876 201.124 241.612 201.458L292.098 230.604C293.289 231.3 293.142 232.498 291.764 233.291L283.805 237.887C283.099 238.279 282.31 238.501 281.503 238.534C280.696 238.568 279.891 238.413 279.154 238.082Z" fill="#E9EAF2"/>
<path d="M202.997 214.29L194.37 209.305C193.179 208.609 193.325 207.418 194.704 206.624L202.662 202.029C203.368 201.633 204.157 201.409 204.965 201.375C205.773 201.341 206.577 201.499 207.313 201.834L215.94 206.791C217.131 207.488 216.985 208.685 215.606 209.479L207.648 214.074C206.943 214.471 206.156 214.698 205.348 214.735C204.54 214.773 203.735 214.62 202.997 214.29Z" fill="#E9EAF2"/>
<path d="M261.678 248.171L211.199 219.025C210.008 218.329 210.154 217.131 211.533 216.337L219.491 211.742C220.197 211.348 220.986 211.126 221.794 211.092C222.601 211.058 223.406 211.214 224.142 211.547L274.622 240.693C275.812 241.389 275.666 242.587 274.287 243.38L266.329 247.976C265.622 248.368 264.834 248.589 264.027 248.623C263.219 248.657 262.415 248.502 261.678 248.171Z" fill="#E9EAF2"/>
<g opacity="0.6">
<path d="M185.527 224.379L176.894 219.394C175.703 218.698 175.849 217.507 177.228 216.713L185.193 212.118C185.897 211.722 186.685 211.498 187.492 211.464C188.299 211.431 189.102 211.588 189.837 211.923L198.471 216.901C199.661 217.598 199.508 218.795 198.137 219.589L190.171 224.198C189.466 224.59 188.678 224.811 187.871 224.842C187.064 224.874 186.261 224.715 185.527 224.379Z" fill="#E9EAF2"/>
<path d="M244.208 258.259L193.722 229.114C192.532 228.417 192.678 227.22 194.056 226.426L202.015 221.831C202.721 221.437 203.509 221.214 204.317 221.181C205.125 221.147 205.929 221.303 206.666 221.636L257.152 250.782C258.343 251.478 258.19 252.675 256.818 253.469L248.853 258.064C248.147 258.456 247.36 258.678 246.554 258.712C245.747 258.746 244.944 258.591 244.208 258.259Z" fill="#E9EAF2"/>
</g>
<path d="M168.051 234.468L159.445 229.483C158.255 228.786 158.408 227.596 159.779 226.802L167.745 222.2C168.45 221.807 169.238 221.585 170.044 221.552C170.851 221.52 171.654 221.677 172.389 222.012L181.03 226.983C182.22 227.679 182.074 228.877 180.695 229.671L172.674 234.273C171.972 234.664 171.189 234.885 170.386 234.919C169.583 234.953 168.784 234.798 168.051 234.468Z" fill="#E9EAF2"/>
<path d="M226.733 268.349L176.246 239.203C175.056 238.507 175.209 237.309 176.58 236.515L184.546 231.92C185.25 231.526 186.038 231.303 186.845 231.269C187.651 231.235 188.455 231.391 189.19 231.725L239.676 260.871C240.867 261.567 240.714 262.765 239.342 263.558L231.377 268.154C230.671 268.546 229.884 268.767 229.078 268.801C228.271 268.835 227.468 268.68 226.733 268.349Z" fill="#E9EAF2"/>
<path d="M150.575 244.557L141.948 239.572C140.757 238.876 140.903 237.685 142.282 236.891L150.24 232.289C150.947 231.896 151.736 231.674 152.544 231.641C153.351 231.609 154.156 231.766 154.891 232.101L163.518 237.079C164.709 237.776 164.563 238.973 163.184 239.767L155.226 244.39C154.517 244.779 153.728 244.997 152.92 245.026C152.112 245.055 151.309 244.895 150.575 244.557Z" fill="#E9EAF2"/>
<path d="M209.256 278.437L158.749 249.263C157.558 248.567 157.712 247.37 159.083 246.576L167.049 241.981C167.755 241.586 168.543 241.363 169.351 241.329C170.159 241.296 170.963 241.452 171.7 241.786L222.179 270.931C223.37 271.628 223.223 272.825 221.845 273.619L213.886 278.214C213.185 278.607 212.401 278.832 211.598 278.871C210.794 278.909 209.993 278.761 209.256 278.437Z" fill="#E9EAF2"/>
<g opacity="0.6">
<path d="M133.098 254.646L124.472 249.661C123.281 248.964 123.427 247.774 124.806 246.98L132.764 242.378C133.471 241.985 134.26 241.763 135.067 241.73C135.875 241.698 136.679 241.855 137.415 242.19L146.042 247.175C147.24 247.871 147.086 249.069 145.708 249.863L137.75 254.458C137.043 254.851 136.254 255.072 135.446 255.105C134.639 255.137 133.835 254.98 133.098 254.646Z" fill="#E9EAF2"/>
<path d="M191.78 288.526L141.3 259.381C140.11 258.684 140.256 257.487 141.634 256.693L149.593 252.098C150.299 251.704 151.087 251.481 151.895 251.447C152.703 251.414 153.507 251.569 154.244 251.903L204.702 281.048C205.893 281.745 205.747 282.942 204.368 283.736L196.41 288.331C195.706 288.72 194.921 288.94 194.118 288.974C193.314 289.008 192.514 288.854 191.78 288.526Z" fill="#E9EAF2"/>
</g>
<path d="M115.629 264.735L106.995 259.75C105.805 259.053 105.958 257.863 107.33 257.069L115.295 252.467C116 252.074 116.788 251.852 117.595 251.819C118.401 251.787 119.204 251.944 119.939 252.279L128.573 257.257C129.763 257.953 129.61 259.151 128.239 259.944L120.273 264.54C119.569 264.934 118.781 265.157 117.974 265.191C117.168 265.225 116.364 265.068 115.629 264.735Z" fill="#E9EAF2"/>
<path d="M174.31 298.615L123.824 269.456C122.634 268.759 122.78 267.562 124.158 266.768L132.117 262.173C132.823 261.779 133.611 261.556 134.419 261.522C135.227 261.489 136.031 261.644 136.768 261.978L187.254 291.123C188.445 291.82 188.291 293.017 186.92 293.811L178.941 298.42C178.237 298.81 177.452 299.031 176.649 299.064C175.845 299.098 175.044 298.944 174.31 298.615Z" fill="#E9EAF2"/>
<g opacity="0.6">
<path d="M98.1738 274.824L89.54 269.838C88.3494 269.142 88.5026 267.952 89.8742 267.158L97.8395 262.556C98.546 262.162 99.3349 261.941 100.143 261.908C100.951 261.875 101.755 262.033 102.491 262.368L111.096 267.367C112.287 268.063 112.141 269.261 110.762 270.054L102.797 274.65C102.093 275.037 101.309 275.255 100.506 275.285C99.7033 275.315 98.9046 275.157 98.1738 274.824Z" fill="#E9EAF2"/>
<path d="M156.834 308.704L106.348 279.558C105.157 278.862 105.31 277.664 106.682 276.87L114.647 272.275C115.352 271.881 116.139 271.658 116.946 271.624C117.753 271.59 118.556 271.746 119.291 272.08L169.778 301.226C170.968 301.922 170.822 303.12 169.444 303.913L161.478 308.509C160.773 308.901 159.986 309.123 159.179 309.156C158.373 309.19 157.57 309.035 156.834 308.704Z" fill="#E9EAF2"/>
</g>
<g opacity="0.6">
<path d="M80.6766 284.913L72.0499 279.9C70.8593 279.203 71.0055 278.013 72.3841 277.219L80.3424 272.617C81.0489 272.223 81.8378 272.002 82.6456 271.969C83.4534 271.936 84.2576 272.094 84.9935 272.429L93.6203 277.407C94.8109 278.103 94.6646 279.301 93.286 280.094L85.3277 284.69C84.6238 285.088 83.8364 285.315 83.0287 285.354C82.2209 285.393 81.4154 285.242 80.6766 284.913Z" fill="#E9EAF2"/>
<path d="M139.358 318.793L88.8786 289.647C87.681 288.951 87.8342 287.76 89.2059 286.966L97.1712 282.371C97.8771 281.977 98.6657 281.754 99.4735 281.72C100.281 281.686 101.086 281.842 101.822 282.176L152.302 311.322C153.492 312.018 153.346 313.216 151.967 314.01L144.009 318.605C143.302 318.996 142.513 319.216 141.706 319.249C140.898 319.282 140.094 319.125 139.358 318.793Z" fill="#E9EAF2"/>
</g>
<path d="M49.9015 128.851V163.247C49.9007 163.484 49.8583 163.72 49.7761 163.943C49.7313 164.085 49.673 164.223 49.6021 164.354C49.3939 164.772 49.0762 165.125 48.683 165.377L2.38122 192.114C2.25111 192.214 2.09403 192.273 1.93022 192.283C1.76642 192.293 1.60339 192.253 1.46215 192.17C1.3818 192.109 1.31728 192.031 1.27416 191.94C1.1962 191.775 1.15805 191.593 1.16276 191.411V157.015C1.16351 156.779 1.20109 156.544 1.27416 156.319C1.3243 156.171 1.38479 156.027 1.45519 155.887C1.66815 155.47 1.98764 155.117 2.38122 154.864L48.6691 128.113C48.8013 128.014 48.9604 127.957 49.1256 127.949C49.2909 127.942 49.4545 127.984 49.5951 128.071C49.6718 128.132 49.7357 128.208 49.7831 128.294C49.867 128.467 49.9076 128.659 49.9015 128.851Z" fill="#DDB545"/>
<path d="M1.55267 192.197L3.33512 193.179L3.44652 190.018L1.55267 192.197Z" fill="#DDB545"/>
<path d="M49.4698 128.03L51.3915 129.081L48.683 132.326L49.4698 128.03Z" fill="#DDB545"/>
<path d="M51.6979 129.84V164.236C51.6936 164.473 51.6513 164.708 51.5725 164.932C51.5247 165.073 51.4665 165.21 51.3985 165.343C51.1903 165.761 50.8726 166.114 50.4794 166.366L4.17764 193.089C4.0461 193.187 3.88828 193.243 3.7245 193.25C3.56071 193.258 3.39844 193.216 3.25856 193.131C3.17995 193.071 3.11569 192.995 3.07057 192.908C2.98758 192.744 2.94689 192.562 2.95221 192.379V157.983C2.95185 157.746 2.99188 157.51 3.07057 157.287C3.26941 156.699 3.65906 156.194 4.17764 155.852L50.4655 129.13C50.5967 129.032 50.754 128.975 50.9176 128.966C51.0812 128.957 51.2437 128.997 51.3846 129.081C51.4649 129.141 51.5294 129.22 51.5725 129.311C51.658 129.474 51.701 129.656 51.6979 129.84Z" fill="#FFD44D"/>
<path opacity="0.12" d="M3.15404 193.256L27.3215 160.97L51.4471 165.231V168.643L2.95212 196.64L3.15404 193.256Z" fill="black"/>
<path opacity="0.05" d="M27.3215 160.97L3.20283 156.987L0.981737 156.277L0 195.505L3.25853 193.13L27.3215 160.97Z" fill="black"/>
<path opacity="0.05" d="M27.3216 160.97L51.4473 129.13L53.6684 125.864L54.6501 163.95L51.4473 165.231L27.3216 160.97Z" fill="black"/>
<path d="M347.194 43.3287V83.6008C347.188 83.8761 347.138 84.1487 347.047 84.4085C346.989 84.5723 346.922 84.7326 346.845 84.8889C346.601 85.3787 346.228 85.7927 345.766 86.0865L291.548 117.419C291.393 117.532 291.208 117.597 291.016 117.606C290.824 117.615 290.633 117.566 290.469 117.467C290.375 117.397 290.299 117.307 290.246 117.203C290.153 117.01 290.107 116.797 290.114 116.583V76.2761C290.117 76.0103 290.164 75.7469 290.253 75.4963C290.309 75.324 290.379 75.1564 290.462 74.995C290.707 74.5016 291.082 74.0849 291.548 73.7904L345.752 42.4723C345.906 42.3559 346.091 42.2883 346.283 42.2784C346.476 42.2684 346.667 42.3166 346.832 42.4166C346.927 42.4847 347.004 42.5757 347.054 42.6812C347.152 42.8827 347.2 43.1048 347.194 43.3287Z" fill="#DDB545"/>
<path d="M290.573 117.502L292.662 118.651L292.794 114.947L290.573 117.502Z" fill="#DDB545"/>
<path d="M346.685 42.354L348.941 43.5934L345.766 47.388L346.685 42.354Z" fill="#DDB545"/>
<path d="M349.296 44.4846V84.7567C349.291 85.0319 349.241 85.3045 349.15 85.5643C349.092 85.7281 349.024 85.8885 348.948 86.0448C348.7 86.5318 348.328 86.9449 347.869 87.2423L293.651 118.574C293.496 118.689 293.311 118.755 293.119 118.763C292.926 118.772 292.736 118.723 292.572 118.623C292.476 118.555 292.4 118.464 292.349 118.359C292.256 118.166 292.21 117.953 292.216 117.739V77.4319C292.22 77.1661 292.267 76.9027 292.356 76.6521C292.409 76.4787 292.479 76.3108 292.565 76.1508C292.81 75.6574 293.185 75.2407 293.651 74.9463L347.855 43.649C348.01 43.5329 348.196 43.4655 348.39 43.4556C348.583 43.4457 348.775 43.4936 348.941 43.5933C349.035 43.6634 349.111 43.7539 349.164 43.8579C349.256 44.0537 349.302 44.2682 349.296 44.4846Z" fill="#FFD44D"/>
<path opacity="0.12" d="M292.439 118.734L320.756 80.927L349.004 85.9192V89.9158L292.216 122.703L292.439 118.734Z" fill="black"/>
<path opacity="0.05" d="M320.756 80.9269L292.509 76.2689L289.912 75.4333L288.756 121.373L292.571 118.595L320.756 80.9269Z" fill="black"/>
<path opacity="0.05" d="M320.756 80.9272L349.004 43.649L351.601 39.8196L352.75 84.4225L349.004 85.9194L320.756 80.9272Z" fill="black"/>
<path d="M228.752 31.179C228.671 30.9806 228.536 30.8091 228.362 30.6847C228.013 30.5027 227.636 30.3781 227.248 30.3156L168.448 13.4172L109.648 98.2156C109.237 98.6726 108.886 99.1804 108.604 99.7265C108.424 100.069 108.273 100.425 108.151 100.792C107.97 101.328 107.874 101.89 107.866 102.456V187.992C107.856 188.449 107.951 188.901 108.144 189.315C108.257 189.535 108.419 189.725 108.618 189.872C108.965 190.086 109.368 190.19 109.776 190.171C110.183 190.153 110.575 190.012 110.901 189.768L226.001 123.316C227.277 122.461 228.234 121.207 228.724 119.751C228.921 119.199 229.024 118.618 229.03 118.031V32.495C229.041 32.0406 228.945 31.5901 228.752 31.179Z" fill="#DDB545"/>
<path d="M228.202 30.5872L231.815 32.7317L226.767 36.4358L228.202 30.5872Z" fill="#CEB95F"/>
<path d="M112.315 192.066L108.618 189.837L114.32 185.729L112.315 192.066Z" fill="#DDB545"/>
<path d="M168.448 13.4172L171.978 15.5409L231.815 32.7247L228.842 30.9632C227.694 30.4628 226.506 30.0576 225.291 29.7517L168.448 13.4172Z" fill="#C19B3D"/>
<path d="M232.553 34.6185V120.12C232.544 120.704 232.44 121.282 232.247 121.833C232.127 122.183 231.98 122.522 231.808 122.85C231.292 123.89 230.502 124.771 229.525 125.398L114.438 191.85C114.112 192.097 113.719 192.239 113.31 192.259C112.902 192.279 112.496 192.175 112.148 191.961C111.951 191.811 111.792 191.618 111.681 191.397C111.485 190.987 111.39 190.536 111.403 190.081V104.573C111.411 104.006 111.507 103.445 111.688 102.908C111.811 102.542 111.962 102.186 112.141 101.843C112.661 100.797 113.458 99.9132 114.445 99.2878L229.504 32.85L227.54 34.2008C228.459 33.6786 231.258 32.3139 231.815 32.7316C232.012 32.8816 232.171 33.0745 232.282 33.2956C232.476 33.7086 232.57 34.1622 232.553 34.6185Z" fill="#FFD44D"/>
<path opacity="0.12" d="M112.148 191.961L171.978 111.995L231.955 122.592V131.073L111.396 200.671L112.148 191.961Z" fill="black"/>
<path opacity="0.05" d="M171.978 111.995L112.009 102.101L106.501 100.332L104.05 197.851L112.148 191.961L171.978 111.995Z" fill="black"/>
<path opacity="0.05" d="M171.853 111.883L231.822 32.7456L237.33 24.6201L239.78 119.306L231.822 122.48L171.853 111.883Z" fill="black"/>
<path d="M112.134 101.843L171.978 15.5408L231.815 32.7316L171.978 111.995L112.134 101.843Z" fill="#FFD44D"/>
<path opacity="0.3" d="M231.815 32.7316L218.273 50.6744L171.978 111.995L125.69 104.141L112.134 101.843L125.69 82.2919L159.041 34.1938L171.978 15.5408L184.915 19.2588L218.273 28.8464L231.815 32.7316Z" fill="black"/>
<path d="M218.273 0V50.6743L171.978 111.995L125.69 104.141V53.4524L218.273 0Z" fill="#FAFBFF"/>
<path d="M156.479 75.719L133.635 88.9063V62.5317L156.479 49.3374V75.719Z" fill="#E9EAF2"/>
<path d="M183.404 60.1716L160.559 73.3659V46.9843L183.404 33.79V60.1716Z" fill="#E9EAF2"/>
<path d="M210.328 44.6308L187.477 57.8251V31.4435L210.328 18.2493V44.6308Z" fill="#E9EAF2"/>
<path d="M210.328 55.5832L133.635 99.8588V95.2704L210.328 50.9878V55.5832Z" fill="#E9EAF2"/>
<path d="M198.903 67.4753V72.0707L139.65 106.278L133.628 105.666V105.164L198.903 67.4753Z" fill="#E9EAF2"/>
<path d="M187.477 83.2595V87.8549L152.545 108.019L145.332 107.594L187.477 83.2595Z" fill="#E9EAF2"/>
<path d="M181.468 96.6211V99.4271L179.073 102.595L164.848 110.811L158.658 109.794L181.468 96.6211Z" fill="#E9EAF2"/>
<defs>
<linearGradient id="paint0_linear_128_2884" x1="183.285" y1="328.889" x2="183.285" y2="181.204" gradientUnits="userSpaceOnUse">
<stop offset="0.21" stop-color="white" stop-opacity="0"/>
<stop offset="1" stop-color="white" stop-opacity="0.2"/>
</linearGradient>
</defs>
</svg>
