<svg width="298" height="306" viewBox="0 0 298 306" fill="none" xmlns="http://www.w3.org/2000/svg">
<path d="M6.15013 230.932L131.655 304.2C133.277 305.147 135.121 305.646 136.999 305.646C138.877 305.646 140.721 305.147 142.343 304.2L292.12 217.727C293.736 216.799 295.078 215.461 296.012 213.849C296.945 212.236 297.437 210.405 297.437 208.542C297.437 206.679 296.945 204.848 296.012 203.235C295.078 201.623 293.736 200.285 292.12 199.357L165.059 126.92C163.455 125.999 161.637 125.515 159.787 125.515C157.937 125.515 156.119 125.999 154.514 126.92L6.19763 212.562C4.57936 213.486 3.23346 214.82 2.29576 216.43C1.35806 218.041 0.861749 219.87 0.856931 221.733C0.852113 223.596 1.33896 225.428 2.26832 227.043C3.19768 228.658 4.53666 230 6.15013 230.932Z" fill="#EDAB28"/>
<path d="M118.51 1.53395C102.063 11.2832 61.3681 35.3654 49.1964 42.4428C48.1587 43.046 47.2991 43.913 46.7047 44.9558C46.1104 45.9985 45.8024 47.18 45.8121 48.3802V215.471C45.5627 218.879 49.3745 222.038 52.557 220.221L120.992 181.26C123.747 179.68 125.504 177.46 125.504 174.289V5.51202C125.503 4.69482 125.286 3.8924 124.875 3.18622C124.464 2.48005 123.873 1.89527 123.163 1.49125C122.452 1.08724 121.648 0.878378 120.83 0.885876C120.013 0.893374 119.213 1.11697 118.51 1.53395V1.53395Z" fill="#172D51"/>
<path d="M125.041 3.56455L103.31 16.0806V20.7356C103.31 21.1278 103.207 21.5133 103.011 21.8531C102.816 22.1929 102.534 22.475 102.194 22.6712L85.569 32.3017C85.3455 32.4307 85.092 32.4987 84.8339 32.4989C84.5759 32.4991 84.3222 32.4315 84.0985 32.3028C83.8748 32.1741 83.6889 31.9889 83.5593 31.7657C83.4297 31.5425 83.3611 31.2891 83.3603 31.031V27.623L51.9989 45.9577C51.7018 46.1334 51.4557 46.3835 51.285 46.6834C51.1142 46.9833 51.0246 47.3226 51.0251 47.6677V214.675C51.0225 214.914 51.0831 215.15 51.2008 215.358C51.3185 215.565 51.4892 215.739 51.6954 215.859C51.9016 215.98 52.1361 216.044 52.3751 216.044C52.614 216.045 52.8488 215.982 53.0557 215.863L125.492 173.873C125.608 175.162 125.373 176.458 124.813 177.624C124.252 178.791 123.388 179.784 122.31 180.5C118.557 182.875 52.557 220.233 52.557 220.233C52.557 220.233 47.3439 222.608 45.8121 216.362V48.3683C45.808 47.2707 46.0667 46.188 46.5666 45.2108C47.0666 44.2336 47.7932 43.3904 48.6858 42.7515C51.7139 40.5547 118.557 1.48645 118.557 1.48645C119.118 1.18837 119.732 1.00562 120.364 0.948976C120.996 0.892335 121.633 0.962959 122.238 1.15668C122.842 1.3504 123.402 1.66328 123.883 2.07685C124.365 2.49042 124.758 2.99628 125.041 3.56455Z" fill="#688AFC"/>
<path d="M198.047 207.349C198.178 208.017 198.161 208.705 197.997 209.366C197.833 210.027 197.526 210.643 197.097 211.172C195.649 212.728 190.139 217.608 189.616 218.665C189.094 219.722 188.358 222.608 189.616 223.605C190.875 224.603 193.321 224.722 196.314 223.605C200.46 221.705 204.343 219.279 207.868 216.385C209.198 214.937 207.868 200.057 207.868 200.057C207.868 200.057 200.137 198.169 197.537 200.057L198.047 207.349Z" fill="#F96156"/>
<path d="M189.023 220.696C188.876 221.187 188.854 221.708 188.96 222.21C189.066 222.712 189.296 223.179 189.628 223.57C190.887 224.567 193.333 224.686 196.326 223.57C200.471 221.67 204.355 219.243 207.88 216.35C208.339 215.292 208.535 214.139 208.45 212.989C203.439 217.775 192.846 225.755 189.023 220.696Z" fill="#391A3A"/>
<path d="M201.218 213.013C200.759 212.322 200.118 211.772 199.366 211.422C198.484 211.122 197.547 211.025 196.623 211.137C195.863 211.137 195.863 212.324 196.623 212.324C197.277 212.181 197.958 212.226 198.588 212.453C199.218 212.68 199.772 213.08 200.185 213.607C200.684 214.212 201.681 213.619 201.218 213.013Z" fill="#391A3A"/>
<path d="M199.496 215.067C198.886 214.346 198.094 213.801 197.203 213.488C196.312 213.174 195.353 213.105 194.426 213.286C193.678 213.44 193.998 214.58 194.746 214.474C195.471 214.35 196.215 214.423 196.902 214.684C197.589 214.945 198.193 215.385 198.653 215.958C199.211 216.469 200.054 215.625 199.496 215.067Z" fill="#391A3A"/>
<path d="M216.382 216.457C216.513 217.125 216.496 217.813 216.332 218.474C216.168 219.135 215.861 219.751 215.432 220.28C213.984 221.836 208.474 226.716 207.951 227.773C207.429 228.83 206.692 231.716 207.951 232.713C209.21 233.711 211.656 233.829 214.648 232.713C218.794 230.813 222.678 228.387 226.203 225.493C227.533 224.045 226.203 209.165 226.203 209.165C226.203 209.165 218.472 207.277 215.872 209.165L216.382 216.457Z" fill="#F96156"/>
<path d="M207.357 229.792C207.211 230.284 207.189 230.804 207.295 231.306C207.401 231.808 207.63 232.275 207.963 232.666C209.222 233.663 211.668 233.782 214.66 232.666C218.806 230.766 222.69 228.339 226.215 225.446C226.686 224.383 226.889 223.221 226.808 222.062C221.773 226.871 211.181 234.863 207.357 229.792Z" fill="#391A3A"/>
<path d="M219.553 222.121C219.093 221.43 218.452 220.88 217.7 220.53C216.819 220.23 215.881 220.133 214.957 220.245C214.197 220.245 214.197 221.432 214.957 221.432C215.612 221.289 216.293 221.334 216.923 221.561C217.553 221.788 218.106 222.188 218.52 222.715C218.983 223.32 220.016 222.727 219.553 222.121Z" fill="#391A3A"/>
<path d="M217.867 224.175C217.256 223.454 216.465 222.909 215.573 222.595C214.682 222.282 213.723 222.213 212.796 222.394C212.048 222.548 212.369 223.688 213.117 223.582C213.841 223.458 214.585 223.531 215.272 223.792C215.959 224.053 216.564 224.493 217.023 225.066C217.546 225.624 218.389 224.733 217.867 224.175Z" fill="#391A3A"/>
<path d="M199.603 115.117C195.471 124.57 193.194 134.729 192.894 145.041C192.633 161.405 194.568 205.377 194.568 205.377C194.568 205.377 199.104 209.735 209.067 208.204V147.191C209.067 147.191 212.559 148.438 212.559 151.062C212.559 153.686 215.741 216.065 215.741 216.065C215.741 216.065 217.522 219.378 230.561 214.319C230.561 214.319 232.342 132.608 222.771 116.565" fill="#5B434D"/>
<path d="M151.724 141.835V235.884L178.786 251.369L209.352 233.319V139.258" fill="#688AFC"/>
<path d="M151.724 141.835L183.133 123.952L209.352 139.258L178.786 157.32L151.724 141.835Z" fill="#688AFC"/>
<path d="M178.786 157.32V251.369L209.352 233.319V139.258L178.786 157.32Z" fill="#688AFC"/>
<path opacity="0.1" d="M151.724 141.835V235.884L178.786 251.369L209.352 233.319V139.258" fill="#2E90A0"/>
<path d="M151.724 141.835L183.133 123.952L209.352 139.258L178.786 157.32L151.724 141.835Z" fill="#688AFC"/>
<path opacity="0.47" d="M178.786 157.32V251.369L209.352 233.319V139.258L178.786 157.32Z" fill="#2E90A0"/>
<path d="M178.264 140.992L162.969 148.271V242.32L86.5546 200.984" stroke="#1B1464" stroke-width="1.015" stroke-miterlimit="10"/>
<path d="M192.811 152.344L215.61 138.961L179.38 118.584L158.184 131.979L192.811 152.344Z" fill="#5B434D"/>
<path d="M198.237 119.439C204.472 121.6 210.837 121.719 217.356 121.339C219.945 118.617 222.117 115.528 223.804 112.172C229.373 100.653 231.38 81.2972 231.38 81.2972C231.38 81.2972 223.068 74.8729 217.558 73.3292C212.048 71.7855 199.876 74.5167 197.881 77.8535C195.886 81.1904 195.15 96.2002 197.881 117.539C197.964 117.919 198.178 119.071 198.237 119.439Z" fill="#A5DD73"/>
<path d="M208.747 75.3479C206.799 75.7636 206.431 70.3724 207.262 69.8736C208.094 69.3749 217.213 69.3155 218.615 69.9449C221.69 71.3105 218.615 75.8823 218.615 75.8823" fill="#A5DD73"/>
<path d="M220.467 52.7976C218.71 52.4889 218.769 49.5558 215.503 48.2258C212.238 46.8958 208.379 48.8077 206.954 49.8408C205.529 50.8739 204.484 48.772 202.916 50.387C201.349 52.002 202.346 54.472 201.432 55.3507L201.301 55.4457C200.906 56.1102 200.686 56.8645 200.663 57.6375C200.64 58.4104 200.815 59.1764 201.171 59.8631C201.887 60.8228 202.73 61.6816 203.676 62.4162L218.33 70.0636C220.099 68.8168 223.483 57.0013 223.293 55.5882C223.226 54.8649 222.905 54.1885 222.389 53.6781C221.872 53.1677 221.191 52.8559 220.467 52.7976V52.7976Z" fill="#200904"/>
<path d="M204.389 57.2744C203.724 57.9869 205.921 72.118 210.207 72.6167C214.494 73.1155 219.565 67.4393 220.016 65.7531C220.467 64.0668 220.206 55.0657 218.46 54.1632C216.715 53.2607 208.414 52.9401 204.389 57.2744Z" fill="#F67770"/>
<path d="M206.395 53.2014C206.395 53.2014 205.552 56.4907 210.682 57.1082C215.812 57.7257 216.168 58.8775 216.774 60.6706C217.962 64.055 221.524 67.9855 222.712 57.8326C222.771 57.3457 219.078 50.387 215.088 49.8408C211.098 49.2946 206.395 53.2014 206.395 53.2014Z" fill="#200904"/>
<path d="M217.237 62.4756C217.237 62.4756 218.852 59.6969 220.099 61.015C221.346 62.3331 220.443 65.4324 218.757 66.4062" fill="#F67770"/>
<path d="M178.335 121.125C178.335 121.125 174.155 124.427 173.051 125.092C171.947 125.757 177.801 127.657 177.896 128.31C177.991 128.963 183.62 123.88 183.62 123.88L178.335 121.125Z" fill="#F67770"/>
<path d="M192.811 152.344L183.893 129.438L149.266 108.989L158.184 131.979L192.811 152.344Z" fill="#172D51"/>
<path d="M197.881 77.8535C197.881 77.8535 195.625 81.0835 194.58 89.5977C193.535 98.112 190.531 105.522 188.797 108.206C187.063 110.889 175.557 121.648 176.032 122.717C176.507 123.785 179.594 125.685 181.601 126.398C187.212 122.885 192.23 118.504 196.468 113.419C202.406 105.854 202.204 92.4477 202.204 92.4477" fill="#A5DD73"/>
<path d="M201.764 143.557C201.785 142.656 201.97 141.767 202.311 140.933C202.623 140.5 203.029 140.143 203.498 139.888C204.069 139.527 204.616 139.131 205.137 138.7L209.174 134.425L203.082 133.511C201.741 134.402 200.353 135.222 198.926 135.969C198.653 135.969 194.77 138.344 194.96 138.938C195.15 139.531 197.762 137.536 197.762 137.536C196.309 138.185 194.911 138.951 193.583 139.828C193.108 140.386 192.49 143.224 192.918 143.616C193.345 144.008 194.01 143.616 194.449 143.403C194.889 143.189 194.153 144.59 194.829 144.816C195.337 144.993 195.871 145.085 196.409 145.089C196.671 145.226 196.97 145.279 197.264 145.238C197.558 145.198 197.832 145.067 198.047 144.863C198.841 143.899 199.431 142.784 199.781 141.586C199.781 141.586 199.627 144.994 200.601 144.768C200.945 144.638 201.361 144.163 201.764 143.557Z" fill="#F67770"/>
<path d="M197.489 138.534C196.75 138.86 196.071 139.31 195.482 139.864C194.733 140.81 194.272 141.952 194.153 143.153C194.081 143.486 194.616 143.557 194.675 143.224C194.766 142.032 195.26 140.905 196.076 140.03C196.67 139.557 197.32 139.158 198.012 138.843C197.824 138.765 197.648 138.661 197.489 138.534V138.534Z" fill="#5B434D"/>
<path d="M198.926 139.14C198.33 139.568 197.781 140.057 197.288 140.6C196.48 141.633 196.397 143.509 196.1 144.744C196.017 145.077 196.551 145.148 196.623 144.816C196.991 143.284 197.109 141.55 198.273 140.422C198.701 140.006 199.152 139.603 199.615 139.235C199.384 139.216 199.154 139.184 198.926 139.14V139.14Z" fill="#5B434D"/>
<path d="M231.392 81.2972C231.392 81.2972 233.767 81.8078 233.458 90.4408C233.15 99.0739 231.012 116.197 227.093 120.354C223.175 124.51 205.196 139.353 205.196 139.353C205.196 139.353 199.627 136.978 200.066 134.876C200.506 132.775 219.541 114.001 219.541 114.001C219.541 114.001 222.415 75.811 231.392 81.2972Z" fill="#A5DD73"/>
<path d="M199.092 84.3134L197.762 119.202C197.762 119.962 198.95 119.962 198.95 119.202L200.28 84.3134C200.316 83.6009 199.128 83.6128 199.092 84.3134Z" fill="#75A542"/>
<path d="M219.624 93.1958L217.795 104.406C217.178 108.206 217.035 112.635 215.159 116.079C213.283 119.522 210.409 122.182 207.963 125.02L199.876 134.52C199.377 135.102 200.221 135.945 200.719 135.363L209.186 125.436C211.561 122.657 214.411 119.926 216.18 116.708C217.95 113.49 218.175 109.464 218.757 105.878L220.764 93.5402C220.871 92.7564 219.743 92.4358 219.624 93.1958Z" fill="#75A542"/>
<path d="M59.8006 70.028V74.7542L114.746 42.799V38.9159L59.8006 70.028Z" fill="#8CC63F"/>
<path d="M88.6565 67.2612L59.8006 83.6009V88.3271L88.6565 71.5361V67.2612Z" fill="#F7931E"/>
<path d="M92.7058 64.9693V69.1849L98.8926 65.5868V61.4662L92.7058 64.9693Z" fill="#00A99D"/>
<path d="M102.93 59.1744V63.2356L114.746 56.3719V52.477L102.93 59.1744Z" fill="#F15A24"/>
<path d="M85.3197 80.8578L59.8006 95.3095V100.036L85.3197 85.1922V80.8578Z" fill="#F15A24"/>
<path d="M60.5131 108.431V113.157L115.458 81.2022V77.3073L60.5131 108.431Z" fill="#8CC63F"/>
<path d="M78.3016 111.934V116.387L91.5777 108.657V104.406L78.3016 111.934Z" fill="#00A99D"/>
<path d="M74.2523 114.226L60.5131 122.004V126.73L74.2523 118.739V114.226Z" fill="#F15A24"/>
<path d="M95.627 102.114V106.306L115.458 94.7633V90.8802L95.627 102.114Z" fill="#F7931E"/>
<path d="M106.398 107.719L60.5131 133.713V138.439L106.398 111.744V107.719Z" fill="#F7931E"/>
<path d="M110.447 105.427V109.393L115.458 106.472V102.589L110.447 105.427Z" fill="#00A99D"/>
<path d="M60.5131 147.927V152.641L115.458 120.686V116.803L60.5131 147.927Z" fill="#00A99D"/>
<path d="M80.8072 150.005V154.422L115.458 134.259V130.376L80.8072 150.005Z" fill="#F7931E"/>
<path d="M76.7579 152.297L60.5131 161.488V166.214L76.7579 156.774V152.297Z" fill="#F15A24"/>
<path d="M94.4989 153.959L60.5131 173.197V177.923L94.4989 158.163V153.959Z" fill="#00A99D"/>
<path d="M98.5482 151.668V155.812L115.458 145.968V142.085L98.5482 151.668Z" fill="#8CC63F"/>
<path d="M131.94 262.78L140.692 273.337L139.54 274.453L130.788 263.908L131.94 262.78Z" fill="white"/>
<path d="M109.568 268.255C109.802 268.85 110.218 269.357 110.756 269.703C110.549 269.937 110.398 270.214 110.316 270.515C110.233 270.815 110.221 271.131 110.281 271.437L109.568 268.255Z" fill="#C46200"/>
<path d="M128.936 268.243L131.133 269.751L129.957 274.299L135.206 272.53L137.403 274.026L128.592 276.9L127.083 275.866L128.936 268.243Z" fill="white"/>
<path d="M164.739 269.252C164.756 269.521 164.72 269.791 164.632 270.046C164.545 270.3 164.407 270.535 164.228 270.736C164.046 270.945 163.834 271.125 163.599 271.271L142.224 284.689C141.424 285.153 140.494 285.345 139.576 285.236C138.914 285.176 138.272 284.982 137.688 284.666L111.076 269.905L110.744 269.703C110.206 269.357 109.79 268.85 109.556 268.255C109.383 267.775 109.387 267.249 109.568 266.772C109.749 266.295 110.094 265.899 110.542 265.654L130.729 252.592C131.533 252.115 132.472 251.914 133.401 252.022C134.018 252.078 134.618 252.251 135.17 252.532L162.969 266.877C163.447 267.083 163.862 267.41 164.173 267.827C164.483 268.244 164.679 268.736 164.739 269.252V269.252ZM139.528 274.453L140.716 273.337L131.976 262.792L130.788 263.908L139.54 274.453M128.592 276.9L137.403 274.026L135.206 272.518L129.957 274.311L131.145 269.763L128.948 268.255L127.06 275.866L128.568 276.9M142.818 268.706L144.682 261.094L143.162 260.061L134.363 262.935L136.56 264.431L141.82 262.65L140.633 267.21L142.829 268.718" fill="#F7931E"/>
<path d="M143.174 260.061L134.375 262.923L136.56 264.419L141.832 262.638L140.633 267.198L142.829 268.706L144.694 261.082L143.174 260.061Z" fill="white"/>
<path d="M164.24 270.748C164.419 270.547 164.557 270.312 164.644 270.058C164.732 269.803 164.768 269.533 164.75 269.264L165.475 272.316C165.255 271.667 164.819 271.113 164.24 270.748V270.748Z" fill="#C46200"/>
<path d="M164.24 270.748C164.802 271.121 165.22 271.674 165.427 272.316C165.452 272.398 165.472 272.481 165.487 272.565C165.554 273.007 165.483 273.459 165.283 273.859C165.084 274.259 164.765 274.587 164.37 274.798L142.996 288.216C142.196 288.683 141.267 288.879 140.348 288.774C139.685 288.712 139.042 288.514 138.46 288.193L111.848 273.432C111.451 273.239 111.101 272.961 110.822 272.619C110.543 272.276 110.342 271.877 110.233 271.449C110.174 271.143 110.186 270.827 110.268 270.527C110.351 270.226 110.501 269.948 110.708 269.715L111.041 269.917L137.747 284.666C138.331 284.982 138.974 285.176 139.635 285.236C140.554 285.345 141.483 285.153 142.283 284.689L163.658 271.271C163.876 271.125 164.072 270.949 164.24 270.748Z" fill="#C46200"/>
</svg>
