<svg width="303" height="381" viewBox="0 0 303 381" fill="none" xmlns="http://www.w3.org/2000/svg">
<path opacity="0.4" d="M16.2764 364.083L0 354.772L24.3536 340.835L40.6224 350.139L16.2764 364.083Z" fill="#D6D8E5"/>
<path d="M16.6117 345.315L3.13184 337.535L16.6117 329.755L30.0839 337.535L16.6117 345.315Z" fill="#D6D8E5"/>
<path d="M16.6117 360.876L3.13184 353.096V337.535L16.6117 345.315V360.876Z" fill="#B1B6C4"/>
<path d="M30.0916 353.096L16.6118 360.876V345.315L30.0916 337.535V353.096Z" fill="#C4C7D6"/>
<path d="M34.7244 348.234C35.8901 348.559 37.1368 348.408 38.1915 347.815C39.0297 347.815 43.5713 345.902 44.1885 347.533C44.7295 348.958 42.7636 350.284 41.712 350.535C39.426 351.091 37.7191 352.234 36.7971 352.433C36.4459 352.558 36.0693 352.597 35.7 352.543C35.3308 352.49 34.9801 352.348 34.6787 352.128C34.0234 351.442 34.0843 349.049 34.7244 348.234Z" fill="#38226D"/>
<path d="M36.7971 351.998C37.7192 351.8 39.4184 350.657 41.7121 350.101C42.5884 349.888 44.1047 348.927 44.2571 347.777C44.4629 349.095 42.6874 350.261 41.7121 350.497C39.4261 351.053 37.7192 352.196 36.7971 352.395C36.446 352.52 36.0693 352.559 35.7001 352.505C35.3308 352.452 34.9802 352.31 34.6788 352.09C34.5335 351.936 34.4311 351.747 34.3816 351.541C34.7206 351.801 35.1157 351.977 35.5351 352.056C35.9546 352.136 36.3868 352.116 36.7971 351.998V351.998Z" fill="#9C73FF"/>
<path d="M26.5408 343.837C27.7064 344.162 28.9532 344.011 30.0079 343.418C30.8461 343.418 35.3419 341.505 35.9972 343.136C36.5383 344.561 34.5723 345.887 33.5283 346.138C31.2423 346.695 29.5355 347.838 28.6134 348.036C28.2623 348.162 27.8856 348.2 27.5164 348.147C27.1471 348.093 26.7965 347.951 26.4951 347.731C25.8397 347.083 25.9083 344.691 26.5408 343.837Z" fill="#38226D"/>
<path d="M28.6129 347.639C29.535 347.441 31.2342 346.298 33.5279 345.742C34.4042 345.529 35.9205 344.569 36.0729 343.418C36.2787 344.736 34.5032 345.902 33.5279 346.138C31.2418 346.695 29.535 347.838 28.6129 348.036C28.2618 348.162 27.8851 348.2 27.5159 348.147C27.1466 348.093 26.796 347.951 26.4946 347.731C26.351 347.579 26.2487 347.393 26.1974 347.19C26.5376 347.447 26.933 347.621 27.3522 347.699C27.7714 347.777 28.203 347.757 28.6129 347.639V347.639Z" fill="#9C73FF"/>
<path d="M13.7923 338.191C17.3356 339.715 20.6503 339.989 23.4012 338.526L26.2206 336.895C26.3882 340.538 26.5482 344.035 26.5482 344.035C26.5482 344.035 28.7123 345.674 30.3582 344.21C30.3582 344.21 30.7088 339.105 31.0669 334.076L34.0235 332.369C33.9522 332.638 33.9139 332.914 33.9092 333.192C33.9092 334.144 34.595 348.341 34.595 348.341C34.595 348.341 36.7743 349.636 38.4583 348.181C38.4583 348.181 39.5937 331.729 39.8528 329.13C40.1424 326.174 36.8657 324.718 34.7855 325.473L31.6156 326.654L31.768 324.825C32.0651 321.869 28.7809 320.413 26.7083 321.168C24.8185 321.861 12.0473 326.646 12.0473 326.646C12.1268 327.876 12.2769 329.099 12.4969 330.312L7.45245 329.885C7.18575 334.602 10.2566 336.636 13.7923 338.191ZM22.6011 330.014L25.9767 328.071C25.9205 328.309 25.8848 328.551 25.8701 328.795L22.6011 330.014Z" fill="#8C50FF"/>
<path d="M4.72449 315.468C4.72449 315.468 5.13597 321.739 5.95893 322.646C6.78189 323.553 9.57082 324.17 9.57082 324.17L11.7121 327.66C11.7121 327.66 9.7537 316.473 9.32698 316.23C8.90026 315.986 4.72449 315.468 4.72449 315.468Z" fill="#FFCEA9"/>
<path d="M8.84686 308.496C8.3276 308.253 7.73775 308.208 7.18786 308.37C6.63797 308.531 6.16578 308.887 5.85981 309.372C5.0978 310.675 4.25198 315.163 4.17578 315.925C4.4925 316.353 4.91206 316.694 5.39558 316.916C5.87911 317.139 6.41095 317.235 6.94185 317.198L8.84686 308.496Z" fill="#EDEDED"/>
<path d="M9.6012 308.61C10.6832 308.663 11.491 308.937 11.6281 308.61C11.7443 308.051 11.8257 307.486 11.872 306.918C11.75 306.598 11.6434 306.263 11.6434 306.263C10.2794 305.425 9.85266 303.977 9.66978 302.239C9.36498 299.306 10.9499 296.745 13.876 296.441C16.6345 296.151 18.6614 298.086 19.21 300.746C19.4996 302.057 20.0787 304.556 19.2939 306.697C18.8595 307.901 18.2956 308.861 17.7699 309.044C17.224 309.033 16.6793 308.987 16.1392 308.907V308.907C16.1392 308.907 15.9944 309.722 15.8953 310.24C15.7963 310.759 15.8268 311.041 16.8707 311.681C17.9146 312.321 15.301 313.639 13.5941 313.509C11.8872 313.38 9.96696 312.351 9.44118 311.223C8.80871 309.989 8.85443 308.541 9.6012 308.61Z" fill="#FFCEA9"/>
<path d="M37.079 327.774C37.0784 327.929 37.0372 328.08 36.9597 328.214C36.8821 328.348 36.7709 328.459 36.637 328.536L28.3693 333.306C28.2352 333.385 28.0826 333.426 27.9273 333.426C27.772 333.426 27.6195 333.385 27.4854 333.306L15.9029 326.616C15.768 326.54 15.6559 326.429 15.5782 326.295C15.5005 326.161 15.46 326.009 15.461 325.854V325.793L37.079 327.774Z" fill="#E5E5E5"/>
<path d="M36.6372 328.536L28.3695 333.306C28.2363 333.387 28.0833 333.429 27.9275 333.428V327.774H37.0715C37.0717 327.928 37.0317 328.079 36.9555 328.213C36.8794 328.346 36.7696 328.458 36.6372 328.536V328.536Z" fill="#E5E5E5"/>
<path d="M28.2401 332.872C28.1468 332.928 28.0401 332.957 27.9315 332.957C27.8228 332.957 27.7162 332.928 27.6229 332.872L15.5756 325.922C15.4232 325.831 15.4232 325.686 15.5756 325.602L24.4453 320.474L37.0793 327.774L28.2401 332.872Z" fill="#F4F4F4"/>
<path d="M20.521 327.774L20.582 327.805L24.4453 330.037L26.5637 328.81L26.6246 328.78L22.7003 326.517L20.521 327.774Z" fill="#BFBFBF"/>
<path d="M20.5818 327.804L24.4451 330.037L26.5635 328.81L22.7002 326.585L20.5818 327.804Z" fill="#E5E5E5"/>
<path d="M33.8024 328.132L34.3586 328.452C34.3855 328.467 34.4156 328.475 34.4463 328.475C34.4769 328.475 34.507 328.467 34.5339 328.452L35.0673 328.147C35.1206 328.147 35.1283 328.071 35.0673 328.048L34.511 327.721C34.4836 327.708 34.4537 327.701 34.4234 327.701C34.3931 327.701 34.3632 327.708 34.3358 327.721L33.8024 328.033C33.7643 328.064 33.7567 328.109 33.8024 328.132Z" fill="#3A2C6D"/>
<path d="M33.0177 327.66L33.574 327.98C33.6008 327.995 33.631 328.002 33.6616 328.002C33.6922 328.002 33.7223 327.995 33.7492 327.98L34.2826 327.675C34.336 327.675 34.336 327.599 34.2826 327.576L33.7264 327.256C33.6995 327.241 33.6694 327.234 33.6387 327.234C33.6081 327.234 33.578 327.241 33.5511 327.256L33.0177 327.561C32.9796 327.607 32.972 327.66 33.0177 327.66Z" fill="#3A2C6D"/>
<path d="M32.2251 327.225L32.7814 327.546C32.8101 327.559 32.8413 327.565 32.8728 327.565C32.9043 327.565 32.9355 327.559 32.9642 327.546L33.49 327.241C33.5434 327.241 33.551 327.165 33.49 327.134L32.9338 326.814C32.9069 326.799 32.8768 326.792 32.8461 326.792C32.8155 326.792 32.7854 326.799 32.7585 326.814L32.2251 327.119C32.187 327.149 32.1794 327.195 32.2251 327.225Z" fill="#3A2C6D"/>
<path d="M31.4403 326.768L31.9966 327.088C32.024 327.101 32.0539 327.108 32.0842 327.108C32.1145 327.108 32.1444 327.101 32.1718 327.088L32.7052 326.784C32.7586 326.784 32.7662 326.707 32.7052 326.677L32.149 326.357C32.1203 326.344 32.0891 326.337 32.0575 326.337C32.026 326.337 31.9948 326.344 31.9661 326.357L31.4403 326.662C31.4022 326.692 31.3946 326.738 31.4403 326.768Z" fill="#3A2C6D"/>
<path d="M30.6477 326.311L31.2116 326.631C31.2385 326.646 31.2686 326.654 31.2992 326.654C31.3298 326.654 31.36 326.646 31.3868 326.631L31.9126 326.326C31.966 326.326 31.9736 326.25 31.9126 326.227L31.3564 325.9C31.329 325.887 31.299 325.88 31.2687 325.88C31.2384 325.88 31.2085 325.887 31.1811 325.9L30.6477 326.212C30.6096 326.243 30.602 326.288 30.6477 326.311Z" fill="#3A2C6D"/>
<path d="M29.8629 325.854L30.4192 326.182C30.4466 326.195 30.4765 326.201 30.5068 326.201C30.5371 326.201 30.567 326.195 30.5944 326.182L31.1278 325.869C31.1812 325.869 31.1888 325.793 31.1278 325.77L30.5716 325.45C30.5433 325.436 30.512 325.428 30.4801 325.428C30.4483 325.428 30.4169 325.436 30.3887 325.45L29.8629 325.755C29.8248 325.786 29.8172 325.831 29.8629 325.854Z" fill="#3A2C6D"/>
<path d="M29.0779 325.374L29.6341 325.694C29.6615 325.707 29.6915 325.714 29.7218 325.714C29.7521 325.714 29.782 325.707 29.8094 325.694L30.3428 325.389C30.3961 325.389 30.3961 325.313 30.3428 325.283L29.7865 324.962C29.7591 324.95 29.7292 324.943 29.6989 324.943C29.6686 324.943 29.6387 324.95 29.6113 324.962L29.0779 325.267C29.0321 325.328 29.0321 325.374 29.0779 325.374Z" fill="#3A2C6D"/>
<path d="M28.2853 324.947L28.8415 325.267C28.8684 325.282 28.8986 325.289 28.9292 325.289C28.9598 325.289 28.9899 325.282 29.0168 325.267L29.5502 324.962C29.6035 324.962 29.6112 324.886 29.5502 324.863L28.9939 324.536C28.9665 324.523 28.9366 324.516 28.9063 324.516C28.876 324.516 28.8461 324.523 28.8187 324.536L28.2853 324.848C28.2472 324.878 28.2396 324.924 28.2853 324.947Z" fill="#3A2C6D"/>
<path d="M27.5007 324.49L28.0569 324.81C28.0838 324.825 28.1139 324.832 28.1446 324.832C28.1752 324.832 28.2053 324.825 28.2322 324.81L28.7656 324.505C28.8189 324.505 28.8189 324.429 28.7656 324.406L28.1941 324.078C28.1672 324.064 28.1371 324.056 28.1065 324.056C28.0758 324.056 28.0457 324.064 28.0188 324.078L27.4854 324.383C27.4321 324.421 27.4321 324.467 27.5007 324.49Z" fill="#3A2C6D"/>
<path d="M26.7081 324.04L27.2643 324.36C27.293 324.373 27.3242 324.38 27.3558 324.38C27.3873 324.38 27.4185 324.373 27.4472 324.36L27.973 324.056C28.0263 324.056 28.0339 323.979 27.973 323.949L27.432 323.621C27.4051 323.607 27.375 323.599 27.3443 323.599C27.3137 323.599 27.2836 323.607 27.2567 323.621L26.7233 323.926C26.67 323.964 26.67 324.01 26.7081 324.04Z" fill="#3A2C6D"/>
<path d="M25.9078 323.583L26.4641 323.903C26.4915 323.916 26.5214 323.923 26.5517 323.923C26.582 323.923 26.6119 323.916 26.6394 323.903L27.1728 323.598C27.2261 323.598 27.2337 323.522 27.1728 323.492L26.6698 323.164C26.6411 323.151 26.6099 323.144 26.5784 323.144C26.5469 323.144 26.5157 323.151 26.487 323.164L25.9612 323.469C25.9078 323.507 25.9078 323.553 25.9078 323.583Z" fill="#3A2C6D"/>
<path d="M25.1463 323.126L25.7102 323.446C25.737 323.461 25.7672 323.468 25.7978 323.468C25.8284 323.468 25.8585 323.461 25.8854 323.446L26.4188 323.141C26.4645 323.141 26.4722 323.065 26.4188 323.042L25.8626 322.714C25.8351 322.702 25.8052 322.695 25.7749 322.695C25.7446 322.695 25.7147 322.702 25.6873 322.714L25.1539 323.027C25.0929 323.088 25.0929 323.088 25.1463 323.126Z" fill="#3A2C6D"/>
<path d="M24.3843 322.669L24.9405 322.996C24.9679 323.009 24.9979 323.016 25.0282 323.016C25.0585 323.016 25.0884 323.009 25.1158 322.996L25.6492 322.684C25.7025 322.684 25.7101 322.608 25.6492 322.585L25.0929 322.265C25.0647 322.25 25.0333 322.243 25.0015 322.243C24.9696 322.243 24.9383 322.25 24.91 322.265L24.3843 322.57C24.3081 322.6 24.3004 322.646 24.3843 322.669Z" fill="#3A2C6D"/>
<path d="M23.1802 321.998L24.1175 322.539C24.1449 322.552 24.1748 322.559 24.2051 322.559C24.2354 322.559 24.2653 322.552 24.2927 322.539L24.8261 322.234C24.8795 322.234 24.8795 322.158 24.8261 322.128L23.8965 321.564C23.8691 321.551 23.8391 321.544 23.8088 321.544C23.7786 321.544 23.7486 321.551 23.7212 321.564L23.1878 321.876C23.1798 321.876 23.1718 321.877 23.1642 321.879C23.1566 321.882 23.1496 321.886 23.1436 321.891C23.1376 321.897 23.1327 321.903 23.1291 321.91C23.1256 321.917 23.1235 321.925 23.123 321.933C23.1225 321.941 23.1236 321.949 23.1262 321.957C23.1288 321.964 23.1329 321.971 23.1382 321.977C23.1435 321.983 23.15 321.988 23.1572 321.992C23.1644 321.995 23.1722 321.998 23.1802 321.998V321.998Z" fill="#3A2C6D"/>
<path d="M31.8668 327.896L32.4307 328.216C32.4576 328.231 32.4877 328.238 32.5183 328.238C32.5489 328.238 32.5791 328.231 32.6059 328.216L33.1393 327.911C33.1851 327.911 33.1927 327.835 33.1393 327.812L32.5831 327.492C32.5562 327.478 32.5261 327.47 32.4955 327.47C32.4648 327.47 32.4347 327.478 32.4078 327.492L31.8744 327.797C31.8287 327.827 31.8287 327.873 31.8668 327.896Z" fill="#3A2C6D"/>
<path d="M31.0823 327.439L31.6385 327.767C31.666 327.779 31.6959 327.786 31.7262 327.786C31.7565 327.786 31.7864 327.779 31.8138 327.767L32.3472 327.454C32.4005 327.454 32.4082 327.378 32.3472 327.355L31.7909 327.035C31.7627 327.02 31.7313 327.013 31.6995 327.013C31.6677 327.013 31.6363 327.02 31.6081 327.035L31.0823 327.34C31.0442 327.37 31.0366 327.416 31.0823 327.439Z" fill="#3A2C6D"/>
<path d="M30.2896 326.989L30.8458 327.309C30.8745 327.323 30.9057 327.329 30.9373 327.329C30.9688 327.329 31 327.323 31.0287 327.309L31.5545 327.005C31.6078 327.005 31.6154 326.928 31.5545 326.898L30.9982 326.578C30.9708 326.565 30.9409 326.558 30.9106 326.558C30.8803 326.558 30.8504 326.565 30.823 326.578L30.2896 326.883C30.2515 326.898 30.2438 326.959 30.2896 326.989Z" fill="#3A2C6D"/>
<path d="M29.5047 326.532L30.061 326.852C30.0884 326.865 30.1183 326.872 30.1486 326.872C30.1789 326.872 30.2089 326.865 30.2363 326.852L30.7697 326.547C30.823 326.547 30.823 326.471 30.7697 326.441L30.2134 326.121C30.186 326.108 30.1561 326.101 30.1258 326.101C30.0955 326.101 30.0656 326.108 30.0381 326.121L29.5047 326.425C29.459 326.456 29.459 326.502 29.5047 326.532Z" fill="#3A2C6D"/>
<path d="M28.7199 326.075L29.2761 326.403C29.3035 326.415 29.3334 326.422 29.3637 326.422C29.394 326.422 29.424 326.415 29.4514 326.403L29.9848 326.09C30.0381 326.09 30.0457 326.014 29.9848 325.991L29.4285 325.671C29.4003 325.656 29.3689 325.649 29.3371 325.649C29.3052 325.649 29.2739 325.656 29.2456 325.671L28.7199 325.976C28.6818 326.006 28.6741 326.052 28.7199 326.075Z" fill="#3A2C6D"/>
<path d="M27.9272 325.625L28.4835 325.945C28.5122 325.958 28.5434 325.965 28.575 325.965C28.6065 325.965 28.6377 325.958 28.6664 325.945L29.1922 325.641C29.2455 325.641 29.2531 325.564 29.1922 325.534L28.6359 325.214C28.6085 325.201 28.5786 325.194 28.5483 325.194C28.518 325.194 28.4881 325.201 28.4606 325.214L27.9272 325.519C27.8891 325.549 27.8815 325.595 27.9272 325.625Z" fill="#3A2C6D"/>
<path d="M27.1423 325.168L27.6986 325.488C27.726 325.501 27.7559 325.508 27.7862 325.508C27.8165 325.508 27.8464 325.501 27.8738 325.488L28.4072 325.183C28.4606 325.183 28.4606 325.107 28.4072 325.077L27.851 324.757C27.8236 324.744 27.7937 324.737 27.7634 324.737C27.7331 324.737 27.7031 324.744 27.6757 324.757L27.1423 325.061C27.0966 325.092 27.0966 325.138 27.1423 325.168Z" fill="#3A2C6D"/>
<path d="M26.3502 324.711L26.9065 325.031C26.9334 325.046 26.9635 325.053 26.9941 325.053C27.0247 325.053 27.0549 325.046 27.0817 325.031L27.6151 324.726C27.6685 324.726 27.6761 324.65 27.6151 324.627L27.0589 324.3C27.0302 324.287 26.999 324.28 26.9674 324.28C26.9359 324.28 26.9047 324.287 26.876 324.3L26.3502 324.612C26.3121 324.612 26.3045 324.688 26.3502 324.711Z" fill="#3A2C6D"/>
<path d="M25.5575 324.254L26.1214 324.574C26.1482 324.588 26.1784 324.596 26.209 324.596C26.2396 324.596 26.2697 324.588 26.2966 324.574L26.83 324.269C26.8757 324.269 26.8834 324.193 26.83 324.17L26.2738 323.85C26.2469 323.835 26.2167 323.828 26.1861 323.828C26.1555 323.828 26.1254 323.835 26.0985 323.85L25.5651 324.155C25.5194 324.185 25.5194 324.231 25.5575 324.254Z" fill="#3A2C6D"/>
<path d="M24.7726 323.796L25.3289 324.124C25.3563 324.137 25.3862 324.144 25.4165 324.144C25.4468 324.144 25.4767 324.137 25.5041 324.124L26.0375 323.812C26.0909 323.812 26.0985 323.735 26.0375 323.713L25.4812 323.393C25.453 323.378 25.4216 323.37 25.3898 323.37C25.358 323.37 25.3266 323.378 25.2984 323.393L24.7726 323.697C24.7345 323.728 24.7269 323.774 24.7726 323.796Z" fill="#3A2C6D"/>
<path d="M23.9802 323.347L24.5365 323.667C24.5652 323.68 24.5964 323.687 24.6279 323.687C24.6595 323.687 24.6907 323.68 24.7194 323.667L25.2452 323.362C25.2985 323.362 25.3061 323.286 25.2452 323.256L24.6889 322.935C24.6615 322.923 24.6316 322.916 24.6013 322.916C24.571 322.916 24.541 322.923 24.5136 322.935L23.9802 323.24C23.9421 323.271 23.9345 323.316 23.9802 323.347Z" fill="#3A2C6D"/>
<path d="M23.1954 322.89L23.7517 323.21C23.7791 323.223 23.809 323.229 23.8393 323.229C23.8696 323.229 23.8995 323.223 23.9269 323.21L24.4603 322.905C24.5137 322.905 24.5137 322.829 24.4603 322.798L23.9041 322.478C23.8767 322.465 23.8468 322.458 23.8165 322.458C23.7862 322.458 23.7562 322.465 23.7288 322.478L23.1954 322.783C23.1497 322.813 23.1497 322.859 23.1954 322.89Z" fill="#3A2C6D"/>
<path d="M32.6592 328.353L33.5964 328.894C33.6239 328.907 33.6538 328.914 33.6841 328.914C33.7144 328.914 33.7443 328.907 33.7717 328.894L34.3051 328.59C34.3584 328.59 34.3661 328.513 34.3051 328.483L33.3678 327.942C33.3391 327.929 33.3079 327.922 33.2764 327.922C33.2449 327.922 33.2137 327.929 33.185 327.942L32.6592 328.254C32.6211 328.285 32.6135 328.33 32.6592 328.353Z" fill="#3A2C6D"/>
<path d="M23.1267 322.021L23.683 322.341C23.7287 322.341 23.7287 322.41 23.683 322.44L23.1191 322.76C23.095 322.775 23.0673 322.783 23.0391 322.783C23.0108 322.783 22.9831 322.775 22.9591 322.76H22.9133C22.8896 322.749 22.8635 322.743 22.8371 322.743C22.8108 322.743 22.7847 322.749 22.761 322.76L22.1666 323.103C22.1401 323.114 22.1116 323.12 22.0828 323.12C22.054 323.12 22.0254 323.114 21.9989 323.103L21.6484 322.897C21.6027 322.897 21.6027 322.829 21.6484 322.798L22.2047 322.478L22.319 322.417L22.4028 322.364L22.4866 322.318L22.9591 322.044C22.9825 322.026 23.0103 322.014 23.0398 322.01C23.0693 322.006 23.0993 322.01 23.1267 322.021V322.021Z" fill="#3A2C6D"/>
<path d="M30.7468 329.892L31.3031 330.212C31.33 330.227 31.3601 330.235 31.3907 330.235C31.4213 330.235 31.4515 330.227 31.4784 330.212L32.0118 329.908C32.0651 329.908 32.0651 329.831 32.0118 329.808L31.4555 329.488C31.4286 329.474 31.3985 329.466 31.3679 329.466C31.3372 329.466 31.3071 329.474 31.2802 329.488L30.7468 329.793C30.7087 329.824 30.7011 329.869 30.7468 329.892Z" fill="#3A2C6D"/>
<path d="M29.9621 329.443L30.5184 329.763C30.5458 329.776 30.5757 329.783 30.606 329.783C30.6363 329.783 30.6663 329.776 30.6937 329.763L31.2271 329.458C31.2804 329.458 31.2804 329.382 31.2271 329.351L30.6708 329.031C30.6434 329.019 30.6135 329.012 30.5832 329.012C30.5529 329.012 30.523 329.019 30.4955 329.031L29.9621 329.336C29.9164 329.367 29.9164 329.412 29.9621 329.443Z" fill="#3A2C6D"/>
<path d="M29.1693 328.986L29.7332 329.306C29.76 329.32 29.7902 329.328 29.8208 329.328C29.8514 329.328 29.8816 329.32 29.9084 329.306L30.4418 329.001C30.4876 329.001 30.4952 328.925 30.4418 328.902L29.8856 328.582C29.8587 328.567 29.8286 328.559 29.7979 328.559C29.7673 328.559 29.7372 328.567 29.7103 328.582L29.1769 328.894C29.1312 328.917 29.1312 328.963 29.1693 328.986Z" fill="#3A2C6D"/>
<path d="M22.4793 325.122L23.0355 325.442C23.0638 325.457 23.0951 325.465 23.127 325.465C23.1588 325.465 23.1902 325.457 23.2184 325.442L23.7442 325.138C23.7975 325.138 23.8051 325.061 23.7442 325.039L23.1879 324.711C23.1605 324.698 23.1306 324.691 23.1003 324.691C23.07 324.691 23.0401 324.698 23.0127 324.711L22.4793 325.023C22.4412 325.054 22.4335 325.1 22.4793 325.122Z" fill="#3A2C6D"/>
<path d="M21.6942 324.673L22.2505 324.993C22.2779 325.006 22.3078 325.012 22.3381 325.012C22.3684 325.012 22.3983 325.006 22.4257 324.993L22.9591 324.68C23.0125 324.68 23.0201 324.612 22.9591 324.581L22.4029 324.261C22.3746 324.247 22.3433 324.239 22.3114 324.239C22.2796 324.239 22.2482 324.247 22.22 324.261L21.6942 324.566C21.6561 324.612 21.6485 324.612 21.6942 324.673Z" fill="#3A2C6D"/>
<path d="M20.9092 324.216L21.4654 324.536C21.4923 324.55 21.5225 324.558 21.5531 324.558C21.5837 324.558 21.6138 324.55 21.6407 324.536L22.1741 324.231C22.2274 324.231 22.2351 324.155 22.1741 324.132L21.6178 323.804C21.5891 323.791 21.5579 323.784 21.5264 323.784C21.4949 323.784 21.4637 323.791 21.435 323.804L20.9092 324.117C20.8711 324.147 20.8635 324.193 20.9092 324.216Z" fill="#3A2C6D"/>
<path d="M20.1245 323.758L20.6808 324.086C20.7082 324.099 20.7381 324.106 20.7684 324.106C20.7987 324.106 20.8287 324.099 20.8561 324.086L21.3895 323.774C21.4428 323.774 21.4428 323.697 21.3895 323.675L20.8256 323.355C20.7987 323.34 20.7686 323.332 20.738 323.332C20.7073 323.332 20.6772 323.34 20.6503 323.355L20.1169 323.659C20.0864 323.69 20.0788 323.736 20.1245 323.758Z" fill="#3A2C6D"/>
<path d="M28.1941 328.422L28.9561 328.864C28.9848 328.877 29.016 328.884 29.0475 328.884C29.079 328.884 29.1102 328.877 29.1389 328.864L29.6647 328.559C29.7181 328.559 29.7257 328.483 29.6647 328.452L28.9027 328.018C28.8758 328.003 28.8457 327.996 28.8151 327.996C28.7845 327.996 28.7543 328.003 28.7275 328.018L28.1941 328.323C28.1483 328.346 28.1407 328.422 28.1941 328.422Z" fill="#3A2C6D"/>
<path d="M23.2639 325.58L24.0259 326.014C24.0528 326.029 24.0829 326.036 24.1136 326.036C24.1442 326.036 24.1743 326.029 24.2012 326.014L24.7346 325.709C24.7879 325.709 24.7955 325.633 24.7346 325.602L23.9726 325.168C23.9452 325.155 23.9152 325.149 23.885 325.149C23.8547 325.149 23.8247 325.155 23.7973 325.168L23.2639 325.473C23.2258 325.503 23.2182 325.549 23.2639 325.58Z" fill="#3A2C6D"/>
<path d="M24.2545 326.136L27.9578 328.277C27.9852 328.29 28.0151 328.297 28.0454 328.297C28.0757 328.297 28.1057 328.29 28.1331 328.277L28.6665 327.972C28.7198 327.972 28.7198 327.896 28.6665 327.866L24.9708 325.732C24.9425 325.717 24.9111 325.71 24.8793 325.71C24.8475 325.71 24.8161 325.717 24.7879 325.732L24.2621 326.037C24.2164 326.075 24.2088 326.136 24.2545 326.136Z" fill="#3A2C6D"/>
<path d="M30.8917 328.216L31.448 328.536C31.4749 328.551 31.505 328.558 31.5356 328.558C31.5662 328.558 31.5964 328.551 31.6232 328.536L32.1567 328.231C32.21 328.231 32.2176 328.155 32.1567 328.125L31.6004 327.805C31.5717 327.792 31.5405 327.785 31.5089 327.785C31.4774 327.785 31.4462 327.792 31.4175 327.805L30.8917 328.109C30.8536 328.14 30.846 328.186 30.8917 328.216Z" fill="#3A2C6D"/>
<path d="M30.1067 327.759L30.663 328.079C30.6898 328.094 30.72 328.101 30.7506 328.101C30.7812 328.101 30.8113 328.094 30.8382 328.079L31.3716 327.774C31.425 327.774 31.425 327.698 31.3716 327.675L30.8154 327.355C30.7885 327.34 30.7583 327.333 30.7277 327.333C30.6971 327.333 30.667 327.34 30.6401 327.355L30.1067 327.66C30.0686 327.66 30.061 327.736 30.1067 327.759Z" fill="#3A2C6D"/>
<path d="M29.3144 327.309L29.8783 327.629C29.9057 327.642 29.9356 327.649 29.9659 327.649C29.9962 327.649 30.0262 327.642 30.0536 327.629L30.587 327.324C30.6327 327.324 30.6403 327.248 30.587 327.218L30.0307 326.898C30.0033 326.885 29.9734 326.878 29.9431 326.878C29.9128 326.878 29.8829 326.885 29.8555 326.898L29.3221 327.203C29.2763 327.233 29.2763 327.279 29.3144 327.309Z" fill="#3A2C6D"/>
<path d="M28.5293 326.852L29.0856 327.172C29.1124 327.187 29.1426 327.195 29.1732 327.195C29.2038 327.195 29.2339 327.187 29.2608 327.172L29.7942 326.867C29.8476 326.867 29.8552 326.791 29.7942 326.761L29.238 326.441C29.2106 326.428 29.1806 326.421 29.1503 326.421C29.12 326.421 29.0901 326.428 29.0627 326.441L28.5293 326.753C28.4912 326.784 28.4836 326.829 28.5293 326.852Z" fill="#3A2C6D"/>
<path d="M27.7446 326.395L28.3009 326.715C28.3278 326.73 28.3579 326.737 28.3885 326.737C28.4191 326.737 28.4493 326.73 28.4762 326.715L29.0096 326.403C29.0629 326.403 29.0705 326.326 29.0096 326.304L28.4533 325.984C28.4251 325.969 28.3937 325.961 28.3619 325.961C28.33 325.961 28.2987 325.969 28.2704 325.984L27.7446 326.288C27.7065 326.326 27.6989 326.372 27.7446 326.395Z" fill="#3A2C6D"/>
<path d="M26.9596 325.945L27.5158 326.265C27.5433 326.278 27.5732 326.285 27.6035 326.285C27.6338 326.285 27.6637 326.278 27.6911 326.265L28.2245 325.961C28.2702 325.961 28.2778 325.884 28.2245 325.854L27.6682 325.534C27.6408 325.521 27.6109 325.514 27.5806 325.514C27.5503 325.514 27.5204 325.521 27.493 325.534L26.9596 325.839C26.9139 325.869 26.9139 325.915 26.9596 325.945Z" fill="#3A2C6D"/>
<path d="M26.1674 325.488L26.7236 325.808C26.7519 325.823 26.7832 325.83 26.8151 325.83C26.8469 325.83 26.8783 325.823 26.9065 325.808L27.4323 325.503C27.4856 325.503 27.4932 325.427 27.4323 325.404L26.876 325.077C26.8486 325.064 26.8187 325.057 26.7884 325.057C26.7581 325.057 26.7282 325.064 26.7008 325.077L26.1674 325.389C26.1293 325.419 26.1216 325.465 26.1674 325.488Z" fill="#3A2C6D"/>
<path d="M25.3824 325.031L25.9082 325.374C25.9356 325.387 25.9655 325.393 25.9958 325.393C26.0261 325.393 26.0561 325.387 26.0835 325.374L26.6169 325.061C26.6702 325.061 26.6778 324.985 26.6169 324.962L26.0606 324.642C26.0324 324.628 26.001 324.62 25.9692 324.62C25.9373 324.62 25.906 324.628 25.8777 324.642L25.352 324.947C25.3443 324.962 25.3367 325.008 25.3824 325.031Z" fill="#3A2C6D"/>
<path d="M24.5975 324.612L25.1538 324.932C25.1812 324.945 25.2111 324.951 25.2414 324.951C25.2717 324.951 25.3016 324.945 25.329 324.932L25.8624 324.627C25.9158 324.627 25.9158 324.551 25.8624 324.52L25.3062 324.2C25.2788 324.187 25.2489 324.181 25.2186 324.181C25.1883 324.181 25.1583 324.187 25.1309 324.2L24.5975 324.505C24.5518 324.505 24.5518 324.551 24.5975 324.612Z" fill="#3A2C6D"/>
<path d="M23.8049 324.124L24.3612 324.444C24.3894 324.459 24.4208 324.467 24.4526 324.467C24.4845 324.467 24.5158 324.459 24.5441 324.444L25.0699 324.139C25.1232 324.139 25.1308 324.063 25.0699 324.04L24.5136 323.713C24.4862 323.7 24.4563 323.693 24.426 323.693C24.3957 323.693 24.3657 323.7 24.3383 323.713L23.8049 324.025C23.7668 324.056 23.7592 324.101 23.8049 324.124Z" fill="#3A2C6D"/>
<path d="M23.0203 323.667L23.5765 323.995C23.6039 324.008 23.6339 324.014 23.6642 324.014C23.6945 324.014 23.7244 324.008 23.7518 323.995L24.2852 323.682C24.3385 323.682 24.3462 323.606 24.2852 323.583L23.7289 323.263C23.7007 323.249 23.6693 323.241 23.6375 323.241C23.6057 323.241 23.5743 323.249 23.546 323.263L23.0203 323.568C22.9822 323.598 22.9745 323.644 23.0203 323.667Z" fill="#3A2C6D"/>
<path d="M22.2352 323.217L22.7915 323.537C22.8189 323.55 22.8488 323.557 22.8791 323.557C22.9094 323.557 22.9393 323.55 22.9667 323.537L23.5001 323.233C23.5535 323.233 23.5535 323.156 23.5001 323.126L22.9439 322.806C22.9165 322.793 22.8865 322.786 22.8563 322.786C22.826 322.786 22.796 322.793 22.7686 322.806L22.2352 323.111C22.1895 323.141 22.1895 323.187 22.2352 323.217Z" fill="#3A2C6D"/>
<path d="M31.6768 328.673L32.835 329.336C32.8624 329.349 32.8923 329.356 32.9226 329.356C32.9529 329.356 32.9829 329.349 33.0103 329.336L33.536 329.031C33.5894 329.031 33.597 328.955 33.536 328.925L32.3854 328.262C32.3585 328.247 32.3284 328.24 32.2978 328.24C32.2672 328.24 32.237 328.247 32.2102 328.262L31.6768 328.567C31.6387 328.597 31.631 328.643 31.6768 328.673Z" fill="#3A2C6D"/>
<path d="M30.5181 328.879L31.0743 329.207C31.1017 329.22 31.1317 329.226 31.162 329.226C31.1923 329.226 31.2222 329.22 31.2496 329.207L31.783 328.894C31.8363 328.894 31.844 328.818 31.783 328.795L31.2267 328.475C31.1999 328.461 31.1697 328.453 31.1391 328.453C31.1085 328.453 31.0784 328.461 31.0515 328.475L30.5181 328.78C30.48 328.811 30.48 328.856 30.5181 328.879Z" fill="#3A2C6D"/>
<path d="M29.718 328.422L30.2743 328.742C30.3017 328.755 30.3316 328.762 30.3619 328.762C30.3922 328.762 30.4221 328.755 30.4495 328.742L30.9829 328.437C31.0363 328.437 31.0439 328.361 30.9829 328.33L30.4191 328.01C30.3916 327.998 30.3617 327.991 30.3314 327.991C30.3011 327.991 30.2712 327.998 30.2438 328.01L29.718 328.315C29.718 328.353 29.718 328.422 29.718 328.422Z" fill="#3A2C6D"/>
<path d="M28.956 327.972L29.5123 328.292C29.5392 328.307 29.5693 328.315 29.5999 328.315C29.6305 328.315 29.6607 328.307 29.6875 328.292L30.2209 327.988C30.2667 327.988 30.2743 327.911 30.2209 327.888L29.6647 327.561C29.6373 327.548 29.6073 327.541 29.5771 327.541C29.5468 327.541 29.5168 327.548 29.4894 327.561L28.956 327.873C28.9027 327.904 28.9027 327.949 28.956 327.972Z" fill="#3A2C6D"/>
<path d="M28.194 327.515L28.7502 327.843C28.7789 327.856 28.8101 327.863 28.8417 327.863C28.8732 327.863 28.9044 327.856 28.9331 327.843L29.4589 327.53C29.5122 327.53 29.5198 327.454 29.4589 327.431L28.9026 327.111C28.8757 327.097 28.8456 327.089 28.815 327.089C28.7844 327.089 28.7542 327.097 28.7274 327.111L28.194 327.416C28.1178 327.447 28.1101 327.492 28.194 327.515Z" fill="#3A2C6D"/>
<path d="M27.371 327.066L27.9272 327.386C27.9547 327.399 27.9846 327.405 28.0149 327.405C28.0452 327.405 28.0751 327.399 28.1025 327.386L28.6359 327.081C28.6892 327.081 28.6969 327.005 28.6359 326.974L28.0796 326.654C28.0509 326.641 28.0197 326.634 27.9882 326.634C27.9567 326.634 27.9255 326.641 27.8968 326.654L27.371 326.959C27.3329 326.989 27.3253 327.035 27.371 327.066Z" fill="#3A2C6D"/>
<path d="M26.5863 326.608L27.1426 326.928C27.1694 326.943 27.1996 326.951 27.2302 326.951C27.2608 326.951 27.2909 326.943 27.3178 326.928L27.8512 326.623C27.9046 326.623 27.9046 326.547 27.8512 326.524L27.295 326.204C27.2681 326.19 27.2379 326.182 27.2073 326.182C27.1767 326.182 27.1466 326.19 27.1197 326.204L26.5863 326.509C26.5406 326.54 26.5406 326.585 26.5863 326.608Z" fill="#3A2C6D"/>
<path d="M25.7939 326.136L26.3502 326.456C26.3789 326.469 26.4101 326.476 26.4417 326.476C26.4732 326.476 26.5044 326.469 26.5331 326.456L27.0589 326.151C27.1122 326.151 27.1198 326.075 27.0589 326.045L26.5026 325.724C26.4757 325.71 26.4456 325.702 26.415 325.702C26.3844 325.702 26.3542 325.71 26.3274 325.724L25.7939 326.029C25.7558 326.083 25.7482 326.136 25.7939 326.136Z" fill="#3A2C6D"/>
<path d="M25.0089 325.701L25.5652 326.021C25.5921 326.036 25.6222 326.044 25.6528 326.044C25.6834 326.044 25.7136 326.036 25.7404 326.021L26.2738 325.717C26.3272 325.717 26.3348 325.64 26.2738 325.61L25.7176 325.29C25.6889 325.277 25.6577 325.27 25.6261 325.27C25.5946 325.27 25.5634 325.277 25.5347 325.29L25.0089 325.602C24.9708 325.625 24.9632 325.671 25.0089 325.701Z" fill="#3A2C6D"/>
<path d="M24.2239 325.244L24.7802 325.564C24.8074 325.578 24.8374 325.585 24.8678 325.585C24.8982 325.585 24.9282 325.578 24.9554 325.564L25.4888 325.252C25.5422 325.252 25.5422 325.176 25.4888 325.153L24.925 324.833C24.8981 324.818 24.8679 324.811 24.8373 324.811C24.8067 324.811 24.7766 324.818 24.7497 324.833L24.2163 325.138C24.1858 325.176 24.1782 325.222 24.2239 325.244Z" fill="#3A2C6D"/>
<path d="M23.4392 324.795L23.9955 325.115C24.0229 325.128 24.0528 325.134 24.0831 325.134C24.1134 325.134 24.1433 325.128 24.1707 325.115L24.7041 324.81C24.7498 324.81 24.7575 324.734 24.7041 324.703L24.1479 324.383C24.1204 324.37 24.0905 324.364 24.0602 324.364C24.0299 324.364 24 324.37 23.9726 324.383L23.4392 324.688C23.3935 324.719 23.3935 324.764 23.4392 324.795Z" fill="#3A2C6D"/>
<path d="M22.6466 324.338L23.2029 324.658C23.2311 324.672 23.2625 324.68 23.2943 324.68C23.3261 324.68 23.3575 324.672 23.3858 324.658L23.9115 324.353C23.9649 324.353 23.9725 324.277 23.9115 324.254L23.3553 323.926C23.3279 323.913 23.2979 323.906 23.2676 323.906C23.2373 323.906 23.2074 323.913 23.18 323.926L22.6466 324.239C22.6085 324.269 22.6009 324.315 22.6466 324.338Z" fill="#3A2C6D"/>
<path d="M20.8862 323.324L22.4102 324.208C22.4376 324.221 22.4676 324.228 22.4979 324.228C22.5282 324.228 22.5581 324.221 22.5855 324.208L23.1189 323.895C23.1722 323.895 23.1799 323.819 23.1189 323.796L21.5949 322.912C21.5667 322.898 21.5353 322.89 21.5035 322.89C21.4716 322.89 21.4403 322.898 21.412 322.912L20.8862 323.217C20.8481 323.248 20.8405 323.293 20.8862 323.324Z" fill="#3A2C6D"/>
<path d="M31.3029 329.336L32.0649 329.778C32.0923 329.791 32.1223 329.798 32.1526 329.798C32.1829 329.798 32.2128 329.791 32.2402 329.778L32.7736 329.466C32.8269 329.466 32.8345 329.39 32.7736 329.367L32.0116 328.925C31.9842 328.912 31.9542 328.905 31.924 328.905C31.8937 328.905 31.8637 328.912 31.8363 328.925L31.3029 329.237C31.242 329.268 31.242 329.314 31.3029 329.336Z" fill="#3A2C6D"/>
<path d="M37.0792 327.774L24.4452 320.474V310.568L24.5442 310.339L24.6433 310.294C24.776 310.215 24.9273 310.174 25.0815 310.174C25.2356 310.174 25.3869 310.215 25.5196 310.294L37.0792 316.961C37.2111 317.04 37.3204 317.152 37.3965 317.285C37.4727 317.419 37.5129 317.57 37.5135 317.723V327.05C37.4297 327.5 37.3383 327.614 37.0792 327.774Z" fill="#E5E5E5"/>
<path d="M35.9209 318.142L24.4452 310.896V310.568L24.5442 310.339L24.6433 310.294C24.776 310.215 24.9273 310.174 25.0815 310.174C25.2356 310.174 25.3869 310.215 25.5196 310.294L37.0792 316.961C37.2214 317.042 37.3357 317.164 37.4069 317.312L35.9209 318.142Z" fill="#E5E5E5"/>
<path d="M24.7348 310.317L36.8659 317.319C36.9297 317.357 36.9828 317.41 37.0202 317.474C37.0575 317.538 37.0779 317.611 37.0793 317.685V327.774L24.4453 320.474V310.484C24.4444 310.45 24.4527 310.416 24.4694 310.386C24.4861 310.356 24.5106 310.331 24.5402 310.314C24.5699 310.297 24.6036 310.288 24.6378 310.289C24.6721 310.289 24.7056 310.299 24.7348 310.317V310.317Z" fill="#DCEEFF"/>
<path d="M24.7348 310.317L36.8659 317.319C36.9297 317.357 36.9828 317.41 37.0202 317.474C37.0575 317.538 37.0779 317.611 37.0793 317.685V327.774L24.4453 320.474V310.484C24.4444 310.45 24.4527 310.416 24.4694 310.386C24.4861 310.356 24.5106 310.331 24.5402 310.314C24.5699 310.297 24.6036 310.288 24.6378 310.289C24.6721 310.289 24.7056 310.299 24.7348 310.317V310.317Z" fill="#F4F4F4"/>
<path d="M37.0792 327.774V327.408L24.4452 320.116V320.474L37.0792 327.774Z" fill="#DBDBDB"/>
<path d="M24.7729 319.948V310.843L24.9254 310.926V319.872L24.7729 319.948Z" fill="#1E3779"/>
<path d="M24.9254 310.926V319.872L36.6755 326.631V317.708L24.9254 310.926Z" fill="#3A2C6D"/>
<path d="M24.7729 319.949L36.6754 326.814V326.631L24.9254 319.872L24.7729 319.949Z" fill="#031F60"/>
<path d="M11.171 308.739C10.8662 309.501 11.6359 310.4 13.6704 311.025C15.7049 311.65 15.8878 310.842 15.8878 310.842C17.2448 311.45 18.5676 312.132 19.8502 312.884C21.0694 313.738 21.6105 316.214 21.7781 320.39C21.9686 325.221 21.9838 332.384 21.8238 333.626C21.8238 333.626 19.5378 335.912 16.6194 335.661C13.7009 335.409 8.77072 332.834 7.582 330.837C7.582 326.6 8.10778 325.907 7.42198 323.469C5.85225 317.883 5.02167 315.597 5.79129 311.879C6.41614 308.831 7.3153 308.442 8.51164 308.472C9.40217 308.515 10.2899 308.604 11.171 308.739V308.739Z" fill="#F4F4F4"/>
<path d="M26.5863 325.58C24.186 326.189 23.6221 324.673 23.3097 323.423C22.5477 320.375 22.1362 317.647 21.5647 315.925C20.8942 313.898 20.1931 313.57 19.2025 313.174C18.0519 312.709 17.0537 313.692 17.4347 316.276C17.9099 319.275 18.6468 322.228 19.6369 325.1C19.9874 326.392 20.6644 327.573 21.6028 328.529C22.8449 329.534 24.7118 329.489 27.5312 328.788C29.1848 328.224 30.7902 327.529 32.3318 326.707C32.9414 326.425 33.4139 326.235 34.6178 325.686C35.8105 325.165 36.8571 324.359 37.6659 323.339C38.2755 322.448 38.3593 322.029 38.2374 321.815C38.1154 321.602 37.7954 321.617 37.4753 321.991C37.0024 322.621 36.4189 323.161 35.7532 323.583C35.7532 323.583 36.5152 322.821 36.9191 322.295C37.2892 321.831 37.5942 321.318 37.8259 320.771C38.0469 320.253 37.5973 319.552 37.2544 319.918C36.9115 320.284 36.7591 320.68 36.1342 321.442C35.8079 321.839 35.4343 322.195 35.0217 322.501C35.4084 321.981 35.7524 321.431 36.0504 320.855C36.3178 320.393 36.4473 319.864 36.4238 319.331C36.4238 319.064 36.0199 318.744 35.6618 319.255C35.2907 319.983 34.8299 320.661 34.2902 321.274C33.7415 321.846 33.2767 322.173 33.2615 322.036C33.2462 321.899 33.5968 321.564 33.7873 320.909C33.9778 320.253 33.7873 319.545 33.4215 319.468C33.0557 319.392 33.1243 319.407 32.8348 320.032C32.428 320.668 32.064 321.33 31.7451 322.013C31.5571 322.652 31.2172 323.235 30.7545 323.713C30.1754 324.315 28.8723 325.008 26.5863 325.58Z" fill="#FFCEA9"/>
<path d="M18.2882 312.763C19.8884 312.526 21.0238 313.25 21.7324 315.673C22.4411 318.097 22.9288 320.093 22.9288 320.093C22.2962 321.009 21.3361 321.648 20.2465 321.876C18.3339 322.341 17.6405 321.427 17.6405 321.427C17.6405 321.427 17.1071 318.882 16.7794 317.152C16.4517 315.422 16.3374 313.052 18.2882 312.763Z" fill="#EDEDED"/>
<path d="M19.1109 300.335C19.1109 300.335 21.6407 296.486 16.1543 295.702C12.1995 295.138 9.65441 297.675 9.36484 300.434C9.0829 303.07 10.706 305.806 11.8718 306.895C13.0238 307.189 14.2437 307.042 15.2932 306.484C15.3586 305.764 15.3841 305.042 15.3694 304.32C15.3694 304.32 13.4416 300.266 19.1109 300.335Z" fill="#3A2C6D"/>
<path d="M30.0914 349.034V337.474L20.9093 342.831L24.445 350.139L30.0914 349.034Z" fill="#C4C7D6"/>
<path d="M24.0717 338.137L27.5921 336.095L30.0839 337.535L26.4339 339.608L24.0717 338.137Z" fill="#D6D8E5"/>
<path opacity="0.4" d="M169.241 285.75L125.868 260.71C122.736 258.904 123.132 255.75 126.744 253.662L154.847 237.439L209.551 269.047L181.456 285.27C177.836 287.358 172.373 287.579 169.241 285.75Z" fill="#D6D8E5"/>
<path d="M172.41 283.913L129.03 258.866C125.905 257.06 126.302 253.913 129.906 251.825L158.009 235.602L212.713 267.18L184.61 283.41C180.998 285.491 175.535 285.75 172.41 283.913Z" fill="#B1B4C4"/>
<path d="M212.713 267.18V265.526L210.191 266.982L212.713 267.18Z" fill="#B1B4C4"/>
<path d="M126.919 255.887V254.203L129.518 255.277L126.919 255.887Z" fill="#B1B4C4"/>
<path d="M172.41 282.26L129.03 257.213C125.905 255.407 126.302 252.252 129.906 250.172L158.009 233.934L212.713 265.519L184.61 281.742C180.998 283.837 175.535 284.058 172.41 282.26Z" fill="#D6D8E5"/>
<path d="M158.161 234.017L151.387 211.554L206.685 243.276L212.713 265.526L158.161 234.017Z" fill="#9EA1AF"/>
<path d="M211.113 266.448L212.713 265.526L210.313 263.652L211.113 266.448Z" fill="#9EA1AF"/>
<path d="M156.416 234.863L149.642 212.399L204.941 244.122L211.113 266.448L156.416 234.863Z" fill="#B1B4C4"/>
<path d="M296.792 304.304L82.7384 180.723C79.7361 178.986 77.3053 174.337 77.3053 170.337V4.76126C77.3053 0.760752 79.7361 -1.08329 82.7384 0.654071L296.792 124.205C299.795 125.935 302.226 130.583 302.226 134.591V300.228C302.226 304.198 299.795 306.042 296.792 304.304Z" fill="#C4C7D6"/>
<path d="M297.89 306.011L300.267 304.647L299.238 297.614L297.89 306.011Z" fill="#C4C7D6"/>
<path d="M76.9164 1.66742L79.2481 0.326294L82.6009 2.23892C82.6009 2.23892 79.0271 2.77994 78.9433 2.75708C78.8595 2.73422 76.9164 1.66742 76.9164 1.66742Z" fill="#B1B4C4"/>
<path d="M294.826 305.44L80.772 181.858C77.7697 180.121 75.3313 175.473 75.3313 171.472V5.89669C75.3313 1.88855 77.7697 0.0521262 80.772 1.78187L294.818 125.363C297.821 127.101 300.259 131.749 300.259 135.757V301.325C300.267 305.333 297.828 307.17 294.826 305.44Z" fill="#E4E7F2"/>
<path d="M294.453 305.653L80.399 182.072C77.3967 180.334 74.9659 175.686 74.9659 171.685V6.0947C74.9659 2.09419 77.3967 0.250141 80.399 1.98751L294.453 125.584C297.455 127.314 299.886 131.962 299.886 135.97V301.546C299.886 305.562 297.455 307.39 294.453 305.653Z" fill="#201D38"/>
<path opacity="0.3" d="M296.945 295.587L77.6786 168.996L77.7929 6.77292C77.7929 5.11175 78.9588 4.44119 80.3989 5.24891L294.453 128.853C295.212 129.347 295.843 130.013 296.296 130.797C296.749 131.581 297.01 132.46 297.059 133.364L296.945 295.587Z" fill="url(#paint0_linear_174_7)"/>
<path d="M210.785 108.264L196.254 99.8744V94.6318L210.785 103.021V108.264Z" fill="#A298E2"/>
<path d="M244.374 127.672L213.505 109.834V104.591L244.374 122.43V127.672Z" fill="#F4CE2C"/>
<path d="M210.785 125.036L196.254 116.654V111.411L210.785 119.793V125.036Z" fill="#A298E2"/>
<path d="M223.732 132.641L213.505 126.613V121.37L223.732 127.398V132.641Z" fill="#4D3BFF"/>
<path d="M210.785 133.425L196.254 125.036V119.793L210.785 128.183V133.425Z" fill="#A298E2"/>
<path d="M230.757 144.954L213.505 134.995V129.752L230.757 139.712V144.954Z" fill="#4D3BFF"/>
<path d="M210.785 141.807L196.254 133.425V128.183L210.785 136.573V141.807Z" fill="#A298E2"/>
<path d="M259.005 169.59L213.505 143.385V138.142L259.005 164.355V169.59Z" fill="#FF8657"/>
<path d="M210.785 116.654L196.254 108.264V103.022L210.785 111.411V116.654Z" fill="#A298E2"/>
<path d="M270.183 150.982L213.505 118.223V112.981L270.183 145.739V150.982Z" fill="#A298E2"/>
<path d="M210.785 150.197L196.254 141.808V136.565L210.785 144.955V150.197Z" fill="#A298E2"/>
<path d="M262.533 180.601L213.505 151.774V146.532L262.533 175.358V180.601Z" fill="#C33AFC"/>
<path d="M210.785 166.976L196.254 158.587V153.344L210.785 161.734V166.976Z" fill="#A298E2"/>
<path d="M270.709 201.571L213.505 168.546V163.304L270.709 196.329V201.571Z" fill="#A298E2"/>
<path d="M210.785 175.358L196.254 166.976V161.734L210.785 170.116V175.358Z" fill="#A298E2"/>
<path d="M230.757 186.895L213.505 176.928V171.693L230.757 181.653V186.895Z" fill="#C33AFC"/>
<path d="M210.785 183.748L196.254 175.358V170.116L210.785 178.505V183.748Z" fill="#A298E2"/>
<path d="M248.756 205.762L213.505 185.318V180.075L248.756 200.52V205.762Z" fill="#4D3BFF"/>
<path d="M210.785 158.587L196.254 150.197V144.955L210.785 153.344V158.587Z" fill="#A298E2"/>
<path d="M219.861 163.829L213.505 160.157V154.914L219.861 158.587V163.829Z" fill="#4D3BFF"/>
<path d="M210.785 192.138L196.254 183.748V178.505L210.785 186.895V192.138Z" fill="#A298E2"/>
<path d="M236.259 206.814L213.505 193.707V188.465L236.259 201.571V206.814Z" fill="#C33AFC"/>
<path d="M210.785 208.909L196.254 200.52V195.277L210.785 203.667V208.909Z" fill="#A298E2"/>
<path d="M246.706 229.407L213.505 210.479V205.236L246.706 224.164V229.407Z" fill="#FF8657"/>
<path d="M210.785 217.299L196.254 208.909V203.667L210.785 212.056V217.299Z" fill="#A298E2"/>
<path d="M217.651 221.49L213.505 218.869V213.626L217.651 216.247V221.49Z" fill="#A298E2"/>
<path d="M210.785 225.681L196.254 217.299V212.056L210.785 220.438V225.681Z" fill="#A298E2"/>
<path d="M232.548 238.224L213.505 227.258V222.016L232.548 232.981V238.224Z" fill="#F4CE2C"/>
<path d="M210.785 200.52L196.254 192.138V186.887L210.785 195.277V200.52Z" fill="#A298E2"/>
<path d="M240 217.299L213.505 202.089V196.854L240 212.056V217.299Z" fill="#4D3BFF"/>
<path d="M116.8 55.8459L102.269 47.4563V42.2137L116.8 50.6033V55.8459Z" fill="#A298E2"/>
<path d="M181.265 93.0621L119.52 57.4156V52.173L181.265 87.8195V93.0621Z" fill="#C33AFC"/>
<path d="M116.8 72.6176L102.269 64.2279V58.9854L116.8 67.375V72.6176Z" fill="#A298E2"/>
<path d="M160.379 97.7789L119.52 74.1873V68.9448L160.379 92.5364V97.7789Z" fill="#F4CE2C"/>
<path d="M116.8 81.0073L102.269 72.6177V67.3751L116.8 75.7648V81.0073Z" fill="#A298E2"/>
<path d="M170.368 111.929L119.52 82.5769V77.3344L170.368 106.687V111.929Z" fill="#FF8657"/>
<path d="M116.8 89.3893L102.269 81.0072V75.7646L116.8 84.1467V89.3893Z" fill="#A298E2"/>
<path d="M154.93 111.411L119.52 90.9667V85.7241L154.93 106.169V111.411Z" fill="#A298E2"/>
<path d="M116.8 64.228L102.269 55.8383V50.6034L116.8 58.9854V64.228Z" fill="#A298E2"/>
<path d="M150.389 83.6286L119.52 65.8053V60.5627L150.389 78.386V83.6286Z" fill="#4D3BFF"/>
<path d="M116.8 97.779L102.269 89.3893V84.1467L116.8 92.5364V97.779Z" fill="#A298E2"/>
<path d="M137.679 109.834L119.52 99.3487V94.1061L137.679 104.591V109.834Z" fill="#C33AFC"/>
<path d="M116.8 114.551L102.269 106.161V100.926L116.8 109.308V114.551Z" fill="#A298E2"/>
<path d="M176.724 149.153L119.52 116.128V110.885L176.724 143.91V149.153Z" fill="#F4CE2C"/>
<path d="M116.8 122.94L102.269 114.551V109.308L116.8 117.698V122.94Z" fill="#A298E2"/>
<path d="M136.772 134.469L119.52 124.51V119.267L136.772 129.227V134.469Z" fill="#FF8657"/>
<path d="M116.8 131.33L102.269 122.94V117.698L116.8 126.087V131.33Z" fill="#A298E2"/>
<path d="M170.368 162.252L119.52 132.9V127.657L170.368 157.017V162.252Z" fill="#A298E2"/>
<path d="M116.8 106.169L102.269 97.779V92.5364L116.8 100.926V106.169Z" fill="#A298E2"/>
<path d="M167.64 135.521L119.52 107.738V102.496L167.64 130.278V135.521Z" fill="#4D3BFF"/>
<path d="M116.8 139.712L102.269 131.322V126.087L116.8 134.469V139.712Z" fill="#A298E2"/>
<path d="M125.875 144.954L119.52 141.289V136.047L125.875 139.712V144.954Z" fill="#C33AFC"/>
<path d="M116.8 156.491L102.269 148.102V142.859L116.8 151.249V156.491Z" fill="#A298E2"/>
<path d="M131.323 164.873L119.52 158.061V152.819L131.323 159.631V164.873Z" fill="#F4CE2C"/>
<path d="M116.8 164.873L102.269 156.491V151.249L116.8 159.631V164.873Z" fill="#A298E2"/>
<path d="M150.389 184.274L119.52 166.451V161.208L150.389 179.031V184.274Z" fill="#FF8657"/>
<path d="M116.8 173.263L102.269 164.873V159.631L116.8 168.02V173.263Z" fill="#A298E2"/>
<path d="M168.547 203.141L119.52 174.833V169.59L168.547 197.898V203.141Z" fill="#A298E2"/>
<path d="M116.8 148.101L102.269 139.712V134.469L116.8 142.859V148.101Z" fill="#A298E2"/>
<path d="M181.265 185.318L119.52 149.671V144.429L181.265 180.075V185.318Z" fill="#4D3BFF"/>
<path opacity="0.4" d="M228.41 381C246.018 381 260.293 372.757 260.293 362.59C260.293 352.422 246.018 344.18 228.41 344.18C210.802 344.18 196.528 352.422 196.528 362.59C196.528 372.757 210.802 381 228.41 381Z" fill="#D6D8E5"/>
<path d="M263.425 359.976V310.896L199.79 312.496L199.927 357.759C198.738 363.207 201.756 368.899 209.002 373.083C221.453 380.268 241.639 380.276 254.09 373.083C260.346 369.448 263.455 364.708 263.425 359.976Z" fill="#A6CE28"/>
<path d="M231.542 329.283C249.15 329.283 263.424 321.041 263.424 310.873C263.424 300.705 249.15 292.463 231.542 292.463C213.934 292.463 199.66 300.705 199.66 310.873C199.66 321.041 213.934 329.283 231.542 329.283Z" fill="#BCD64D"/>
<path d="M258.388 310.896C258.388 313.89 255.896 317.038 251.568 319.545C246.843 322.257 240.389 323.934 233.592 324.208C232.914 324.208 232.236 324.254 231.55 324.254C224.006 324.254 216.714 322.532 211.524 319.545C207.196 317.038 204.705 313.89 204.705 310.896C204.705 307.901 207.196 304.754 211.524 302.247C216.714 299.252 224.006 297.53 231.542 297.53C232.228 297.53 232.914 297.53 233.592 297.576C240.389 297.85 246.843 299.527 251.568 302.247C255.896 304.731 258.388 307.848 258.388 310.896Z" fill="#28221C"/>
<path opacity="0.07" d="M258.387 310.896C258.387 313.891 255.896 317.038 251.568 319.545C246.843 322.257 240.389 323.934 233.592 324.208C226.795 323.934 220.333 322.257 215.616 319.545C211.28 316.992 208.789 313.868 208.789 310.896C208.789 307.924 211.273 304.754 215.601 302.247C220.325 299.527 226.787 297.85 233.584 297.576C240.381 297.85 246.835 299.527 251.56 302.247C255.896 304.731 258.387 307.848 258.387 310.896Z" fill="white"/>
<path d="M258.761 333.611L251.994 329.694L248.702 331.599L251.994 333.504V334.754L258.342 338.412L258.151 339.585C259.073 340.347 262.357 346.443 262.357 346.443L262.586 346.23V362.026C262.586 366.171 260.155 364.769 259.119 364.167L251.994 360.053L248.702 361.95L251.994 363.847V365.097L259.119 369.212C259.839 369.644 260.606 369.991 261.405 370.248L260.978 372.229L264.666 370.149H264.72H264.773C266.297 369.25 266.945 367.063 266.945 364.609V348.036C266.975 341.033 261.603 335.539 258.761 333.611Z" fill="#8DA01F"/>
<path d="M255.827 371.14L248.702 367.025V361.95L255.827 366.065C256.863 366.659 259.294 368.069 259.294 363.916V347.419C259.294 343.517 255.766 340.82 255.164 340.393L248.702 336.659V331.599L255.469 335.516C258.319 337.444 263.653 342.946 263.653 349.948V366.461C263.653 370.919 261.618 374.477 255.827 371.14Z" fill="#99B524"/>
<path opacity="0.4" d="M31.5241 283.471C43.6486 283.471 53.4774 277.794 53.4774 270.792C53.4774 263.789 43.6486 258.112 31.5241 258.112C19.3996 258.112 9.5708 263.789 9.5708 270.792C9.5708 277.794 19.3996 283.471 31.5241 283.471Z" fill="#D6D8E5"/>
<path d="M34.6558 281.124C46.7803 281.124 56.6091 275.447 56.6091 268.445C56.6091 261.442 46.7803 255.765 34.6558 255.765C22.5313 255.765 12.7025 261.442 12.7025 268.445C12.7025 275.447 22.5313 281.124 34.6558 281.124Z" fill="#D6D8E5"/>
<path d="M5.26538 225.102L12.9464 269.321H56.5558L64.0463 225.422L5.26538 225.102Z" fill="#D6D8E5"/>
<path d="M34.6558 241.538C50.9045 241.538 64.0767 233.934 64.0767 224.553C64.0767 215.173 50.9045 207.568 34.6558 207.568C18.4071 207.568 5.23486 215.173 5.23486 224.553C5.23486 233.934 18.4071 241.538 34.6558 241.538Z" fill="#E4E6EF"/>
<path d="M34.656 237.789C27.4474 237.789 20.7266 236.204 15.7279 233.316C11.4378 230.848 8.98413 227.647 8.98413 224.553C8.98413 221.46 11.4378 218.259 15.7279 215.79C20.719 212.902 27.4474 211.317 34.656 211.317C41.8645 211.317 48.593 212.902 53.5841 215.79C57.8742 218.259 60.3279 221.46 60.3279 224.553C60.3279 227.647 57.9123 230.886 53.5841 233.316C48.593 236.22 41.9103 237.789 34.656 237.789Z" fill="#28221C"/>
<path d="M47.3127 211.173C47.7291 205.458 46.8192 199.725 44.654 194.421C42.4889 189.116 39.1271 184.384 34.8311 180.593V180.593L34.7473 180.51V180.67C30.4473 184.461 27.0825 189.195 24.9159 194.503C22.7493 199.81 21.8396 205.547 22.2581 211.264L5.42542 209.641C12.5273 236.395 34.8311 234.094 34.8311 234.094V234.04C36.5151 234.17 57.3178 235.244 64.1225 209.58L47.3127 211.173Z" fill="#99B524"/>
<path d="M34.8311 234.093C34.8311 234.093 33.3071 213.26 5.35681 199.232C5.33395 199.232 -1.26499 233.842 34.8311 234.093Z" fill="#A6CE28"/>
<path d="M34.6559 234.093C34.6559 234.093 36.1799 213.26 64.1301 199.232C64.1301 199.232 70.7519 233.842 34.6559 234.093Z" fill="#A6CE28"/>
<defs>
<linearGradient id="paint0_linear_174_7" x1="77.6786" y1="150.25" x2="297.059" y2="150.25" gradientUnits="userSpaceOnUse">
<stop offset="0.21" stop-color="#C93434" stop-opacity="0"/>
<stop offset="1" stop-color="white" stop-opacity="0.2"/>
</linearGradient>
</defs>
</svg>
