<svg width="30" height="34" viewBox="0 0 30 34" fill="none" xmlns="http://www.w3.org/2000/svg">
<g clip-path="url(#clip0_129_5176)">
<path d="M29.6183 25.4605C29.8537 25.0505 30 24.5886 30 24.1737V9.77366C30 9.35881 29.8539 8.89695 29.6184 8.48694L15 16.9737L29.6183 25.4605Z" fill="#00599C"/>
<path d="M16.299 33.6361L28.701 26.4361C29.0582 26.2287 29.3829 25.8705 29.6183 25.4604L15 16.9736L0.381653 25.4605C0.617045 25.8705 0.941849 26.2288 1.29901 26.4361L13.701 33.6361C14.4154 34.0509 15.5846 34.0509 16.299 33.6361Z" fill="#004482"/>
<path d="M29.6184 8.48679C29.3829 8.07668 29.0581 7.71853 28.701 7.51111L16.299 0.311131C15.5846 -0.10371 14.4154 -0.10371 13.701 0.311131L1.29902 7.51111C0.58451 7.92585 0 8.94403 0 9.77361V24.1737C0 24.5885 0.146176 25.0505 0.381667 25.4605L15 16.9737L29.6184 8.48679Z" fill="#659AD2"/>
<path d="M15 27.0292C9.48598 27.0292 5 22.5183 5 16.9736C5 11.429 9.48598 6.91809 15 6.91809C18.558 6.91809 21.8764 8.84343 23.6599 11.9427L19.3322 14.4609C18.4395 12.9096 16.7794 11.9459 15 11.9459C12.2429 11.9459 10 14.2013 10 16.9736C10 19.7459 12.2429 22.0014 15 22.0014C16.7796 22.0014 18.4397 21.0377 19.3325 19.4861L23.6602 22.0042C21.8767 25.1038 18.5582 27.0292 15 27.0292Z" fill="white"/>
<path d="M25 16.415H23.8888V15.2977H22.7778V16.415H21.6667V17.5322H22.7778V18.6496H23.8888V17.5322H25V16.415Z" fill="white"/>
<path d="M29.1667 16.415H28.0555V15.2977H26.9445V16.415H25.8333V17.5322H26.9445V18.6496H28.0555V17.5322H29.1667V16.415Z" fill="white"/>
</g>
<defs>
<clipPath id="clip0_129_5176">
<rect width="30" height="33.9474" fill="white"/>
</clipPath>
</defs>
</svg>
