<svg width="28" height="33" viewBox="0 0 28 33" fill="none" xmlns="http://www.w3.org/2000/svg">
<g clip-path="url(#clip0_129_5189)">
<path d="M28 0.767029L25.4491 29.3433L13.9829 32.5221L2.54817 29.3477L0 0.767029H28Z" fill="#264DE4"/>
<path d="M23.2653 27.5236L25.4452 3.10394H14V30.0923L23.2653 27.5236Z" fill="#2965F1"/>
<path d="M5.84163 13.7041L6.1558 17.2094H14V13.7041H5.84163Z" fill="#EBEBEB"/>
<path d="M14 6.60925H13.9879H5.21036L5.529 10.1146H14V6.60925Z" fill="#EBEBEB"/>
<path d="M14 26.4548V22.8078L13.9846 22.8119L10.0807 21.7577L9.83119 18.9621H7.9342H6.31241L6.8035 24.4659L13.9839 26.4592L14 26.4548Z" fill="#EBEBEB"/>
<path d="M18.3043 17.2094L17.8974 21.7555L13.9879 22.8107V26.4575L21.174 24.4659L21.2267 23.8737L22.0504 14.6454L22.1359 13.7041L22.7687 6.60925H13.9879V10.1146H18.9272L18.6083 13.7041H13.9879V17.2094H18.3043Z" fill="white"/>
</g>
<defs>
<clipPath id="clip0_129_5189">
<rect width="28" height="33" fill="white"/>
</clipPath>
</defs>
</svg>
