<svg width="28" height="28" viewBox="0 0 28 28" fill="none" xmlns="http://www.w3.org/2000/svg">
<path d="M28 0H0V28H28V0Z" fill="#F7DF1E"/>
<path d="M18.8089 21.8751C19.3729 22.796 20.1067 23.4728 21.4044 23.4728C22.4947 23.4728 23.1911 22.928 23.1911 22.1751C23.1911 21.2728 22.4755 20.9533 21.2755 20.4284L20.6178 20.1462C18.7191 19.3373 17.4578 18.324 17.4578 16.1817C17.4578 14.2084 18.9613 12.7062 21.3111 12.7062C22.984 12.7062 24.1867 13.2884 25.0533 14.8128L23.0044 16.1284C22.5533 15.3195 22.0667 15.0008 21.3111 15.0008C20.5404 15.0008 20.052 15.4897 20.052 16.1284C20.052 16.9177 20.5409 17.2373 21.6698 17.7262L22.3275 18.008C24.5631 18.9666 25.8253 19.944 25.8253 22.1413C25.8253 24.5102 23.9644 25.808 21.4653 25.808C19.0218 25.808 17.4431 24.6435 16.6707 23.1173L18.8089 21.8751ZM9.51421 22.1031C9.92755 22.8364 10.3035 23.4564 11.2075 23.4564C12.072 23.4564 12.6173 23.1182 12.6173 21.8031V12.8564H15.2484V21.8386C15.2484 24.5631 13.6511 25.8031 11.3195 25.8031C9.21288 25.8031 7.99288 24.7128 7.37244 23.3997L9.51421 22.1031Z" fill="black"/>
</svg>
