<svg width="29" height="28" viewBox="0 0 29 28" fill="none" xmlns="http://www.w3.org/2000/svg">
<g clip-path="url(#clip0_129_5216)">
<path d="M13.9718 0C6.82647 5.09804e-07 7.27268 3.09865 7.27268 3.09865L7.28064 6.30883H14.0993V7.27268H4.57231C4.57231 7.27268 0 6.75413 0 13.9639C-5.09804e-07 21.1736 3.99081 20.9179 3.99081 20.9179H6.37255V17.5723C6.37255 17.5723 6.24417 13.5815 10.2996 13.5815C14.3551 13.5815 17.0625 13.5815 17.0625 13.5815C17.0625 13.5815 20.8621 13.6429 20.8621 9.90932C20.8621 6.17572 20.8621 3.73591 20.8621 3.73591C20.8621 3.73591 21.439 0 13.9718 0ZM10.212 2.1587C10.8904 2.1587 11.4387 2.70701 11.4387 3.38542C11.4387 4.06382 10.8904 4.61213 10.212 4.61213C9.53361 4.61214 8.9853 4.06382 8.9853 3.38542C8.9853 2.70701 9.53361 2.1587 10.212 2.1587Z" fill="url(#paint0_linear_129_5216)"/>
<path d="M14.1747 28C21.3201 28 20.8739 24.9013 20.8739 24.9013L20.8659 21.6911H14.0473V20.7273H23.5743C23.5743 20.7273 28.1466 21.2458 28.1466 14.0361C28.1466 6.82638 24.1558 7.08205 24.1558 7.08205H21.774V10.4276C21.774 10.4276 21.9024 14.4185 17.8469 14.4185C13.7915 14.4185 11.0841 14.4185 11.0841 14.4185C11.0841 14.4185 7.28443 14.357 7.28443 18.0906C7.28443 21.8242 7.28443 24.264 7.28443 24.264C7.28443 24.264 6.70754 28 14.1747 28ZM17.9346 25.8413C17.2562 25.8413 16.7078 25.2929 16.7078 24.6145C16.7078 23.9361 17.2562 23.3878 17.9346 23.3878C18.613 23.3878 19.1613 23.9361 19.1613 24.6145C19.1613 25.2929 18.613 25.8413 17.9346 25.8413Z" fill="url(#paint1_linear_129_5216)"/>
</g>
<defs>
<linearGradient id="paint0_linear_129_5216" x1="2.70494" y1="2.44745" x2="16.6226" y2="16.4117" gradientUnits="userSpaceOnUse">
<stop stop-color="#387EB8"/>
<stop offset="1" stop-color="#366994"/>
</linearGradient>
<linearGradient id="paint1_linear_129_5216" x1="11.2665" y1="11.3308" x2="26.2141" y2="25.6514" gradientUnits="userSpaceOnUse">
<stop stop-color="#FFE052"/>
<stop offset="1" stop-color="#FFC331"/>
</linearGradient>
<clipPath id="clip0_129_5216">
<rect width="28.1466" height="28" fill="white"/>
</clipPath>
</defs>
</svg>
