<svg width="31" height="23" viewBox="0 0 31 23" fill="none" xmlns="http://www.w3.org/2000/svg">
<g clip-path="url(#clip0_129_5241)">
<path d="M26.6765 13.2197C25.5956 13.2253 24.6562 13.483 23.8696 13.8639C23.581 13.2981 23.2924 12.794 23.2415 12.4243C23.1849 11.9929 23.117 11.7297 23.1849 11.2143C23.2528 10.699 23.5584 9.96519 23.5527 9.90917C23.5471 9.85315 23.4848 9.58988 22.8623 9.58428C22.2399 9.57868 21.7023 9.70191 21.64 9.86436C21.5778 10.0268 21.4589 10.3965 21.3797 10.7774C21.2722 11.3376 20.1347 13.3373 19.4839 14.3848C19.2745 13.9759 19.0935 13.6174 19.0538 13.3317C18.9972 12.9004 18.9293 12.6371 18.9972 12.1218C19.0652 11.6064 19.3707 10.8726 19.3651 10.8166C19.3594 10.7606 19.2972 10.4973 18.6747 10.4917C18.0522 10.4861 17.5146 10.6094 17.4523 10.7718C17.3901 10.9343 17.3222 11.3152 17.192 11.6849C17.0619 12.0546 15.5509 15.3931 15.1548 16.2557C14.9511 16.6983 14.7756 17.0512 14.6511 17.292C14.6511 17.292 14.6455 17.3088 14.6285 17.3368C14.521 17.5441 14.4587 17.6561 14.4587 17.6561C14.4587 17.6561 14.4587 17.6561 14.4587 17.6617C14.3738 17.813 14.2833 17.953 14.238 17.953C14.2041 17.953 14.1418 17.5497 14.2493 17.0007C14.4757 15.8412 15.0133 14.0375 15.0077 13.9759C15.0077 13.9423 15.1095 13.6286 14.6568 13.4662C14.2154 13.3037 14.0569 13.5726 14.0173 13.5726C13.9777 13.5726 13.9494 13.6678 13.9494 13.6678C13.9494 13.6678 14.4418 11.6401 13.01 11.6401C12.1159 11.6401 10.8822 12.6091 10.2711 13.483C9.88626 13.6902 9.06571 14.1327 8.18856 14.6089C7.85468 14.7937 7.50948 14.9786 7.18692 15.1522C7.16428 15.1298 7.14165 15.1018 7.11901 15.0794C5.38736 13.2477 2.18436 11.9537 2.32018 9.49465C2.37111 8.5984 2.68235 6.24575 8.47151 3.38896C13.2364 1.06431 17.0279 1.70849 17.6844 3.13689C18.6238 5.17585 15.6528 8.96251 10.7295 9.51146C8.85066 9.71872 7.866 9.00172 7.617 8.73284C7.35669 8.45276 7.31707 8.43596 7.22087 8.49198C7.06242 8.576 7.16428 8.82807 7.22087 8.97371C7.36801 9.35462 7.97352 10.0268 8.9978 10.3573C9.90324 10.6486 12.1046 10.811 14.77 9.79154C17.7523 8.64882 20.0838 5.47274 19.399 2.812C18.7143 0.112044 14.1871 -0.778604 9.90324 0.728215C7.35669 1.62446 4.5951 3.03606 2.60879 4.87337C0.248984 7.05798 -0.12451 8.95691 0.0282834 9.75233C0.577206 12.5755 4.51021 14.4128 6.08341 15.774C6.00419 15.8188 5.93062 15.858 5.86837 15.8916C5.08177 16.2781 2.0825 17.8298 1.33551 19.471C0.486662 21.3307 1.47133 22.6639 2.12211 22.8432C4.14238 23.3977 6.21923 22.4006 7.33405 20.7538C8.44887 19.1069 8.31306 16.9671 7.79809 15.9869C7.79243 15.9757 7.78677 15.9645 7.77545 15.9532C7.97918 15.8356 8.18856 15.7124 8.39228 15.5948C8.79407 15.3595 9.1902 15.141 9.52974 14.9618C9.33734 15.4827 9.19586 16.1045 9.12795 17.0007C9.04307 18.0538 9.47881 19.4206 10.0504 19.9584C10.305 20.1936 10.605 20.1992 10.7974 20.1992C11.4651 20.1992 11.765 19.6503 12.0989 19.0005C12.5064 18.2051 12.8742 17.2808 12.8742 17.2808C12.8742 17.2808 12.4158 19.7791 13.6608 19.7791C14.1135 19.7791 14.5719 19.1966 14.7756 18.8997C14.7756 18.9053 14.7756 18.9053 14.7756 18.9053C14.7756 18.9053 14.787 18.8885 14.8096 18.8493C14.8549 18.7764 14.8832 18.7316 14.8832 18.7316C14.8832 18.7316 14.8832 18.726 14.8832 18.7204C15.0642 18.4067 15.4717 17.6953 16.0772 16.5134C16.8581 14.9898 17.6108 13.0853 17.6108 13.0853C17.6108 13.0853 17.6787 13.5502 17.9107 14.3232C18.0465 14.7769 18.3295 15.2755 18.5558 15.7572C18.3748 16.0093 18.2616 16.1493 18.2616 16.1493C18.2616 16.1493 18.2616 16.1493 18.2672 16.1549C18.1201 16.3454 17.9617 16.5526 17.7862 16.7543C17.1694 17.4825 16.4337 18.3171 16.3319 18.558C16.213 18.8437 16.2413 19.0509 16.4677 19.219C16.6318 19.3422 16.9261 19.359 17.226 19.3422C17.7806 19.303 18.171 19.1685 18.3634 19.0845C18.6634 18.9781 19.0142 18.8156 19.3424 18.5748C19.948 18.1323 20.3158 17.4993 20.2818 16.6646C20.2649 16.2053 20.1121 15.746 19.9253 15.3147C19.9819 15.2363 20.0328 15.1578 20.0894 15.0794C21.0458 13.6958 21.7871 12.1778 21.7871 12.1778C21.7871 12.1778 21.855 12.6427 22.0871 13.4157C22.2002 13.8079 22.4323 14.2336 22.636 14.6481C21.7362 15.3707 21.1816 16.2109 20.9836 16.7599C20.627 17.7794 20.9043 18.2387 21.4306 18.3451C21.6683 18.3955 22.0078 18.2835 22.2568 18.1771C22.5737 18.0762 22.9472 17.9026 23.3037 17.6449C23.9093 17.2024 24.4921 16.5862 24.4582 15.7516C24.4412 15.3707 24.3393 14.9954 24.1979 14.6313C24.9618 14.3176 25.9465 14.1439 27.2028 14.2896C29.8965 14.6033 30.4284 16.2669 30.3266 16.9671C30.2247 17.6673 29.6588 18.0482 29.4721 18.1659C29.2853 18.2835 29.2231 18.3227 29.24 18.4067C29.2627 18.53 29.3532 18.5244 29.5117 18.502C29.7324 18.4627 30.9264 17.9362 30.9774 16.6478C31.0622 15.001 29.4777 13.2029 26.6765 13.2197ZM5.89667 20.1544C5.00254 21.1179 3.75756 21.482 3.21996 21.1739C2.64274 20.8434 2.8691 19.4206 3.96695 18.4011C4.63471 17.7794 5.49488 17.2024 6.06644 16.8495C6.19659 16.7711 6.389 16.659 6.62102 16.519C6.66063 16.4966 6.68327 16.4854 6.68327 16.4854C6.72854 16.4574 6.77381 16.4294 6.81908 16.4014C7.22087 17.8578 6.83606 19.1405 5.89667 20.1544ZM12.4045 15.774C12.0933 16.5246 11.4425 18.4459 11.0464 18.3395C10.7068 18.2499 10.4974 16.7935 10.9784 15.3539C11.2218 14.6313 11.7368 13.7686 12.0367 13.4326C12.5234 12.8948 13.061 12.7156 13.1911 12.934C13.3552 13.2197 12.5969 15.3035 12.4045 15.774ZM17.7749 18.3171C17.6447 18.3843 17.5203 18.4291 17.4637 18.3955C17.424 18.3731 17.5203 18.2835 17.5203 18.2835C17.5203 18.2835 18.1937 17.5665 18.4596 17.2416C18.6124 17.0512 18.7935 16.8271 18.9859 16.575C18.9859 16.5974 18.9859 16.6254 18.9859 16.6478C18.9859 17.5049 18.1484 18.0818 17.7749 18.3171ZM21.9173 17.3816C21.8211 17.3144 21.8381 17.0904 22.1606 16.3902C22.2851 16.1157 22.5794 15.6564 23.083 15.2138C23.1396 15.3931 23.1793 15.5667 23.1736 15.7292C23.1679 16.8103 22.387 17.2136 21.9173 17.3816Z" fill="#CD6799"/>
</g>
<defs>
<clipPath id="clip0_129_5241">
<rect width="31" height="23" fill="white"/>
</clipPath>
</defs>
</svg>
