<svg width="27" height="28" viewBox="0 0 27 28" fill="none" xmlns="http://www.w3.org/2000/svg">
<g clip-path="url(#clip0_129_5224)">
<path d="M23.7617 0H2.57161C1.15135 0 0 1.22422 0 2.73438V25.2656C0 26.7758 1.15135 28 2.57161 28H23.7617C25.182 28 26.3333 26.7758 26.3333 25.2656V2.73438C26.3333 1.22422 25.182 0 23.7617 0Z" fill="#3178C6"/>
<path fill-rule="evenodd" clip-rule="evenodd" d="M16.304 22.2578V24.9922C16.7206 25.2219 17.2298 25.3914 17.7956 25.5062C18.3613 25.6211 18.9785 25.6758 19.5957 25.6758C20.2129 25.6758 20.7787 25.6156 21.3444 25.4898C21.9102 25.364 22.3731 25.1562 22.7845 24.8883C23.2011 24.5984 23.556 24.232 23.7617 23.7398C23.9675 23.2476 24.1269 22.7008 24.1269 21.9898C24.1269 21.4922 24.0549 21.0601 23.916 20.6773C23.7772 20.2945 23.5766 19.9664 23.2988 19.693C23.0365 19.4031 22.7331 19.1461 22.3731 18.9273C22.013 18.7086 21.6016 18.4789 21.1387 18.2711C20.7992 18.1234 20.5215 17.9812 20.2129 17.839C19.9454 17.6969 19.714 17.5547 19.5443 17.4125C19.354 17.2648 19.21 17.1117 19.1071 16.9531C19.0042 16.789 18.9528 16.6086 18.9528 16.4062C18.9528 16.2203 18.9986 16.0508 19.0917 15.8976C19.1848 15.7445 19.3128 15.6187 19.4774 15.5094C19.642 15.4 19.8477 15.318 20.0946 15.2578C20.3363 15.1976 20.6038 15.1703 20.9175 15.1703C21.1335 15.1703 21.3598 15.1873 21.5861 15.2217C21.8227 15.2562 22.0645 15.3092 22.3062 15.3803C22.5479 15.4514 22.7845 15.5389 23.0262 15.6483C23.2525 15.7576 23.4634 15.8834 23.6434 16.0256V13.4553C23.2525 13.2967 22.8205 13.1764 22.3576 13.0998C21.8947 13.0233 21.3804 12.985 20.7632 12.985C20.146 12.985 19.5803 13.0561 19.0145 13.1928C18.4488 13.3295 17.9859 13.5483 17.5744 13.849C17.1578 14.1444 16.8544 14.5053 16.5972 14.9975C16.3555 15.4569 16.2372 15.9819 16.2372 16.6381C16.2372 17.4584 16.4583 18.1694 16.9058 18.7162C17.3481 19.3178 18.0373 19.7553 18.9117 20.1928C19.2665 20.3459 19.5803 20.499 19.8889 20.6467C20.1975 20.7944 20.4546 20.9475 20.6604 21.1061C20.8815 21.2647 21.0564 21.4397 21.1747 21.6256C21.3033 21.8115 21.3701 22.0303 21.3701 22.2819C21.3701 22.4569 21.33 22.6209 21.2518 22.774C21.1737 22.9272 21.0512 23.0584 20.8867 23.1678C20.7221 23.2772 20.5215 23.3647 20.2695 23.4303C20.0277 23.4905 19.7551 23.5233 19.3951 23.5233C18.8294 23.5233 18.2636 23.4194 17.7493 23.2115C17.1835 23.0037 16.6692 22.692 16.2063 22.2819L16.304 22.2578ZM11.9837 15.5312H15.2754V13.289H6.06902V15.5312H9.36068V25.539H11.9837V15.5312Z" fill="white"/>
</g>
<defs>
<clipPath id="clip0_129_5224">
<rect width="26.3333" height="28" fill="white"/>
</clipPath>
</defs>
</svg>
