<svg width="43" height="42" viewBox="0 0 43 42" fill="none" xmlns="http://www.w3.org/2000/svg">
<g clip-path="url(#clip0_126_547)">
<path d="M19.218 0.961829C9.675 1.99911 1.99912 9.67498 0.961838 19.0105C-0.0754427 28.7609 5.52587 37.4741 14.0316 40.7934C14.6539 41.0009 15.2763 40.5859 15.2763 39.7561V36.4368C15.2763 36.4368 14.4465 36.6443 13.4092 36.6443C10.5048 36.6443 9.26009 34.1548 9.05263 32.7026C8.84517 31.8728 8.43026 31.2504 7.80789 30.628C7.18552 30.4206 6.97807 30.4206 6.97807 30.2131C6.97807 29.7982 7.60044 29.7982 7.80789 29.7982C9.05263 29.7982 10.0899 31.2504 10.5048 31.8728C11.5421 33.5324 12.7868 33.9473 13.4092 33.9473C14.239 33.9473 14.8614 33.7399 15.2763 33.5324C15.4838 32.0802 16.1061 30.628 17.3509 29.7982C12.5794 28.7609 9.05263 26.064 9.05263 21.5C9.05263 19.218 10.0899 16.9359 11.5421 15.2763C11.3346 14.8614 11.1272 13.8241 11.1272 12.3719C11.1272 11.5421 11.1272 10.2974 11.7496 9.05262C11.7496 9.05262 14.6539 9.05262 17.5583 11.7495C18.5956 11.3346 20.0478 11.1272 21.5 11.1272C22.9522 11.1272 24.4044 11.3346 25.6491 11.7495C28.3461 9.05262 31.4579 9.05262 31.4579 9.05262C31.8728 10.2974 31.8728 11.5421 31.8728 12.3719C31.8728 14.0316 31.6654 14.8614 31.4579 15.2763C32.9101 16.9359 33.9474 19.0105 33.9474 21.5C33.9474 26.064 30.4206 28.7609 25.6491 29.7982C26.8939 30.8355 27.7237 32.7026 27.7237 34.5697V39.9636C27.7237 40.5859 28.3461 41.2083 29.1759 41.0009C36.8518 37.889 42.2456 30.4206 42.2456 21.7074C42.2456 9.26007 31.6654 -0.490364 19.218 0.961829Z" fill="black"/>
</g>
<defs>
<clipPath id="clip0_126_547">
<rect width="43" height="41.8684" fill="white"/>
</clipPath>
</defs>
</svg>
