<svg width="43" height="43" viewBox="0 0 43 43" fill="none" xmlns="http://www.w3.org/2000/svg">
<path d="M21.5 0.860001C10.1016 0.860001 0.860001 10.1016 0.860001 21.5C0.860001 32.8984 10.1016 42.14 21.5 42.14C32.8984 42.14 42.14 32.8984 42.14 21.5C42.14 10.1016 32.8984 0.860001 21.5 0.860001ZM13.7531 10.1532C15.2014 10.1532 16.1663 11.1181 16.1663 12.4046C16.1663 13.6912 15.2014 14.6561 13.5932 14.6561C12.1449 14.6578 11.18 13.6912 11.18 12.4046C11.18 11.1181 12.1449 10.1532 13.7531 10.1532ZM16.34 30.1H11.18V16.34H16.34V30.1ZM33.54 30.1H28.6827V22.5802C28.6827 20.5007 27.3876 20.0208 26.9025 20.0208C26.4175 20.0208 24.7972 20.3407 24.7972 22.5802C24.7972 22.9001 24.7972 30.1 24.7972 30.1H19.78V16.34H24.799V18.2595C25.4457 17.1398 26.7408 16.34 29.1695 16.34C31.5981 16.34 33.54 18.2595 33.54 22.5802V30.1Z" fill="#0A66C2"/>
</svg>
