<svg width="43" height="35" viewBox="0 0 43 35" fill="none" xmlns="http://www.w3.org/2000/svg">
<path d="M42.7333 4.33045C41.1702 5.02462 39.4912 5.49175 37.7288 5.70245C39.5287 4.62445 40.9089 2.91762 41.559 0.882484C39.8766 1.88045 38.0114 2.60565 36.0252 2.99765C34.436 1.30388 32.1722 0.245483 29.6667 0.245483C24.8549 0.245483 20.9545 4.14752 20.9545 8.95768C20.9545 9.64042 21.0329 10.3068 21.1799 10.9422C13.9393 10.5796 7.5203 7.11038 3.22136 1.83798C2.4733 3.12505 2.04373 4.62118 2.04373 6.22022C2.04373 9.24188 3.5807 11.9091 5.918 13.4706C4.49046 13.4248 3.14623 13.0328 1.97186 12.3811C1.97186 12.4187 1.97186 12.453 1.97186 12.4906C1.97186 16.7127 4.97393 20.2342 8.9609 21.0329C8.2308 21.2322 7.45986 21.3383 6.66443 21.3383C6.1042 21.3383 5.55703 21.2828 5.0262 21.1832C6.13523 24.6442 9.3529 27.1644 13.1651 27.2347C10.1843 29.572 6.4276 30.9652 2.34426 30.9652C1.64193 30.9652 0.947763 30.9244 0.26503 30.8427C4.12133 33.314 8.69956 34.7562 13.6208 34.7562C29.6471 34.7562 38.4083 21.4804 38.4083 9.96708C38.4083 9.58978 38.4001 9.21412 38.3838 8.84008C40.0873 7.61018 41.5655 6.07648 42.7333 4.33045Z" fill="#1D9BF0"/>
</svg>
