<svg width="77" height="58" viewBox="0 0 77 58" fill="none" xmlns="http://www.w3.org/2000/svg">
<rect width="77" height="58" rx="8" fill="white"/>
<g clip-path="url(#clip0_54_5)">
<path d="M5.25 58H17.5V28.1212L0 14.9394V52.7273C0 55.6448 2.35375 58 5.25 58Z" fill="#4285F4"/>
<path d="M59.5 58H71.75C74.655 58 77 55.6361 77 52.7273V14.9394L59.5 28.1212" fill="#34A853"/>
<path d="M59.5 5.27273V28.1212L77 14.9394V7.9091C77 1.38849 69.5887 -2.32878 64.4 1.58182" fill="#FBBC04"/>
<path d="M17.5 28.1212V5.27274L38.5 21.0909L59.5 5.27274V28.1212L38.5 43.9394" fill="#EA4335"/>
<path d="M0 7.90891V14.9392L17.5 28.121V5.27255L12.6 1.58164C7.4025 -2.32897 0 1.38831 0 7.90891Z" fill="#C5221F"/>
</g>
<defs>
<clipPath id="clip0_54_5">
<rect width="77" height="58" fill="white"/>
</clipPath>
</defs>
</svg>
